SplineFontDB: 3.2
FontName: SignPainter-HouseScript
FullName: SignPainter HouseScript
FamilyName: SignPainter-HouseScript
Weight: Book
Copyright: (C)1999 House Industries/Brand Design Co., Inc.
Version: 3.001 August 11, 2018
ItalicAngle: 0
UnderlinePosition: -153
UnderlineWidth: 20
Ascent: 800
Descent: 200
InvalidEm: 0
sfntRevision: 0x00030042
LayerCount: 2
Layer: 0 1 "Back" 1
Layer: 1 1 "Fore" 0
XUID: [1021 516 1881243911 10337952]
StyleMap: 0x0040
FSType: 4
OS2Version: 3
OS2_WeightWidthSlopeOnly: 0
OS2_UseTypoMetrics: 0
CreationTime: 1056643668
ModificationTime: 1533980490
PfmFamily: 17
TTFWeight: 400
TTFWidth: 5
LineGap: 68
VLineGap: 0
Panose: 2 0 0 6 7 0 0 2 0 4
OS2TypoAscent: 700
OS2TypoAOffset: 0
OS2TypoDescent: -200
OS2TypoDOffset: 0
OS2TypoLinegap: 68
OS2WinAscent: 764
OS2WinAOffset: 0
OS2WinDescent: 392
OS2WinDOffset: 0
HheadAscent: 700
HheadAOffset: 0
HheadDescent: -200
HheadDOffset: 0
OS2SubXSize: 650
OS2SubYSize: 600
OS2SubXOff: 0
OS2SubYOff: 75
OS2SupXSize: 650
OS2SupYSize: 600
OS2SupXOff: 0
OS2SupYOff: 350
OS2StrikeYSize: 20
OS2StrikeYPos: 300
OS2CapHeight: 700
OS2XHeight: 500
OS2Vendor: 'HOUS'
OS2CodePages: 2000019f.00000000
OS2UnicodeRanges: a00002ef.1000204a.00000000.00000000
Lookup: 1 0 0 "'smcp' Lowercase to Small Capitals lookup 0" { "'smcp' Lowercase to Small Capitals lookup 0 subtable"  } ['aalt' ('DFLT' <'dflt' > ) 'smcp' ('DFLT' <'dflt' > ) ]
Lookup: 4 0 1 "'liga' Standard Ligatures lookup 1" { "'liga' Standard Ligatures lookup 1 subtable"  } ['liga' ('DFLT' <'dflt' > ) ]
Lookup: 258 0 0 "'kern' Horizontal Kerning lookup 0" { "'kern' Horizontal Kerning lookup 0 subtable"  } ['kern' ('DFLT' <'dflt' > ) ]
DEI: 91125
ShortTable: maxp 16
  1
  0
  1098
  155
  6
  0
  0
  2
  0
  1
  1
  0
  64
  0
  0
  0
EndShort

StartChar: .notdef
Encoding: 65536 -1 0
Width: 604
GlyphClass: 2
Flags: W
LayerCount: 2
Fore
SplineSet
49 0 m 1,0,-1
 49 702 l 1,1,-1
 550 702 l 1,2,-1
 550 0 l 1,3,-1
 49 0 l 1,0,-1
99 658 m 1,4,-1
 99 40 l 1,5,-1
 502 40 l 1,6,-1
 502 658 l 1,7,-1
 99 658 l 1,4,-1
EndSplineSet
EndChar

StartChar: exclam
Encoding: 33 33 5
Width: 317
GlyphClass: 2
Flags: W
LayerCount: 2
Fore
SplineSet
356 615 m 0,0,1
 362 624 362 624 369.5 623.5 c 128,-1,2
 377 623 377 623 381 613 c 0,3,4
 405 560 405 560 351 462 c 0,5,6
 227 240 227 240 161 95 c 0,7,8
 154 81 154 81 144 91 c 0,9,10
 113 124 113 124 141 200 c 0,11,12
 172 283 172 283 237 409 c 128,-1,13
 302 535 302 535 356 615 c 0,0,1
131 52 m 0,14,15
 147 18 147 18 124 -12 c 0,16,17
 115 -24 115 -24 97 -19.5 c 128,-1,18
 79 -15 79 -15 69 2 c 0,19,20
 58 22 58 22 59.5 42 c 128,-1,21
 61 62 61 62 74 75 c 0,22,23
 85 87 85 87 103 80 c 128,-1,24
 121 73 121 73 131 52 c 0,14,15
EndSplineSet
EndChar

StartChar: quotedbl
Encoding: 34 34 6
Width: 318
GlyphClass: 2
Flags: W
LayerCount: 2
Fore
SplineSet
191 433 m 0,0,1
 178 415 178 415 167 417 c 0,2,3
 155 418 155 418 160 433 c 0,4,5
 175 475 175 475 206.5 538.5 c 128,-1,6
 238 602 238 602 261 630 c 0,7,8
 275 648 275 648 284 631 c 0,9,10
 297 606 297 606 276 568 c 0,11,12
 224 477 224 477 191 433 c 0,0,1
239 398 m 0,13,14
 220 379 220 379 213 385 c 0,15,16
 203 392 203 392 211 405 c 0,17,18
 234 445 234 445 277.5 507 c 128,-1,19
 321 569 321 569 347 594 c 0,20,21
 355 602 355 602 363 600.5 c 128,-1,22
 371 599 371 599 373 591 c 0,23,24
 378 563 378 563 353 528 c 0,25,26
 307 464 307 464 239 398 c 0,13,14
EndSplineSet
EndChar

StartChar: numbersign
Encoding: 35 35 7
Width: 510
GlyphClass: 2
Flags: W
LayerCount: 2
Fore
SplineSet
217 347 m 1,0,1
 166 346 166 346 113 341 c 0,2,3
 106 340 106 340 103 344.5 c 128,-1,4
 100 349 100 349 105 354 c 0,5,6
 122 376 122 376 187 386 c 0,7,8
 207 389 207 389 240 392 c 1,9,10
 291 486 291 486 327 544 c 0,11,12
 339 565 339 565 346 546 c 0,13,14
 357 517 357 517 319 433 c 0,15,16
 316 426 316 426 309.5 412.5 c 128,-1,17
 303 399 303 399 301 395 c 1,18,19
 346 398 346 398 394 398 c 1,20,21
 452 502 452 502 486 549 c 0,22,23
 500 568 500 568 505 548 c 0,24,25
 515 515 515 515 476 438 c 0,26,27
 462 412 462 412 455 398 c 1,28,29
 514 398 514 398 546 394 c 0,30,31
 567 391 567 391 555 379 c 0,32,33
 526 349 526 349 442 349 c 2,34,-1
 428 349 l 1,35,36
 364 235 364 235 349 207 c 1,37,38
 410 208 410 208 458 205 c 0,39,40
 480 203 480 203 467 190 c 0,41,42
 436 159 436 159 355 159 c 2,43,-1
 323 159 l 1,44,45
 280 80 280 80 250 16 c 0,46,47
 244 4 244 4 236 16 c 0,48,49
 222 40 222 40 246 103 c 0,50,51
 258 132 258 132 270 158 c 1,52,53
 237 158 237 158 177 156 c 1,54,55
 143 88 143 88 115 28 c 0,56,57
 109 15 109 15 101 28 c 0,58,59
 87 52 87 52 109 115 c 0,60,61
 116 135 116 135 124 153 c 1,62,63
 57 149 57 149 26 146 c 0,64,65
 17 145 17 145 15.5 148.5 c 128,-1,66
 14 152 14 152 18 157 c 0,67,68
 34 182 34 182 99 192 c 0,69,70
 117 195 117 195 144 198 c 1,71,72
 171 260 171 260 217 347 c 1,0,1
367 349 m 1,73,-1
 277 349 l 1,74,75
 265 326 265 326 200 202 c 1,76,77
 229 204 229 204 293 206 c 1,78,79
 325 272 325 272 367 349 c 1,73,-1
EndSplineSet
EndChar

StartChar: dollar
Encoding: 36 36 8
Width: 351
GlyphClass: 2
Flags: W
LayerCount: 2
Fore
SplineSet
290 499 m 1,0,1
 322 554 322 554 350 601 c 0,2,3
 360 619 360 619 369 603 c 0,4,5
 384 578 384 578 354 514 c 0,6,7
 338 482 338 482 334 475 c 1,8,9
 355 457 355 457 364 433 c 0,10,11
 372 422 372 422 366.5 399 c 128,-1,12
 361 376 361 376 355.5 363 c 128,-1,13
 350 350 350 350 338 325.5 c 128,-1,14
 326 301 326 301 320 287 c 0,15,16
 316 278 316 278 312.5 276.5 c 128,-1,17
 309 275 309 275 298 281 c 0,18,19
 259 305 259 305 282 364 c 0,20,21
 285 372 285 372 291 383.5 c 128,-1,22
 297 395 297 395 301 404.5 c 128,-1,23
 305 414 305 414 309 423.5 c 128,-1,24
 313 433 313 433 312.5 440 c 128,-1,25
 312 447 312 447 307 451 c 0,26,27
 297 459 297 459 262.5 442 c 128,-1,28
 228 425 228 425 195.5 389.5 c 128,-1,29
 163 354 163 354 161 318 c 0,30,31
 160 301 160 301 177.5 285 c 128,-1,32
 195 269 195 269 227 251 c 128,-1,33
 259 233 259 233 268 226 c 0,34,35
 289 208 289 208 286 184.5 c 128,-1,36
 283 161 283 161 260 136 c 0,37,38
 242 116 242 116 210 108.5 c 128,-1,39
 178 101 178 101 140 111 c 1,40,41
 130 92 130 92 114 58.5 c 128,-1,42
 98 25 98 25 93 16 c 0,43,44
 86 3 86 3 79 13 c 0,45,46
 63 35 63 35 83 87 c 0,47,48
 86 94 86 94 91 108 c 128,-1,49
 96 122 96 122 99 128 c 1,50,51
 61 150 61 150 29 195 c 0,52,53
 20 208 20 208 35 211 c 0,54,55
 67 218 67 218 99 194 c 0,56,57
 105 190 105 190 119 178.5 c 128,-1,58
 133 167 133 167 140.5 161.5 c 128,-1,59
 148 156 148 156 162 150 c 128,-1,60
 176 144 176 144 191 143 c 0,61,62
 216 141 216 141 230 155 c 0,63,64
 245 170 245 170 226 186 c 0,65,66
 218 193 218 193 179.5 214.5 c 128,-1,67
 141 236 141 236 116.5 260 c 128,-1,68
 92 284 92 284 92 313 c 0,69,70
 93 372 93 372 137 421 c 128,-1,71
 181 470 181 470 238 494 c 0,72,73
 263 504 263 504 290 499 c 1,0,1
EndSplineSet
EndChar

StartChar: percent
Encoding: 37 37 9
Width: 596
GlyphClass: 2
Flags: W
LayerCount: 2
Fore
SplineSet
478 469 m 1,0,1
 426 466 426 466 382 495 c 1,2,3
 382 483 382 483 381 476 c 0,4,5
 374 420 374 420 333.5 356.5 c 128,-1,6
 293 293 293 293 245 280 c 0,7,8
 186 264 186 264 148 318 c 0,9,10
 101 384 101 384 165 494 c 0,11,12
 189 536 189 536 224 563 c 128,-1,13
 259 590 259 590 294 591 c 0,14,15
 313 592 313 592 323.5 586.5 c 128,-1,16
 334 581 334 581 346 563 c 0,17,18
 379 514 379 514 447 509.5 c 128,-1,19
 515 505 515 505 548 544 c 0,20,21
 572 569 572 569 575 548 c 0,22,23
 583 503 583 503 525 435 c 0,24,25
 509 416 509 416 450 348.5 c 128,-1,26
 391 281 391 281 348.5 231 c 128,-1,27
 306 181 306 181 252.5 114.5 c 128,-1,28
 199 48 199 48 167 1 c 0,29,30
 156 -15 156 -15 150 3 c 0,31,32
 138 37 138 37 173 93 c 0,33,34
 206 145 206 145 295.5 255 c 128,-1,35
 385 365 385 365 478 469 c 1,0,1
453 -15 m 0,36,37
 393 -33 393 -33 354 20 c 0,38,39
 305 87 305 87 367 195 c 0,40,41
 392 239 392 239 425 267 c 128,-1,42
 458 295 458 295 492 297 c 0,43,44
 525 300 525 300 546 271 c 0,45,46
 548 268 548 268 562.5 253 c 128,-1,47
 577 238 577 238 580.5 224.5 c 128,-1,48
 584 211 584 211 582 185 c 0,49,50
 578 129 578 129 539 64 c 128,-1,51
 500 -1 500 -1 453 -15 c 0,36,37
327 542 m 0,52,53
 312 557 312 557 277 530.5 c 128,-1,54
 242 504 242 504 215 460 c 0,55,56
 191 420 191 420 182.5 377 c 128,-1,57
 174 334 174 334 188 321 c 0,58,59
 202 307 202 307 232.5 327 c 128,-1,60
 263 347 263 347 290 394 c 0,61,62
 318 442 318 442 328.5 487 c 128,-1,63
 339 532 339 532 327 542 c 0,52,53
526 248 m 0,64,65
 512 262 512 262 477.5 235.5 c 128,-1,66
 443 209 443 209 417 164 c 0,67,68
 393 122 393 122 386 78.5 c 128,-1,69
 379 35 379 35 393 24 c 0,70,71
 410 11 410 11 439 31.5 c 128,-1,72
 468 52 468 52 494 100 c 128,-1,73
 520 148 520 148 529 194 c 128,-1,74
 538 240 538 240 526 248 c 0,64,65
EndSplineSet
EndChar

StartChar: ampersand
Encoding: 38 38 10
Width: 523
GlyphClass: 2
Flags: W
LayerCount: 2
Fore
SplineSet
337 142 m 1,0,1
 292 134 292 134 291 134 c 0,2,3
 220 127 220 127 198 174 c 0,4,5
 191 190 191 190 208 190 c 0,6,7
 242 189 242 189 314 205 c 128,-1,8
 386 221 386 221 413 223 c 0,9,10
 479 227 479 227 503 175 c 0,11,12
 506 167 506 167 503.5 162.5 c 128,-1,13
 501 158 501 158 493 159 c 0,14,15
 452 164 452 164 392 153 c 1,16,17
 404 105 404 105 358 45 c 0,18,19
 328 6 328 6 282 -19.5 c 128,-1,20
 236 -45 236 -45 179.5 -43.5 c 128,-1,21
 123 -42 123 -42 78 -3 c 0,22,23
 39 31 39 31 32 79.5 c 128,-1,24
 25 128 25 128 46 174 c 128,-1,25
 67 220 67 220 112 259 c 128,-1,26
 157 298 157 298 215 314 c 1,27,28
 159 333 159 333 156 392 c 0,29,30
 153 459 153 459 211.5 519 c 128,-1,31
 270 579 270 579 330 598 c 0,32,33
 365 613 365 613 402.5 611.5 c 128,-1,34
 440 610 440 610 471 583 c 0,35,36
 503 556 503 556 507.5 529 c 128,-1,37
 512 502 512 502 493 465 c 0,38,39
 466 408 466 408 452 368 c 0,40,41
 447 355 447 355 431 363 c 0,42,43
 412 373 412 373 405 396.5 c 128,-1,44
 398 420 398 420 409 459 c 0,45,46
 414 473 414 473 421.5 488.5 c 128,-1,47
 429 504 429 504 434 514 c 128,-1,48
 439 524 439 524 443 533.5 c 128,-1,49
 447 543 447 543 446.5 549.5 c 128,-1,50
 446 556 446 556 441 561 c 0,51,52
 426 576 426 576 372.5 551 c 128,-1,53
 319 526 319 526 271.5 475.5 c 128,-1,54
 224 425 224 425 227 379 c 0,55,56
 229 351 229 351 247.5 342 c 128,-1,57
 266 333 266 333 300 334 c 0,58,59
 359 335 359 335 374 292 c 0,60,61
 379 280 379 280 363 278 c 0,62,63
 252 269 252 269 171.5 210 c 128,-1,64
 91 151 91 151 89 79 c 0,65,66
 88 48 88 48 106 27 c 128,-1,67
 124 6 124 6 156 4 c 0,68,69
 198 1 198 1 252 37.5 c 128,-1,70
 306 74 306 74 337 142 c 1,0,1
EndSplineSet
EndChar

StartChar: quotesingle
Encoding: 39 39 11
Width: 241
GlyphClass: 2
Flags: W
LayerCount: 2
Fore
SplineSet
190 436 m 0,0,1
 178 420 178 420 164 422 c 0,2,3
 155 423 155 423 160 439 c 0,4,5
 174 478 174 478 209 542.5 c 128,-1,6
 244 607 244 607 268 636 c 0,7,8
 285 656 285 656 293 636 c 0,9,10
 303 610 303 610 282 575 c 0,11,12
 233 491 233 491 190 436 c 0,0,1
EndSplineSet
EndChar

StartChar: parenleft
Encoding: 40 40 12
Width: 228
GlyphClass: 2
Flags: W
LayerCount: 2
Fore
SplineSet
346 643 m 0,0,1
 362 653 362 653 365 636 c 0,2,3
 374 582 374 582 296 513 c 0,4,5
 191 419 191 419 135 270.5 c 128,-1,6
 79 122 79 122 93 -57 c 0,7,8
 94 -63 94 -63 90 -64.5 c 128,-1,9
 86 -66 86 -66 82 -63 c 0,10,11
 61 -50 61 -50 54 -9 c 0,12,13
 24 169 24 169 100.5 353 c 128,-1,14
 177 537 177 537 346 643 c 0,0,1
EndSplineSet
EndChar

StartChar: parenright
Encoding: 41 41 13
Width: 245
GlyphClass: 2
Flags: W
LayerCount: 2
Fore
SplineSet
279 633 m 0,0,1
 307 505 307 505 276 368 c 128,-1,2
 245 231 245 231 180.5 131 c 128,-1,3
 116 31 116 31 37 -28 c 0,4,5
 -7 -60 -7 -60 -42 -60 c 0,6,7
 -48 -60 -48 -60 -49 -56.5 c 128,-1,8
 -50 -53 -50 -53 -45 -49 c 0,9,10
 90 65 90 65 158.5 217.5 c 128,-1,11
 227 370 227 370 221 507 c 0,12,13
 217 607 217 607 261 641 c 0,14,15
 275 652 275 652 279 633 c 0,0,1
EndSplineSet
EndChar

StartChar: asterisk
Encoding: 42 42 14
Width: 366
GlyphClass: 2
Flags: W
LayerCount: 2
Fore
SplineSet
429 531 m 0,0,1
 422 498 422 498 379 487 c 0,2,3
 360 482 360 482 309 471 c 1,4,5
 346 412 346 412 358 397 c 0,6,7
 362 392 362 392 359.5 387.5 c 128,-1,8
 357 383 357 383 349 382 c 0,9,10
 322 380 322 380 299 409 c 0,11,12
 280 434 280 434 277 438 c 1,13,14
 245 383 245 383 229 348 c 0,15,16
 224 335 224 335 214 347 c 0,17,18
 196 367 196 367 212 409 c 0,19,20
 213 411 213 411 218.5 426 c 128,-1,21
 224 441 224 441 229 452 c 1,22,23
 186 442 186 442 153 433 c 0,24,25
 146 431 146 431 142.5 433.5 c 128,-1,26
 139 436 139 436 140 442 c 0,27,28
 146 471 146 471 188 486 c 0,29,30
 229 500 229 500 234 501 c 1,31,32
 201 554 201 554 184 584 c 0,33,34
 176 599 176 599 192 601 c 0,35,36
 226 604 226 604 250 564 c 0,37,38
 252 560 252 560 259.5 550 c 128,-1,39
 267 540 267 540 272 532 c 1,40,41
 299 587 299 587 337 647 c 0,42,43
 342 655 342 655 352 649 c 0,44,45
 362 642 362 642 364 625.5 c 128,-1,46
 366 609 366 609 355 582 c 0,47,48
 353 578 353 578 348.5 569.5 c 128,-1,49
 344 561 344 561 336.5 547.5 c 128,-1,50
 329 534 329 534 323 523 c 1,51,52
 369 534 369 534 415 543 c 0,53,54
 424 544 424 544 427.5 541.5 c 128,-1,55
 431 539 431 539 429 531 c 0,0,1
EndSplineSet
EndChar

StartChar: plus
Encoding: 43 43 15
Width: 314
GlyphClass: 2
Flags: W
LayerCount: 2
Fore
SplineSet
250 314 m 1,0,1
 312 313 312 313 321 260 c 0,2,3
 323 253 323 253 321 249.5 c 128,-1,4
 319 246 319 246 310 247 c 0,5,6
 273 251 273 251 213 245 c 1,7,8
 174 179 174 179 161 146 c 0,9,10
 157 128 157 128 143 139 c 0,11,12
 108 166 108 166 131 222 c 0,13,14
 137 237 137 237 138 239 c 2,15,-1
 136 239 l 2,16,17
 74 240 74 240 62 292 c 0,18,19
 60 299 60 299 63 303 c 128,-1,20
 66 307 66 307 74 306 c 0,21,22
 111 303 111 303 172 309 c 1,23,24
 178 319 178 319 197.5 354.5 c 128,-1,25
 217 390 217 390 226 406 c 128,-1,26
 235 422 235 422 249 407 c 0,27,28
 279 373 279 373 250 314 c 1,0,1
EndSplineSet
EndChar

StartChar: comma
Encoding: 44 44 16
Width: 239
GlyphClass: 2
Flags: W
LayerCount: 2
Fore
SplineSet
86 -16 m 1,0,1
 62 -3 62 -3 70 31 c 0,2,3
 75 53 75 53 90.5 66 c 128,-1,4
 106 79 106 79 122 78 c 0,5,6
 140 77 140 77 149 56.5 c 128,-1,7
 158 36 158 36 149 10 c 0,8,9
 139 -20 139 -20 112 -37 c 128,-1,10
 85 -54 85 -54 59 -44 c 0,11,12
 54 -42 54 -42 54.5 -38 c 128,-1,13
 55 -34 55 -34 59 -32 c 0,14,15
 75 -26 75 -26 86 -16 c 1,0,1
EndSplineSet
EndChar

StartChar: hyphen
Encoding: 45 45 17
Width: 325
GlyphClass: 2
Flags: W
LayerCount: 2
Fore
SplineSet
118 199 m 0,0,1
 55 202 55 202 45 252 c 0,2,3
 43 259 43 259 45 263 c 128,-1,4
 47 267 47 267 55 266 c 0,5,6
 85 264 85 264 148.5 269 c 128,-1,7
 212 274 212 274 229 274 c 0,8,9
 293 274 293 274 304 222 c 0,10,11
 306 215 306 215 303.5 211 c 128,-1,12
 301 207 301 207 293 208 c 0,13,14
 252 211 252 211 193.5 204.5 c 128,-1,15
 135 198 135 198 118 199 c 0,0,1
EndSplineSet
EndChar

StartChar: period
Encoding: 46 46 18
Width: 223
GlyphClass: 2
Flags: W
LayerCount: 2
Fore
SplineSet
60 43 m 0,0,1
 69 63 69 63 85.5 73 c 128,-1,2
 102 83 102 83 117 78 c 128,-1,3
 132 73 132 73 136 55.5 c 128,-1,4
 140 38 140 38 132 18 c 128,-1,5
 124 -2 124 -2 107 -12 c 128,-1,6
 90 -22 90 -22 75 -17 c 128,-1,7
 60 -12 60 -12 56 6.5 c 128,-1,8
 52 25 52 25 60 43 c 0,0,1
EndSplineSet
EndChar

StartChar: slash
Encoding: 47 47 19
Width: 396
GlyphClass: 2
Flags: W
LayerCount: 2
Fore
SplineSet
549 645 m 0,0,1
 568 663 568 663 573 639 c 0,2,3
 584 586 584 586 512 502 c 0,4,5
 491 478 491 478 387 366.5 c 128,-1,6
 283 255 283 255 188 146.5 c 128,-1,7
 93 38 93 38 49 -30 c 0,8,9
 45 -36 45 -36 39.5 -36 c 128,-1,10
 34 -36 34 -36 30 -28 c 0,11,12
 16 8 16 8 47 65 c 0,13,14
 88 141 88 141 266 342 c 128,-1,15
 444 543 444 543 549 645 c 0,0,1
EndSplineSet
EndChar

StartChar: zero
Encoding: 48 48 20
Width: 489
GlyphClass: 2
Flags: W
LayerCount: 2
Fore
SplineSet
400 239 m 0,0,1
 439 319 439 319 453.5 393 c 128,-1,2
 468 467 468 467 458.5 512 c 128,-1,3
 449 557 449 557 423 566 c 0,4,5
 385 579 385 579 310 522 c 128,-1,6
 235 465 235 465 175 362 c 0,7,8
 134 291 134 291 117.5 216.5 c 128,-1,9
 101 142 101 142 112 91 c 128,-1,10
 123 40 123 40 155 28 c 0,11,12
 202 9 202 9 274.5 69 c 128,-1,13
 347 129 347 129 400 239 c 0,0,1
441 588 m 1,14,15
 496 567 496 567 514 503 c 128,-1,16
 532 439 532 439 518 364.5 c 128,-1,17
 504 290 504 290 469 218 c 0,18,19
 410 97 410 97 327.5 30.5 c 128,-1,20
 245 -36 245 -36 155 -7 c 0,21,22
 100 11 100 11 71.5 57 c 128,-1,23
 43 103 43 103 42 164 c 0,24,25
 41 237 41 237 68.5 312 c 128,-1,26
 96 387 96 387 138 444 c 128,-1,27
 180 501 180 501 227 542.5 c 128,-1,28
 274 584 274 584 314 601 c 0,29,30
 355 617 355 617 388 613 c 128,-1,31
 421 609 421 609 441 588 c 1,14,15
EndSplineSet
EndChar

StartChar: one
Encoding: 49 49 21
Width: 218
GlyphClass: 2
Flags: W
LayerCount: 2
Fore
SplineSet
199 479 m 1,0,1
 153 476 153 476 157 492 c 0,2,3
 159 496 159 496 163 500 c 0,4,5
 227 562 227 562 259 596 c 0,6,7
 272 608 272 608 285 596 c 0,8,9
 329 557 329 557 278 460 c 0,10,11
 265 436 265 436 211 337.5 c 128,-1,12
 157 239 157 239 111 149 c 128,-1,13
 65 59 65 59 30 -25 c 0,14,15
 23 -42 23 -42 12 -29 c 0,16,17
 -17 4 -17 4 7 82 c 0,18,19
 22 128 22 128 81.5 251 c 128,-1,20
 141 374 141 374 199 479 c 1,0,1
EndSplineSet
EndChar

StartChar: two
Encoding: 50 50 22
Width: 423
GlyphClass: 2
Flags: W
LayerCount: 2
Fore
SplineSet
84 52 m 1,0,1
 158 74 158 74 220 76 c 0,2,3
 291 77 291 77 309 28 c 0,4,5
 314 13 314 13 299 13 c 0,6,7
 258 14 258 14 179 1 c 128,-1,8
 100 -12 100 -12 52 -26 c 0,9,10
 18 -36 18 -36 2 -19 c 0,11,12
 -14 -1 -14 -1 -23 23 c 0,13,14
 -29 38 -29 38 -26 45.5 c 128,-1,15
 -23 53 -23 53 -7 63 c 0,16,17
 125 142 125 142 238.5 241.5 c 128,-1,18
 352 341 352 341 406.5 427.5 c 128,-1,19
 461 514 461 514 428 551 c 0,20,21
 416 568 416 568 397 564 c 128,-1,22
 378 560 378 560 361 549.5 c 128,-1,23
 344 539 344 539 324 517.5 c 128,-1,24
 304 496 304 496 291 479 c 128,-1,25
 278 462 278 462 266 444 c 0,26,27
 241 407 241 407 219.5 391.5 c 128,-1,28
 198 376 198 376 166 377 c 0,29,30
 156 378 156 378 154.5 381 c 128,-1,31
 153 384 153 384 156 393 c 0,32,33
 173 440 173 440 216.5 500.5 c 128,-1,34
 260 561 260 561 313 588 c 0,35,36
 347 607 347 607 388.5 603 c 128,-1,37
 430 599 430 599 458 571 c 0,38,39
 523 506 523 506 469 396 c 0,40,41
 435 328 435 328 327 226 c 128,-1,42
 219 124 219 124 84 52 c 1,0,1
EndSplineSet
EndChar

StartChar: three
Encoding: 51 51 23
Width: 429
GlyphClass: 2
Flags: W
LayerCount: 2
Fore
SplineSet
472 415 m 0,0,1
 424 352 424 352 336 315 c 1,2,3
 367 308 367 308 382 295 c 0,4,5
 420 263 420 263 410 203 c 128,-1,6
 400 143 400 143 345 75 c 0,7,8
 305 26 305 26 252.5 3.5 c 128,-1,9
 200 -19 200 -19 155 -15 c 128,-1,10
 110 -11 110 -11 76 11 c 0,11,12
 44 32 44 32 29.5 63 c 128,-1,13
 15 94 15 94 15.5 119.5 c 128,-1,14
 16 145 16 145 25 166 c 0,15,16
 37 196 37 196 60 213.5 c 128,-1,17
 83 231 83 231 107 231 c 0,18,19
 124 231 124 231 115 217 c 0,20,21
 79 159 79 159 75.5 109 c 128,-1,22
 72 59 72 59 100 43 c 0,23,24
 137 20 137 20 191 43.5 c 128,-1,25
 245 67 245 67 287 120 c 0,26,27
 326 168 326 168 340 210.5 c 128,-1,28
 354 253 354 253 333 273 c 0,29,30
 319 281 319 281 298.5 280.5 c 128,-1,31
 278 280 278 280 259 275 c 128,-1,32
 240 270 240 270 217 276 c 128,-1,33
 194 282 194 282 176 303 c 0,34,35
 165 316 165 316 185 322 c 0,36,37
 285 351 285 351 355.5 402.5 c 128,-1,38
 426 454 426 454 448 499.5 c 128,-1,39
 470 545 470 545 448 568 c 0,40,41
 403 616 403 616 303 491 c 0,42,43
 250 424 250 424 195 435 c 0,44,45
 177 438 177 438 185 453 c 0,46,47
 207 498 207 498 250.5 543.5 c 128,-1,48
 294 589 294 589 331 607 c 0,49,50
 367 625 367 625 410 620.5 c 128,-1,51
 453 616 453 616 478 590 c 0,52,53
 549 517 549 517 472 415 c 0,0,1
EndSplineSet
EndChar

StartChar: four
Encoding: 52 52 24
Width: 426
GlyphClass: 2
Flags: W
LayerCount: 2
Fore
SplineSet
440 512 m 1,0,1
 203 349 203 349 94 232 c 1,2,3
 199 259 199 259 295 264 c 1,4,5
 372 413 372 413 440 512 c 1,0,1
371 252 m 1,6,7
 399 237 399 237 408 209 c 0,8,9
 410 202 410 202 407 199 c 128,-1,10
 404 196 404 196 397 197 c 0,11,12
 374 202 374 202 343 200 c 1,13,14
 271 69 271 69 237 -18 c 0,15,16
 235 -23 235 -23 232 -25 c 128,-1,17
 229 -27 229 -27 225.5 -26 c 128,-1,18
 222 -25 222 -25 220 -22 c 0,19,20
 191 21 191 21 214 87 c 0,21,22
 230 129 230 129 260 193 c 1,23,24
 170 181 170 181 114 167 c 0,25,26
 90 162 90 162 80 175 c 0,27,28
 65 195 65 195 45 232 c 0,29,30
 36 249 36 249 49 264 c 0,31,32
 109 335 109 335 230.5 434.5 c 128,-1,33
 352 534 352 534 453 599 c 0,34,35
 479 616 479 616 492 596 c 0,36,37
 503 579 503 579 520 549 c 0,38,39
 529 533 529 533 528 523.5 c 128,-1,40
 527 514 527 514 512 491 c 0,41,42
 457 406 457 406 371 252 c 1,6,7
EndSplineSet
EndChar

StartChar: five
Encoding: 53 53 25
Width: 415
GlyphClass: 2
Flags: W
LayerCount: 2
Fore
SplineSet
552 556 m 0,0,1
 513 556 513 556 474.5 551 c 128,-1,2
 436 546 436 546 395 538.5 c 128,-1,3
 354 531 354 531 334 528 c 0,4,5
 328 527 328 527 318 527 c 1,6,7
 285 478 285 478 219 374 c 1,8,9
 256 387 256 387 292.5 382.5 c 128,-1,10
 329 378 329 378 352 361 c 0,11,12
 380 340 380 340 393 310 c 128,-1,13
 406 280 406 280 397.5 227.5 c 128,-1,14
 389 175 389 175 350 111 c 0,15,16
 315 52 315 52 264 20 c 128,-1,17
 213 -12 213 -12 166.5 -12 c 128,-1,18
 120 -12 120 -12 79 6 c 0,19,20
 46 23 46 23 30 53 c 128,-1,21
 14 83 14 83 15.5 111.5 c 128,-1,22
 17 140 17 140 25 166 c 0,23,24
 48 227 48 227 107 231 c 0,25,26
 113 232 113 232 115 227.5 c 128,-1,27
 117 223 117 223 113 217 c 0,28,29
 78 162 78 162 75 107.5 c 128,-1,30
 72 53 72 53 102 37 c 0,31,32
 138 15 138 15 195.5 52.5 c 128,-1,33
 253 90 253 90 290 153 c 0,34,35
 326 215 326 215 332 270 c 128,-1,36
 338 325 338 325 312 337 c 0,37,38
 285 351 285 351 243.5 331.5 c 128,-1,39
 202 312 202 312 170 269 c 0,40,41
 160 257 160 257 150 268 c 0,42,43
 114 308 114 308 147 378 c 0,44,45
 182 450 182 450 247 553 c 1,46,47
 236 564 236 564 230 583 c 0,48,49
 226 596 226 596 242 596 c 0,50,51
 295 594 295 594 380 608.5 c 128,-1,52
 465 623 465 623 482 623 c 0,53,54
 542 624 542 624 562 569 c 0,55,56
 566 556 566 556 552 556 c 0,0,1
EndSplineSet
EndChar

StartChar: six
Encoding: 54 54 26
Width: 401
GlyphClass: 2
Flags: W
LayerCount: 2
Fore
SplineSet
484 528 m 0,0,1
 481 447 481 447 442 371 c 0,2,3
 435 356 435 356 421 366 c 0,4,5
 401 380 401 380 397 410.5 c 128,-1,6
 393 441 393 441 407 480 c 0,7,8
 414 500 414 500 418.5 513.5 c 128,-1,9
 423 527 423 527 427 542 c 128,-1,10
 431 557 431 557 430 564.5 c 128,-1,11
 429 572 429 572 423 573 c 0,12,13
 388 578 388 578 314.5 518.5 c 128,-1,14
 241 459 241 459 178 351 c 1,15,16
 253 397 253 397 321 354 c 0,17,18
 354 334 354 334 370 300.5 c 128,-1,19
 386 267 386 267 380.5 216 c 128,-1,20
 375 165 375 165 342 105 c 0,21,22
 309 46 309 46 266.5 16 c 128,-1,23
 224 -14 224 -14 183.5 -13 c 128,-1,24
 143 -12 143 -12 104 8 c 0,25,26
 36 47 36 47 34.5 149 c 128,-1,27
 33 251 33 251 104 380 c 0,28,29
 147 456 147 456 201 510.5 c 128,-1,30
 255 565 255 565 289 584.5 c 128,-1,31
 323 604 323 604 352 614 c 0,32,33
 406 632 406 632 448 604 c 0,34,35
 485 579 485 579 484 528 c 0,0,1
107 166 m 0,36,37
 96 112 96 112 103.5 80.5 c 128,-1,38
 111 49 111 49 129 38 c 0,39,40
 159 20 159 20 205.5 52 c 128,-1,41
 252 84 252 84 284 149 c 128,-1,42
 316 214 316 214 318.5 262.5 c 128,-1,43
 321 311 321 311 292 326 c 0,44,45
 270 336 270 336 234.5 323.5 c 128,-1,46
 199 311 199 311 161.5 269.5 c 128,-1,47
 124 228 124 228 107 166 c 0,36,37
EndSplineSet
EndChar

StartChar: seven
Encoding: 55 55 27
Width: 337
GlyphClass: 2
Flags: W
LayerCount: 2
Fore
SplineSet
383 536 m 1,0,1
 365 533 365 533 316 522 c 128,-1,2
 267 511 267 511 244 508 c 0,3,4
 158 496 158 496 138 561 c 0,5,6
 134 573 134 573 149 573 c 0,7,8
 196 573 196 573 281 587 c 128,-1,9
 366 601 366 601 372 602 c 0,10,11
 387 605 387 605 397.5 602.5 c 128,-1,12
 408 600 408 600 418 586 c 0,13,14
 433 563 433 563 447 524 c 0,15,16
 451 508 451 508 448 501 c 128,-1,17
 445 494 445 494 428 478 c 0,18,19
 337 392 337 392 216.5 242.5 c 128,-1,20
 96 93 96 93 29 -18 c 0,21,22
 20 -32 20 -32 11 -18 c 0,23,24
 -13 19 -13 19 28 96 c 0,25,26
 72 181 72 181 185 320.5 c 128,-1,27
 298 460 298 460 383 536 c 1,0,1
EndSplineSet
EndChar

StartChar: eight
Encoding: 56 56 28
Width: 388
GlyphClass: 2
Flags: W
LayerCount: 2
Fore
SplineSet
277 327 m 1,0,1
 281 319 281 319 289 303.5 c 128,-1,2
 297 288 297 288 303.5 275.5 c 128,-1,3
 310 263 310 263 315 251 c 0,4,5
 378 115 378 115 287 23 c 0,6,7
 249 -16 249 -16 183 -28 c 128,-1,8
 117 -40 117 -40 73 -18 c 0,9,10
 32 2 32 2 16 37 c 128,-1,11
 0 72 0 72 5.5 107.5 c 128,-1,12
 11 143 11 143 31 178 c 0,13,14
 74 256 74 256 185 345 c 1,15,16
 156 410 156 410 161 446 c 0,17,18
 167 495 167 495 201 533.5 c 128,-1,19
 235 572 235 572 283 591 c 0,20,21
 329 607 329 607 369.5 605 c 128,-1,22
 410 603 410 603 435.5 575.5 c 128,-1,23
 461 548 461 548 458 501 c 1,24,25
 499 511 499 511 520 498 c 0,26,27
 527 494 527 494 526.5 489 c 128,-1,28
 526 484 526 484 519 480 c 0,29,30
 389 409 389 409 277 327 c 1,0,1
396 477 m 1,31,32
 399 519 399 519 384 546.5 c 128,-1,33
 369 574 369 574 336 568 c 0,34,35
 299 561 299 561 268.5 523.5 c 128,-1,36
 238 486 238 486 238 446 c 0,37,38
 238 422 238 422 249 392 c 1,39,40
 324 444 324 444 396 477 c 1,31,32
216 279 m 1,41,42
 115 193 115 193 82 122 c 0,43,44
 45 41 45 41 94 16 c 0,45,46
 119 3 119 3 154.5 12.5 c 128,-1,47
 190 22 190 22 216 50 c 0,48,49
 231 66 231 66 240 79 c 128,-1,50
 249 92 249 92 256 110.5 c 128,-1,51
 263 129 263 129 261.5 152.5 c 128,-1,52
 260 176 260 176 250 204 c 128,-1,53
 240 232 240 232 216 279 c 1,41,42
EndSplineSet
EndChar

StartChar: nine
Encoding: 57 57 29
Width: 414
GlyphClass: 2
Flags: W
LayerCount: 2
Fore
SplineSet
361 369 m 0,0,1
 391 451 391 451 390 498.5 c 128,-1,2
 389 546 389 546 366 559 c 0,3,4
 338 574 338 574 288 534 c 128,-1,5
 238 494 238 494 204 428 c 0,6,7
 169 361 169 361 167.5 307.5 c 128,-1,8
 166 254 166 254 196 241 c 0,9,10
 232 224 232 224 281.5 259.5 c 128,-1,11
 331 295 331 295 361 369 c 0,0,1
308 220 m 1,12,13
 239 180 239 180 170 214 c 0,14,15
 138 230 138 230 119.5 261 c 128,-1,16
 101 292 101 292 104 345.5 c 128,-1,17
 107 399 107 399 141 462 c 0,18,19
 190 553 190 553 256 586.5 c 128,-1,20
 322 620 322 620 387 588 c 0,21,22
 456 552 456 552 453 448.5 c 128,-1,23
 450 345 450 345 376 196 c 0,24,25
 319 82 319 82 257.5 26 c 128,-1,26
 196 -30 196 -30 122 -31 c 0,27,28
 72 -32 72 -32 33 -6 c 128,-1,29
 -6 20 -6 20 -9 78 c 0,30,31
 -10 108 -10 108 2.5 130.5 c 128,-1,32
 15 153 15 153 31 162 c 0,33,34
 37 166 37 166 41.5 167 c 128,-1,35
 46 168 46 168 48.5 165.5 c 128,-1,36
 51 163 51 163 50 156 c 0,37,38
 22 33 22 33 84 11 c 0,39,40
 129 -5 129 -5 189.5 49 c 128,-1,41
 250 103 250 103 308 220 c 1,12,13
EndSplineSet
EndChar

StartChar: colon
Encoding: 58 58 30
Width: 255
GlyphClass: 2
Flags: W
LayerCount: 2
Fore
SplineSet
200 343 m 0,0,1
 209 362 209 362 225 372.5 c 128,-1,2
 241 383 241 383 256 377 c 0,3,4
 270 371 270 371 274.5 354.5 c 128,-1,5
 279 338 279 338 271 318 c 128,-1,6
 263 298 263 298 246.5 288 c 128,-1,7
 230 278 230 278 215 283 c 128,-1,8
 200 288 200 288 195.5 305.5 c 128,-1,9
 191 323 191 323 200 343 c 0,0,1
43 43 m 0,10,11
 53 63 53 63 69.5 73 c 128,-1,12
 86 83 86 83 100 78 c 0,13,14
 115 73 115 73 119 55.5 c 128,-1,15
 123 38 123 38 115 18 c 0,16,17
 107 -1 107 -1 90 -11.5 c 128,-1,18
 73 -22 73 -22 58 -17 c 0,19,20
 44 -12 44 -12 39 6 c 128,-1,21
 34 24 34 24 43 43 c 0,10,11
EndSplineSet
EndChar

StartChar: semicolon
Encoding: 59 59 31
Width: 264
GlyphClass: 2
Flags: W
LayerCount: 2
Fore
SplineSet
210 343 m 0,0,1
 219 361 219 361 235.5 372 c 128,-1,2
 252 383 252 383 266 377 c 0,3,4
 279 372 279 372 284 355 c 128,-1,5
 289 338 289 338 281 318 c 128,-1,6
 273 298 273 298 256.5 288 c 128,-1,7
 240 278 240 278 225 283 c 128,-1,8
 210 288 210 288 205.5 305.5 c 128,-1,9
 201 323 201 323 210 343 c 0,0,1
63 -16 m 1,10,11
 39 -3 39 -3 48 31 c 0,12,13
 54 53 54 53 69.5 66 c 128,-1,14
 85 79 85 79 101 78 c 0,15,16
 119 77 119 77 127 57 c 128,-1,17
 135 37 135 37 126 10 c 0,18,19
 116 -20 116 -20 89.5 -37 c 128,-1,20
 63 -54 63 -54 37 -44 c 0,21,22
 32 -42 32 -42 32 -38 c 128,-1,23
 32 -34 32 -34 37 -32 c 0,24,25
 52 -27 52 -27 63 -16 c 1,10,11
EndSplineSet
EndChar

StartChar: less
Encoding: 60 60 32
Width: 288
GlyphClass: 2
Flags: W
LayerCount: 2
Fore
SplineSet
158 267 m 1,0,1
 194 247 194 247 215 229 c 0,2,3
 245 202 245 202 240 166 c 0,4,5
 237 148 237 148 222 159 c 0,6,7
 185 186 185 186 101 227 c 0,8,9
 80 237 80 237 73 280 c 0,10,11
 71 292 71 292 74 297.5 c 128,-1,12
 77 303 77 303 90 307 c 0,13,14
 130 320 130 320 188.5 347 c 128,-1,15
 247 374 247 374 277 394 c 0,16,17
 293 405 293 405 293 385 c 0,18,19
 293 347 293 347 256 319 c 0,20,21
 231 299 231 299 158 267 c 1,0,1
EndSplineSet
EndChar

StartChar: equal
Encoding: 61 61 33
Width: 361
GlyphClass: 2
Flags: W
LayerCount: 2
Fore
SplineSet
173 290 m 0,0,1
 112 291 112 291 101 344 c 0,2,3
 99 352 99 352 101.5 355 c 128,-1,4
 104 358 104 358 112 357 c 0,5,6
 140 355 140 355 202 360 c 128,-1,7
 264 365 264 365 286 364 c 0,8,9
 352 360 352 360 360 309 c 0,10,11
 362 302 362 302 359 298 c 128,-1,12
 356 294 356 294 347 295 c 0,13,14
 306 299 306 299 245.5 294.5 c 128,-1,15
 185 290 185 290 173 290 c 0,0,1
126 182 m 0,16,17
 62 185 62 185 52 236 c 0,18,19
 50 244 50 244 52.5 247.5 c 128,-1,20
 55 251 55 251 63 250 c 0,21,22
 92 248 92 248 153.5 254 c 128,-1,23
 215 260 215 260 236 259 c 0,24,25
 301 256 301 256 311 205 c 0,26,27
 313 198 313 198 310.5 194 c 128,-1,28
 308 190 308 190 300 191 c 0,29,30
 259 194 259 194 201 187.5 c 128,-1,31
 143 181 143 181 126 182 c 0,16,17
EndSplineSet
EndChar

StartChar: greater
Encoding: 62 62 34
Width: 290
GlyphClass: 2
Flags: W
LayerCount: 2
Fore
SplineSet
192 276 m 1,0,1
 152 297 152 297 131 316 c 0,2,3
 101 344 101 344 105 381 c 0,4,5
 108 401 108 401 123 389 c 0,6,7
 192 340 192 340 270 307 c 0,8,9
 290 299 290 299 279 277 c 0,10,11
 260 236 260 236 235 226 c 0,12,13
 113 179 113 179 76 159 c 0,14,15
 68 155 68 155 65 157 c 128,-1,16
 62 159 62 159 61 169 c 0,17,18
 60 182 60 182 71 200.5 c 128,-1,19
 82 219 82 219 99 231 c 0,20,21
 131 254 131 254 192 276 c 1,0,1
EndSplineSet
EndChar

StartChar: question
Encoding: 63 63 35
Width: 385
GlyphClass: 2
Flags: W
LayerCount: 2
Fore
SplineSet
194 528 m 0,0,1
 236 595 236 595 298.5 619.5 c 128,-1,2
 361 644 361 644 417 610 c 0,3,4
 459 582 459 582 468 530 c 128,-1,5
 477 478 477 478 448 415 c 0,6,7
 422 361 422 361 377 323 c 128,-1,8
 332 285 332 285 263 248 c 0,9,10
 174 199 174 199 148 103 c 0,11,12
 144 86 144 86 130 100 c 0,13,14
 118 112 118 112 114.5 133.5 c 128,-1,15
 111 155 111 155 123 193 c 0,16,17
 137 225 137 225 165 251.5 c 128,-1,18
 193 278 193 278 249 310 c 0,19,20
 349 367 349 367 393 461 c 0,21,22
 404 484 404 484 409.5 507 c 128,-1,23
 415 530 415 530 412 552 c 128,-1,24
 409 574 409 574 394 582 c 0,25,26
 356 602 356 602 298.5 548 c 128,-1,27
 241 494 241 494 197 405 c 0,28,29
 188 388 188 388 178 402 c 0,30,31
 165 416 165 416 167.5 453 c 128,-1,32
 170 490 170 490 194 528 c 0,0,1
130 52 m 0,33,34
 146 11 146 11 124 -12 c 0,35,36
 115 -23 115 -23 97.5 -19.5 c 128,-1,37
 80 -16 80 -16 69 2 c 0,38,39
 58 22 58 22 60 42 c 128,-1,40
 62 62 62 62 74 75 c 128,-1,41
 86 88 86 88 104 80.5 c 128,-1,42
 122 73 122 73 130 52 c 0,33,34
EndSplineSet
EndChar

StartChar: at
Encoding: 64 64 36
Width: 586
GlyphClass: 2
Flags: W
LayerCount: 2
Fore
SplineSet
326 165 m 1,0,1
 279 110 279 110 230 110 c 0,2,3
 194 110 194 110 176 139 c 128,-1,4
 158 168 158 168 166 215 c 128,-1,5
 174 262 174 262 206 309 c 0,6,7
 251 374 251 374 295.5 406 c 128,-1,8
 340 438 340 438 374 438 c 0,9,10
 396 438 396 438 409.5 423.5 c 128,-1,11
 423 409 423 409 425 389 c 1,12,13
 441 416 441 416 451 428 c 0,14,15
 462 440 462 440 469 433 c 0,16,17
 480 422 480 422 481 399.5 c 128,-1,18
 482 377 482 377 469 345 c 0,19,20
 462 329 462 329 432.5 280 c 128,-1,21
 403 231 403 231 393 208 c 0,22,23
 380 178 380 178 378.5 156.5 c 128,-1,24
 377 135 377 135 388 132 c 0,25,26
 406 128 406 128 434.5 158.5 c 128,-1,27
 463 189 463 189 491 253 c 0,28,29
 527 336 527 336 517.5 410 c 128,-1,30
 508 484 508 484 459 505 c 0,31,32
 405 528 405 528 325 490.5 c 128,-1,33
 245 453 245 453 181 363 c 0,34,35
 137 302 137 302 121.5 234.5 c 128,-1,36
 106 167 106 167 120.5 116.5 c 128,-1,37
 135 66 135 66 175 48 c 0,38,39
 218 31 218 31 267.5 43.5 c 128,-1,40
 317 56 317 56 350 87 c 0,41,42
 355 93 355 93 360 92 c 128,-1,43
 365 91 365 91 365 83 c 0,44,45
 365 44 365 44 327 21 c 0,46,47
 302 7 302 7 270 3.5 c 128,-1,48
 238 0 238 0 214.5 4 c 128,-1,49
 191 8 191 8 173 15 c 0,50,51
 62 58 62 58 60 190 c 0,52,53
 59 257 59 257 88 322.5 c 128,-1,54
 117 388 117 388 161 435.5 c 128,-1,55
 205 483 205 483 254.5 515.5 c 128,-1,56
 304 548 304 548 346 557 c 0,57,58
 434 576 434 576 483 526 c 1,59,60
 535 502 535 502 556.5 451 c 128,-1,61
 578 400 578 400 574 348 c 128,-1,62
 570 296 570 296 550 247 c 0,63,64
 522 177 522 177 478 138 c 128,-1,65
 434 99 434 99 390 102 c 0,66,67
 361 104 361 104 344.5 121.5 c 128,-1,68
 328 139 328 139 326 165 c 1,0,1
385 396 m 0,69,70
 365 397 365 397 328 362.5 c 128,-1,71
 291 328 291 328 259 277 c 0,72,73
 238 244 238 244 228 212 c 128,-1,74
 218 180 218 180 220.5 160 c 128,-1,75
 223 140 223 140 239 140 c 0,76,77
 261 139 261 139 290.5 170.5 c 128,-1,78
 320 202 320 202 352 257 c 0,79,80
 376 299 376 299 388 331.5 c 128,-1,81
 400 364 400 364 398.5 379.5 c 128,-1,82
 397 395 397 395 385 396 c 0,69,70
EndSplineSet
EndChar

StartChar: A
Encoding: 65 65 37
Width: 442
GlyphClass: 2
Flags: W
LayerCount: 2
Fore
SplineSet
313 157 m 1,0,1
 293 156 293 156 217 148 c 128,-1,2
 141 140 141 140 114 141 c 1,3,4
 68 62 68 62 38 -3 c 0,5,6
 35 -10 35 -10 29.5 -10 c 128,-1,7
 24 -10 24 -10 20 -5 c 0,8,9
 -2 25 -2 25 25 97 c 0,10,11
 36 125 36 125 52 154 c 1,12,13
 28 167 28 167 19 188 c 0,14,15
 15 198 15 198 17.5 201 c 128,-1,16
 20 204 20 204 31 203 c 0,17,18
 58 199 58 199 76 198 c 1,19,20
 142 313 142 313 233.5 435.5 c 128,-1,21
 325 558 325 558 399 619 c 0,22,23
 421 637 421 637 435 618 c 0,24,25
 450 597 450 597 458 577 c 0,26,27
 472 545 472 545 458 504 c 0,28,29
 410 359 410 359 385 213 c 1,30,31
 423 200 423 200 430 162 c 0,32,33
 433 148 433 148 419 153 c 0,34,35
 401 158 401 158 376 159 c 1,36,37
 364 66 364 66 361 -1 c 0,38,39
 361 -17 361 -17 346 -10 c 0,40,41
 310 6 310 6 309 81 c 0,42,43
 309 117 309 117 313 157 c 1,0,1
152 201 m 1,44,45
 175 203 175 203 235 210 c 128,-1,46
 295 217 295 217 321 218 c 1,47,48
 349 409 349 409 395 526 c 1,49,50
 271 387 271 387 152 201 c 1,44,45
EndSplineSet
EndChar

StartChar: B
Encoding: 66 66 38
Width: 454
GlyphClass: 2
Flags: W
LayerCount: 2
Fore
SplineSet
213 511 m 1,0,1
 161 514 161 514 145 551 c 0,2,3
 138 567 138 567 155 568 c 0,4,5
 190 571 190 571 269 598 c 128,-1,6
 348 625 348 625 382 627 c 0,7,8
 477 633 477 633 500 546 c 0,9,10
 524 456 524 456 465 379 c 0,11,12
 404 301 404 301 309 260 c 1,13,14
 338 246 338 246 357 218 c 0,15,16
 375 197 375 197 369.5 155.5 c 128,-1,17
 364 114 364 114 334 81 c 0,18,19
 302 47 302 47 253 21.5 c 128,-1,20
 204 -4 204 -4 159 -12 c 0,21,22
 105 -22 105 -22 75 -7 c 128,-1,23
 45 8 45 8 24 39 c 0,24,25
 10 59 10 59 8.5 74 c 128,-1,26
 7 89 7 89 22 141 c 0,27,28
 87 323 87 323 213 511 c 1,0,1
167 288 m 1,29,30
 307 321 307 321 395 401.5 c 128,-1,31
 483 482 483 482 463 537 c 0,32,33
 457 552 457 552 443.5 558 c 128,-1,34
 430 564 430 564 406.5 560 c 128,-1,35
 383 556 383 556 367 551.5 c 128,-1,36
 351 547 351 547 317.5 535.5 c 128,-1,37
 284 524 284 524 275 521 c 1,38,39
 278 484 278 484 245 423 c 0,40,41
 234 402 234 402 206.5 355.5 c 128,-1,42
 179 309 179 309 167 288 c 1,29,30
244 238 m 0,43,44
 230 235 230 235 202 231 c 0,45,46
 162 227 162 227 140 238 c 1,47,48
 91 144 91 144 73 83 c 0,49,50
 65 57 65 57 73 47 c 128,-1,51
 81 37 81 37 105 40 c 0,52,53
 155 46 155 46 211 75 c 128,-1,54
 267 104 267 104 298 142 c 0,55,56
 318 166 318 166 321.5 186 c 128,-1,57
 325 206 325 206 306 221 c 128,-1,58
 287 236 287 236 244 238 c 0,43,44
EndSplineSet
EndChar

StartChar: C
Encoding: 67 67 39
Width: 462
GlyphClass: 2
Flags: W
LayerCount: 2
Fore
SplineSet
388 206 m 0,0,1
 392 214 392 214 398.5 214 c 128,-1,2
 405 214 405 214 409 204 c 0,3,4
 426 159 426 159 397 110 c 128,-1,5
 368 61 368 61 328 32 c 0,6,7
 277 -4 277 -4 217 -8.5 c 128,-1,8
 157 -13 157 -13 119 11 c 0,9,10
 83 30 83 30 58.5 75 c 128,-1,11
 34 120 34 120 33 179 c 0,12,13
 32 254 32 254 60 329.5 c 128,-1,14
 88 405 88 405 132.5 461 c 128,-1,15
 177 517 177 517 226 557.5 c 128,-1,16
 275 598 275 598 319 615 c 0,17,18
 410 650 410 650 454 612 c 0,19,20
 495 577 495 577 507 539 c 0,21,22
 520 497 520 497 498 451 c 0,23,24
 487 428 487 428 458 352 c 0,25,26
 452 335 452 335 436 346 c 0,27,28
 392 375 392 375 412 442 c 0,29,30
 416 455 416 455 423.5 473.5 c 128,-1,31
 431 492 431 492 436 505.5 c 128,-1,32
 441 519 441 519 445 533.5 c 128,-1,33
 449 548 449 548 448.5 558.5 c 128,-1,34
 448 569 448 569 441 576 c 0,35,36
 427 592 427 592 380.5 572.5 c 128,-1,37
 334 553 334 553 273.5 499.5 c 128,-1,38
 213 446 213 446 171 376 c 0,39,40
 129 307 129 307 114 234.5 c 128,-1,41
 99 162 99 162 108 112.5 c 128,-1,42
 117 63 117 63 142 42 c 0,43,44
 190 3 190 3 260.5 49 c 128,-1,45
 331 95 331 95 388 206 c 0,0,1
EndSplineSet
EndChar

StartChar: D
Encoding: 68 68 40
Width: 483
GlyphClass: 2
Flags: W
LayerCount: 2
Fore
SplineSet
210 501 m 1,0,1
 161 504 161 504 145 543 c 0,2,3
 139 560 139 560 155 562 c 0,4,5
 191 567 191 567 249.5 591.5 c 128,-1,6
 308 616 308 616 339 621 c 0,7,8
 432 635 432 635 490 533 c 0,9,10
 515 483 515 483 514.5 424 c 128,-1,11
 514 365 514 365 482.5 299 c 128,-1,12
 451 233 451 233 403 174.5 c 128,-1,13
 355 116 355 116 284.5 67 c 128,-1,14
 214 18 214 18 136 -8 c 0,15,16
 97 -21 97 -21 72 -1 c 0,17,18
 43 23 43 23 30 42 c 0,19,20
 15 63 15 63 13.5 80.5 c 128,-1,21
 12 98 12 98 27 148 c 0,22,23
 50 217 50 217 103.5 319 c 128,-1,24
 157 421 157 421 210 501 c 1,0,1
263 511 m 1,25,26
 272 467 272 467 237 406 c 0,27,28
 235 403 235 403 197.5 337 c 128,-1,29
 160 271 160 271 146.5 245.5 c 128,-1,30
 133 220 133 220 110 172 c 128,-1,31
 87 124 87 124 77 92 c 128,-1,32
 67 60 67 60 73 49.5 c 128,-1,33
 79 39 79 39 101 47 c 0,34,35
 167 72 167 72 225 112.5 c 128,-1,36
 283 153 283 153 323.5 198 c 128,-1,37
 364 243 364 243 395.5 293 c 128,-1,38
 427 343 427 343 439.5 387 c 128,-1,39
 452 431 452 431 455 469.5 c 128,-1,40
 458 508 458 508 441 531 c 0,41,42
 429 551 429 551 407 554 c 128,-1,43
 385 557 385 557 366.5 551 c 128,-1,44
 348 545 348 545 313.5 530.5 c 128,-1,45
 279 516 279 516 263 511 c 1,25,26
EndSplineSet
EndChar

StartChar: E
Encoding: 69 69 41
Width: 368
GlyphClass: 2
Flags: W
LayerCount: 2
Fore
SplineSet
218 525 m 1,0,1
 187 537 187 537 176 576 c 0,2,3
 174 583 174 583 177 586 c 128,-1,4
 180 589 180 589 187 588 c 0,5,6
 234 585 234 585 325.5 599 c 128,-1,7
 417 613 417 613 436 613 c 0,8,9
 494 614 494 614 512 564 c 0,10,11
 515 558 515 558 512 554 c 128,-1,12
 509 550 509 550 501 551 c 0,13,14
 476 551 476 551 446.5 548 c 128,-1,15
 417 545 417 545 396.5 541.5 c 128,-1,16
 376 538 376 538 344.5 532 c 128,-1,17
 313 526 313 526 298 524 c 1,18,19
 252 455 252 455 160 288 c 1,20,21
 191 294 191 294 231 296 c 0,22,23
 298 299 298 299 313 251 c 0,24,25
 318 236 318 236 303 236 c 0,26,27
 230 236 230 236 118 208 c 1,28,29
 71 118 71 118 41 50 c 1,30,31
 130 78 130 78 196 81 c 0,32,33
 264 84 264 84 281 37 c 0,34,35
 286 22 286 22 271 22 c 0,36,37
 204 23 204 23 50 -18 c 0,38,39
 22 -25 22 -25 8 -8 c 0,40,41
 5 -5 5 -5 -13 29 c 0,42,43
 -25 51 -25 51 -12 86 c 0,44,45
 21 175 21 175 87 299.5 c 128,-1,46
 153 424 153 424 218 525 c 1,0,1
EndSplineSet
EndChar

StartChar: F
Encoding: 70 70 42
Width: 363
GlyphClass: 2
Flags: W
LayerCount: 2
Fore
SplineSet
214 526 m 1,0,1
 184 540 184 540 175 577 c 0,2,3
 172 589 172 589 186 589 c 0,4,5
 233 587 233 587 321.5 600.5 c 128,-1,6
 410 614 410 614 431 614 c 0,7,8
 492 614 492 614 513 563 c 0,9,10
 519 548 519 548 501 548 c 0,11,12
 467 548 467 548 432 543.5 c 128,-1,13
 397 539 397 539 354.5 531 c 128,-1,14
 312 523 312 523 295 520 c 1,15,16
 234 421 234 421 164 292 c 1,17,18
 195 298 195 298 231 300 c 0,19,20
 299 304 299 304 315 252 c 0,21,22
 320 237 320 237 304 237 c 0,23,24
 239 238 239 238 120 209 c 1,25,26
 53 79 53 79 16 -7 c 0,27,28
 10 -21 10 -21 -1 -11 c 0,29,30
 -36 19 -36 19 -9 99 c 0,31,32
 13 163 13 163 79 288.5 c 128,-1,33
 145 414 145 414 214 526 c 1,0,1
EndSplineSet
EndChar

StartChar: G
Encoding: 71 71 43
Width: 500
GlyphClass: 2
Flags: W
LayerCount: 2
Fore
SplineSet
412 192 m 1,0,1
 429 129 429 129 372.5 68.5 c 128,-1,2
 316 8 316 8 266 -6 c 0,3,4
 164 -35 164 -35 99 14 c 0,5,6
 33 63 33 63 32 168 c 0,7,8
 31 244 31 244 63.5 321.5 c 128,-1,9
 96 399 96 399 145.5 456.5 c 128,-1,10
 195 514 195 514 248 555 c 128,-1,11
 301 596 301 596 345 610 c 0,12,13
 433 638 433 638 480 604 c 0,14,15
 519 576 519 576 532 533 c 0,16,17
 545 492 545 492 525 446 c 0,18,19
 507 406 507 406 486 350 c 0,20,21
 479 332 479 332 465 345 c 0,22,23
 422 375 422 375 439 440 c 0,24,25
 443 455 443 455 452 478 c 128,-1,26
 461 501 461 501 466 514.5 c 128,-1,27
 471 528 471 528 473.5 546 c 128,-1,28
 476 564 476 564 467 568 c 0,29,30
 451 585 451 585 400.5 565 c 128,-1,31
 350 545 350 545 286 491.5 c 128,-1,32
 222 438 222 438 177 370 c 0,33,34
 133 303 133 303 114.5 230.5 c 128,-1,35
 96 158 96 158 101 108 c 128,-1,36
 106 58 106 58 127 39 c 0,37,38
 168 1 168 1 241 47 c 128,-1,39
 314 93 314 93 360 184 c 1,40,41
 296 172 296 172 272 170 c 0,42,43
 202 163 202 163 176 218 c 0,44,45
 168 234 168 234 186 234 c 0,46,47
 227 235 227 235 300 248 c 128,-1,48
 373 261 373 261 401 261 c 0,49,50
 469 262 469 262 492 210 c 0,51,52
 496 202 496 202 493.5 197.5 c 128,-1,53
 491 193 491 193 482 194 c 0,54,55
 454 197 454 197 412 192 c 1,0,1
EndSplineSet
EndChar

StartChar: H
Encoding: 72 72 44
Width: 488
GlyphClass: 2
Flags: W
LayerCount: 2
Fore
SplineSet
558 465 m 0,0,1
 547 444 547 444 508.5 377 c 128,-1,2
 470 310 470 310 446 266 c 1,3,4
 478 252 478 252 485 222 c 0,5,6
 487 216 487 216 484 213 c 128,-1,7
 481 210 481 210 474 211 c 0,8,9
 450 216 450 216 418 214 c 1,10,11
 363 109 363 109 316 2 c 0,12,13
 309 -15 309 -15 299 0 c 0,14,15
 272 38 272 38 296 110 c 0,16,17
 308 145 308 145 338 206 c 1,18,19
 160 184 160 184 141 184 c 1,20,21
 92 86 92 86 50 -11 c 0,22,23
 42 -30 42 -30 32 -15 c 0,24,25
 6 21 6 21 27 95 c 0,26,27
 31 110 31 110 70 197 c 1,28,29
 47 208 47 208 36 229 c 0,30,31
 31 238 31 238 34 241.5 c 128,-1,32
 37 245 37 245 49 244 c 0,33,34
 52 244 52 244 67.5 242.5 c 128,-1,35
 83 241 83 241 91 241 c 1,36,37
 140 344 140 344 199.5 453.5 c 128,-1,38
 259 563 259 563 289 605 c 0,39,40
 303 623 303 623 313 604 c 0,41,42
 339 555 339 555 288 456 c 0,43,44
 273 428 273 428 234.5 357.5 c 128,-1,45
 196 287 196 287 174 246 c 1,46,47
 198 249 198 249 265.5 261.5 c 128,-1,48
 333 274 333 274 371 276 c 1,49,50
 500 533 500 533 564 617 c 0,51,52
 579 637 579 637 589 616 c 0,53,54
 614 565 614 565 558 465 c 0,0,1
EndSplineSet
EndChar

StartChar: I
Encoding: 73 73 45
Width: 182
GlyphClass: 2
Flags: W
LayerCount: 2
Fore
SplineSet
269 616 m 0,0,1
 283 636 283 636 293 615 c 0,2,3
 319 561 319 561 263 462 c 0,4,5
 90 158 90 158 18 -4 c 0,6,7
 12 -18 12 -18 2 -6 c 0,8,9
 -30 28 -30 28 -2 105 c 0,10,11
 33 203 33 203 119 363.5 c 128,-1,12
 205 524 205 524 269 616 c 0,0,1
EndSplineSet
EndChar

StartChar: J
Encoding: 74 74 46
Width: 437
GlyphClass: 2
Flags: W
LayerCount: 2
Fore
SplineSet
66 229 m 0,0,1
 77 231 77 231 81 226 c 128,-1,2
 85 221 85 221 81 209 c 0,3,4
 58 143 58 143 58.5 98 c 128,-1,5
 59 53 59 53 71.5 36 c 128,-1,6
 84 19 84 19 102 15 c 0,7,8
 124 10 124 10 145 17 c 128,-1,9
 166 24 166 24 187.5 46 c 128,-1,10
 209 68 209 68 225 88.5 c 128,-1,11
 241 109 241 109 263 149.5 c 128,-1,12
 285 190 285 190 297 214 c 128,-1,13
 309 238 309 238 332 285 c 0,14,15
 461 550 461 550 504 616 c 0,16,17
 516 635 516 635 528 615 c 0,18,19
 555 570 555 570 521 490 c 0,20,21
 493 425 493 425 433.5 305.5 c 128,-1,22
 374 186 374 186 336 122 c 0,23,24
 238 -41 238 -41 95 -16 c 0,25,26
 38 -6 38 -6 10.5 41 c 128,-1,27
 -17 88 -17 88 0 152 c 0,28,29
 8 183 8 183 26.5 203.5 c 128,-1,30
 45 224 45 224 66 229 c 0,0,1
EndSplineSet
EndChar

StartChar: K
Encoding: 75 75 47
Width: 397
GlyphClass: 2
Flags: W
LayerCount: 2
Fore
SplineSet
125 210 m 1,0,1
 74 113 74 113 22 -9 c 0,2,3
 15 -24 15 -24 6 -12 c 0,4,5
 -21 25 -21 25 1 98 c 0,6,7
 20 162 20 162 116.5 352.5 c 128,-1,8
 213 543 213 543 259 607 c 0,9,10
 272 624 272 624 283 605 c 0,11,12
 312 554 312 554 260 459 c 0,13,14
 189 330 189 330 165 286 c 1,15,16
 376 444 376 444 531 612 c 0,17,18
 543 626 543 626 550 610 c 0,19,20
 562 564 562 564 519 505 c 0,21,22
 484 458 484 458 393 377.5 c 128,-1,23
 302 297 302 297 203 227 c 1,24,25
 258 139 258 139 274 102 c 0,26,27
 304 30 304 30 274 -9 c 0,28,29
 264 -21 264 -21 256 -7 c 0,30,31
 201 99 201 99 125 210 c 1,0,1
EndSplineSet
EndChar

StartChar: L
Encoding: 76 76 48
Width: 353
GlyphClass: 2
Flags: W
LayerCount: 2
Fore
SplineSet
55 56 m 1,0,1
 142 79 142 79 207 84 c 0,2,3
 276 90 276 90 295 39 c 0,4,5
 301 24 301 24 285 24 c 0,6,7
 223 25 223 25 67 -15 c 0,8,9
 49 -20 49 -20 39.5 -18 c 128,-1,10
 30 -16 30 -16 22 -5 c 0,11,12
 2 24 2 24 -4 38 c 0,13,14
 -14 62 -14 62 -1 96 c 0,15,16
 34 186 34 186 129.5 364 c 128,-1,17
 225 542 225 542 273 608 c 0,18,19
 287 627 287 627 297 606 c 0,20,21
 322 555 322 555 272 465 c 0,22,23
 269 460 269 460 216 365 c 128,-1,24
 163 270 163 270 125.5 199 c 128,-1,25
 88 128 88 128 55 56 c 1,0,1
EndSplineSet
EndChar

StartChar: M
Encoding: 77 77 49
Width: 573
GlyphClass: 2
Flags: W
LayerCount: 2
Fore
SplineSet
269 435 m 1,0,1
 82 153 82 153 9 -12 c 0,2,3
 3 -27 3 -27 -8 -14 c 0,4,5
 -39 19 -39 19 -10 95 c 0,6,7
 17 166 17 166 116 329.5 c 128,-1,8
 215 493 215 493 297 604 c 0,9,10
 311 625 311 625 329 610 c 0,11,12
 360 583 360 583 365.5 552.5 c 128,-1,13
 371 522 371 522 353 462 c 0,14,15
 298 297 298 297 247 109 c 1,16,17
 304 203 304 203 432.5 365 c 128,-1,18
 561 527 561 527 612 607 c 0,19,20
 625 626 625 626 641 610 c 0,21,22
 694 556 694 556 644 464 c 0,23,24
 490 178 490 178 424 -12 c 0,25,26
 419 -25 419 -25 408 -15 c 0,27,28
 376 11 376 11 397 94 c 0,29,30
 420 186 420 186 541 418 c 1,31,32
 330 163 330 163 239 -7 c 0,33,34
 232 -22 232 -22 221 -14 c 0,35,36
 170 23 170 23 183 107 c 0,37,38
 204 237 204 237 269 435 c 1,0,1
EndSplineSet
EndChar

StartChar: N
Encoding: 78 78 50
Width: 459
GlyphClass: 2
Flags: W
LayerCount: 2
Fore
SplineSet
239 429 m 1,0,1
 70 139 70 139 22 -6 c 0,2,3
 17 -23 17 -23 5 -10 c 0,4,5
 -28 27 -28 27 0 102 c 0,6,7
 64 279 64 279 259 607 c 0,8,9
 270 626 270 626 285 616 c 0,10,11
 313 596 313 596 320 570 c 128,-1,12
 327 544 327 544 319 492 c 0,13,14
 298 365 298 365 286 132 c 1,15,16
 335 243 335 243 410 381.5 c 128,-1,17
 485 520 485 520 544 611 c 0,18,19
 556 629 556 629 567 609 c 0,20,21
 592 558 592 558 536 464 c 0,22,23
 489 386 489 386 411 237 c 128,-1,24
 333 88 333 88 291 -7 c 0,25,26
 285 -21 285 -21 271 -13 c 0,27,28
 248 -1 248 -1 237 21.5 c 128,-1,29
 226 44 226 44 222 91 c 0,30,31
 212 215 212 215 239 429 c 1,0,1
EndSplineSet
EndChar

StartChar: O
Encoding: 79 79 51
Width: 537
GlyphClass: 2
Flags: W
LayerCount: 2
Fore
SplineSet
476 597 m 1,0,1
 535 571 535 571 552.5 503 c 128,-1,2
 570 435 570 435 553 357.5 c 128,-1,3
 536 280 536 280 497 208 c 0,4,5
 430 85 430 85 340 21 c 128,-1,6
 250 -43 250 -43 154 -8 c 0,7,8
 40 34 40 34 40 179 c 0,9,10
 40 255 40 255 70.5 331 c 128,-1,11
 101 407 101 407 147.5 463.5 c 128,-1,12
 194 520 194 520 245 560.5 c 128,-1,13
 296 601 296 601 340 617 c 0,14,15
 428 647 428 647 476 597 c 1,0,1
424 236 m 0,16,17
 467 315 467 315 484.5 391.5 c 128,-1,18
 502 468 502 468 493 515.5 c 128,-1,19
 484 563 484 563 456 573 c 0,20,21
 415 588 415 588 333.5 533.5 c 128,-1,22
 252 479 252 479 186 377 c 0,23,24
 140 305 140 305 121 228.5 c 128,-1,25
 102 152 102 152 112 98 c 128,-1,26
 122 44 122 44 156 30 c 0,27,28
 207 8 207 8 285 66 c 128,-1,29
 363 124 363 124 424 236 c 0,16,17
EndSplineSet
EndChar

StartChar: P
Encoding: 80 80 52
Width: 425
GlyphClass: 2
Flags: W
LayerCount: 2
Fore
SplineSet
206 509 m 1,0,1
 160 514 160 514 143 551 c 0,2,3
 135 568 135 568 153 569 c 0,4,5
 194 573 194 573 269 597 c 128,-1,6
 344 621 344 621 379 623 c 0,7,8
 468 626 468 626 498 540 c 0,9,10
 526 460 526 460 468 369 c 0,11,12
 429 308 429 308 351.5 258.5 c 128,-1,13
 274 209 274 209 179 191 c 0,14,15
 144 185 144 185 117 201 c 1,16,17
 76 121 76 121 24 -3 c 0,18,19
 19 -17 19 -17 8 -6 c 0,20,21
 -20 24 -20 24 -1 93 c 0,22,23
 18 161 18 161 79 283.5 c 128,-1,24
 140 406 140 406 206 509 c 1,0,1
146 257 m 1,25,26
 300 286 300 286 389 378 c 128,-1,27
 478 470 478 470 455 531 c 0,28,29
 449 547 449 547 434.5 552.5 c 128,-1,30
 420 558 420 558 398 554.5 c 128,-1,31
 376 551 376 551 357 545 c 128,-1,32
 338 539 338 539 310 529 c 128,-1,33
 282 519 282 519 268 515 c 1,34,35
 268 470 268 470 230 405 c 0,36,37
 227 400 227 400 195.5 345 c 128,-1,38
 164 290 164 290 146 257 c 1,25,26
EndSplineSet
EndChar

StartChar: Q
Encoding: 81 81 53
Width: 543
GlyphClass: 2
Flags: W
LayerCount: 2
Fore
SplineSet
226 -16 m 1,0,1
 235 -20 235 -20 279 -43.5 c 128,-1,2
 323 -67 323 -67 339 -73.5 c 128,-1,3
 355 -80 355 -80 386 -87 c 128,-1,4
 417 -94 417 -94 441 -89 c 0,5,6
 453 -87 453 -87 455 -91.5 c 128,-1,7
 457 -96 457 -96 451 -101 c 0,8,9
 428 -131 428 -131 382.5 -137.5 c 128,-1,10
 337 -144 337 -144 302 -129 c 0,11,12
 274 -120 274 -120 242 -102 c 128,-1,13
 210 -84 210 -84 187.5 -70 c 128,-1,14
 165 -56 165 -56 132.5 -41.5 c 128,-1,15
 100 -27 100 -27 72 -25 c 128,-1,16
 44 -23 44 -23 1 -30 c 0,17,18
 -6 -31 -6 -31 -9 -27.5 c 128,-1,19
 -12 -24 -12 -24 -8 -19 c 0,20,21
 23 22 23 22 100 19 c 2,22,-1
 107 19 l 1,23,24
 37 72 37 72 37 181 c 0,25,26
 37 257 37 257 68 332.5 c 128,-1,27
 99 408 99 408 144.5 464 c 128,-1,28
 190 520 190 520 240 559.5 c 128,-1,29
 290 599 290 599 333 614 c 0,30,31
 422 645 422 645 471 594 c 1,32,33
 528 568 528 568 545 500.5 c 128,-1,34
 562 433 562 433 545 356.5 c 128,-1,35
 528 280 528 280 490 207 c 0,36,37
 439 111 439 111 370 49.5 c 128,-1,38
 301 -12 301 -12 226 -16 c 1,0,1
417 235 m 0,39,40
 460 314 460 314 477.5 390 c 128,-1,41
 495 466 495 466 486.5 513.5 c 128,-1,42
 478 561 478 561 450 572 c 0,43,44
 410 588 410 588 329 534 c 128,-1,45
 248 480 248 480 182 377 c 0,46,47
 136 306 136 306 117.5 230 c 128,-1,48
 99 154 99 154 109 100.5 c 128,-1,49
 119 47 119 47 152 32 c 0,50,51
 203 9 203 9 280 66 c 128,-1,52
 357 123 357 123 417 235 c 0,39,40
EndSplineSet
EndChar

StartChar: R
Encoding: 82 82 54
Width: 458
GlyphClass: 2
Flags: W
LayerCount: 2
Fore
SplineSet
129 195 m 1,0,1
 85 108 85 108 40 -3 c 0,2,3
 34 -17 34 -17 24 -7 c 0,4,5
 -4 23 -4 23 15 92 c 0,6,7
 34 160 34 160 95 283.5 c 128,-1,8
 156 407 156 407 222 511 c 1,9,10
 178 515 178 515 158 551 c 0,11,12
 151 565 151 565 169 568 c 0,13,14
 210 573 210 573 285.5 596.5 c 128,-1,15
 361 620 361 620 395 622 c 0,16,17
 438 624 438 624 467.5 606.5 c 128,-1,18
 497 589 497 589 514 541 c 0,19,20
 545 452 545 452 483 369 c 0,21,22
 443 315 443 315 368.5 271.5 c 128,-1,23
 294 228 294 228 210 208 c 1,24,25
 279 122 279 122 305 71 c 0,26,27
 316 50 316 50 317.5 28 c 128,-1,28
 319 6 319 6 310 -10 c 0,29,30
 302 -23 302 -23 294 -12 c 0,31,32
 199 118 199 118 129 195 c 1,0,1
283 517 m 1,33,34
 283 474 283 474 245 404 c 0,35,36
 235 386 235 386 208 339.5 c 128,-1,37
 181 293 181 293 166 265 c 1,38,39
 320 299 320 299 407.5 385.5 c 128,-1,40
 495 472 495 472 471 531 c 0,41,42
 466 544 466 544 454 550.5 c 128,-1,43
 442 557 442 557 427.5 556.5 c 128,-1,44
 413 556 413 556 393 551.5 c 128,-1,45
 373 547 373 547 356.5 541 c 128,-1,46
 340 535 340 535 318 528 c 128,-1,47
 296 521 296 521 283 517 c 1,33,34
EndSplineSet
EndChar

StartChar: S
Encoding: 83 83 55
Width: 444
GlyphClass: 2
Flags: W
LayerCount: 2
Fore
SplineSet
-33 134 m 0,0,1
 -8 141 -8 141 20 135.5 c 128,-1,2
 48 130 48 130 68 113 c 0,3,4
 173 29 173 29 241 29 c 0,5,6
 282 29 282 29 303 47 c 0,7,8
 328 75 328 75 301 99 c 0,9,10
 287 111 287 111 246.5 136 c 128,-1,11
 206 161 206 161 174.5 182.5 c 128,-1,12
 143 204 143 204 116.5 238.5 c 128,-1,13
 90 273 90 273 90 309 c 0,14,15
 90 373 90 373 134 436.5 c 128,-1,16
 178 500 178 500 231 539.5 c 128,-1,17
 284 579 284 579 334 601 c 0,18,19
 421 637 421 637 463 599 c 0,20,21
 501 564 501 564 513 515 c 0,22,23
 524 471 524 471 484 415 c 0,24,25
 456 378 456 378 415 304 c 0,26,27
 406 288 406 288 393 301 c 0,28,29
 356 338 356 338 383 398 c 0,30,31
 390 414 390 414 415 451.5 c 128,-1,32
 440 489 440 489 453 516 c 128,-1,33
 466 543 466 543 455 554 c 0,34,35
 438 572 438 572 369.5 536.5 c 128,-1,36
 301 501 301 501 236.5 435 c 128,-1,37
 172 369 172 369 170 311 c 0,38,39
 169 282 169 282 197.5 254.5 c 128,-1,40
 226 227 226 227 284 193.5 c 128,-1,41
 342 160 342 160 351 153 c 0,42,43
 379 133 379 133 376 100 c 128,-1,44
 373 67 373 67 340 29 c 0,45,46
 317 2 317 2 275.5 -11 c 128,-1,47
 234 -24 234 -24 183.5 -20 c 128,-1,48
 133 -16 133 -16 74 17.5 c 128,-1,49
 15 51 15 51 -35 111 c 0,50,51
 -50 128 -50 128 -33 134 c 0,0,1
EndSplineSet
EndChar

StartChar: T
Encoding: 84 84 56
Width: 403
GlyphClass: 2
Flags: W
LayerCount: 2
Fore
SplineSet
276 525 m 1,0,1
 245 520 245 520 215 518 c 0,2,3
 170 517 170 517 139.5 532 c 128,-1,4
 109 547 109 547 101 575 c 0,5,6
 99 582 99 582 102 585.5 c 128,-1,7
 105 589 105 589 112 588 c 0,8,9
 162 584 162 584 282 600.5 c 128,-1,10
 402 617 402 617 424 616 c 0,11,12
 500 614 500 614 519 565 c 0,13,14
 522 558 522 558 519 553.5 c 128,-1,15
 516 549 516 549 507 550 c 0,16,17
 455 555 455 555 337 535 c 1,18,19
 339 492 339 492 304 429 c 0,20,21
 295 413 295 413 257 345 c 128,-1,22
 219 277 219 277 197.5 237.5 c 128,-1,23
 176 198 176 198 142 129.5 c 128,-1,24
 108 61 108 61 81 -3 c 0,25,26
 76 -17 76 -17 65 -6 c 0,27,28
 35 22 35 22 52 85 c 0,29,30
 70 148 70 148 139 285 c 128,-1,31
 208 422 208 422 276 525 c 1,0,1
EndSplineSet
EndChar

StartChar: U
Encoding: 85 85 57
Width: 452
GlyphClass: 2
Flags: W
LayerCount: 2
Fore
SplineSet
76 -12 m 0,0,1
 -26 30 -26 30 8 168 c 0,2,3
 43 308 43 308 240 607 c 0,4,5
 252 625 252 625 264 606 c 0,6,7
 293 560 293 560 245 467 c 0,8,9
 232 441 232 441 187.5 365 c 128,-1,10
 143 289 143 289 112 226.5 c 128,-1,11
 81 164 81 164 70 117 c 0,12,13
 50 32 50 32 90 17 c 0,14,15
 134 0 134 0 190 55 c 128,-1,16
 246 110 246 110 301 216 c 0,17,18
 426 460 426 460 520 608 c 0,19,20
 531 627 531 627 544 607 c 0,21,22
 568 565 568 565 531 483 c 0,23,24
 500 416 500 416 425.5 281.5 c 128,-1,25
 351 147 351 147 305 83 c 0,26,27
 254 12 254 12 192 -11 c 128,-1,28
 130 -34 130 -34 76 -12 c 0,0,1
EndSplineSet
EndChar

StartChar: V
Encoding: 86 86 58
Width: 403
GlyphClass: 2
Flags: W
LayerCount: 2
Fore
SplineSet
100 78 m 1,0,1
 169 194 169 194 297.5 365 c 128,-1,2
 426 536 426 536 496 609 c 0,3,4
 501 614 501 614 505.5 615.5 c 128,-1,5
 510 617 510 617 514 614 c 128,-1,6
 518 611 518 611 519 604 c 0,7,8
 530 549 530 549 464 462 c 0,9,10
 461 458 461 458 378.5 352 c 128,-1,11
 296 246 296 246 232.5 159 c 128,-1,12
 169 72 169 72 117 -10 c 0,13,14
 106 -27 106 -27 89 -15 c 0,15,16
 33 27 33 27 44 119 c 0,17,18
 57 235 57 235 88.5 383 c 128,-1,19
 120 531 120 531 147 603 c 0,20,21
 156 625 156 625 169 609 c 0,22,23
 202 571 202 571 179 468 c 0,24,25
 119 192 119 192 100 78 c 1,0,1
EndSplineSet
EndChar

StartChar: W
Encoding: 87 87 59
Width: 630
GlyphClass: 2
Flags: W
LayerCount: 2
Fore
SplineSet
395 406 m 1,0,1
 228 188 228 188 104 -10 c 0,2,3
 91 -30 91 -30 74 -15 c 0,4,5
 48 8 48 8 41.5 39.5 c 128,-1,6
 35 71 35 71 47 123 c 0,7,8
 74 236 74 236 125 382 c 128,-1,9
 176 528 176 528 213 599 c 0,10,11
 226 623 226 623 238 603 c 0,12,13
 264 558 264 558 228 461 c 0,14,15
 140 220 140 220 103 99 c 1,16,17
 170 208 170 208 270.5 347.5 c 128,-1,18
 371 487 371 487 453 586 c 0,19,20
 467 602 467 602 478 585 c 0,21,22
 494 562 494 562 495 538 c 128,-1,23
 496 514 496 514 478 455 c 0,24,25
 402 233 402 233 366 94 c 1,26,27
 439 214 439 214 559.5 375.5 c 128,-1,28
 680 537 680 537 749 610 c 0,29,30
 758 619 758 619 764.5 618 c 128,-1,31
 771 617 771 617 773 606 c 0,32,33
 783 550 783 550 715 461 c 0,34,35
 704 446 704 446 650 376.5 c 128,-1,36
 596 307 596 307 560 259 c 128,-1,37
 524 211 524 211 469.5 135.5 c 128,-1,38
 415 60 415 60 373 -5 c 0,39,40
 360 -25 360 -25 343 -10 c 0,41,42
 316 14 316 14 309 44 c 128,-1,43
 302 74 302 74 312 128 c 0,44,45
 335 236 335 236 395 406 c 1,0,1
EndSplineSet
EndChar

StartChar: X
Encoding: 88 88 60
Width: 399
GlyphClass: 2
Flags: W
LayerCount: 2
Fore
SplineSet
280 387 m 1,0,1
 433 544 433 544 508 613 c 0,2,3
 526 629 526 629 531 606 c 0,4,5
 544 544 544 544 465 468 c 0,6,7
 350 358 350 358 292 300 c 1,8,9
 324 74 324 74 365 3 c 0,10,11
 370 -5 370 -5 367 -10.5 c 128,-1,12
 364 -16 364 -16 356 -15 c 0,13,14
 283 -9 283 -9 253 113 c 0,15,16
 240 170 240 170 229 235 c 1,17,18
 89 92 89 92 16 -10 c 0,19,20
 6 -24 6 -24 0 -8 c 0,21,22
 -18 35 -18 35 22 97 c 0,23,24
 58 154 58 154 215 320 c 1,25,26
 186 519 186 519 165 602 c 0,27,28
 163 610 163 610 167 613.5 c 128,-1,29
 171 617 171 617 178 616 c 0,30,31
 232 607 232 607 255 527 c 0,32,33
 264 495 264 495 280 387 c 1,0,1
EndSplineSet
EndChar

StartChar: Y
Encoding: 89 89 61
Width: 379
GlyphClass: 2
Flags: W
LayerCount: 2
Fore
SplineSet
174 197 m 1,0,1
 114 90 114 90 79 -10 c 0,2,3
 73 -25 73 -25 60 -13 c 0,4,5
 29 14 29 14 50 87 c 0,6,7
 66 141 66 141 112 232 c 1,8,9
 116 477 116 477 141 602 c 0,10,11
 145 624 145 624 162 613 c 0,12,13
 202 588 202 588 197 497 c 0,14,15
 196 471 196 471 190 406 c 128,-1,16
 184 341 184 341 182 301 c 1,17,18
 334 469 334 469 495 612 c 0,19,20
 511 625 511 625 516 607 c 0,21,22
 531 551 531 551 455 476 c 0,23,24
 443 464 443 464 385 409 c 128,-1,25
 327 354 327 354 278 305.5 c 128,-1,26
 229 257 229 257 174 197 c 1,0,1
EndSplineSet
EndChar

StartChar: Z
Encoding: 90 90 62
Width: 441
GlyphClass: 2
Flags: W
LayerCount: 2
Fore
SplineSet
54 50 m 1,0,1
 164 79 164 79 231 84 c 0,2,3
 299 90 299 90 319 41 c 0,4,5
 326 26 326 26 309 26 c 0,6,7
 224 26 224 26 73 -15 c 0,8,9
 54 -21 54 -21 42.5 -20 c 128,-1,10
 31 -19 31 -19 23 -6 c 0,11,12
 2 27 2 27 -1 35 c 0,13,14
 -8 49 -8 49 -7.5 60.5 c 128,-1,15
 -7 72 -7 72 4 89 c 0,16,17
 66 181 66 181 218 327.5 c 128,-1,18
 370 474 370 474 481 550 c 1,19,20
 462 547 462 547 404.5 535.5 c 128,-1,21
 347 524 347 524 324 521 c 0,22,23
 238 512 238 512 218 572 c 0,24,25
 213 587 213 587 229 587 c 0,26,27
 272 586 272 586 359.5 599.5 c 128,-1,28
 447 613 447 613 461 614 c 0,29,30
 493 617 493 617 508 597 c 0,31,32
 527 573 527 573 541 532 c 0,33,34
 546 517 546 517 541.5 508 c 128,-1,35
 537 499 537 499 518 486 c 0,36,37
 410 409 410 409 278.5 284.5 c 128,-1,38
 147 160 147 160 54 50 c 1,0,1
EndSplineSet
EndChar

StartChar: bracketleft
Encoding: 91 91 63
Width: 316
GlyphClass: 2
Flags: W
LayerCount: 2
Fore
SplineSet
364 616 m 1,0,1
 281 495 281 495 186.5 316 c 128,-1,2
 92 137 92 137 33 -9 c 1,3,4
 53 -4 53 -4 68 -1 c 0,5,6
 116 9 116 9 139 -33 c 0,7,8
 148 -50 148 -50 130 -51 c 0,9,10
 88 -55 88 -55 39 -74 c 0,11,12
 19 -81 19 -81 4 -65 c 0,13,14
 -10 -50 -10 -50 -20 -33 c 0,15,16
 -32 -13 -32 -13 -21 19 c 0,17,18
 22 142 22 142 118.5 335 c 128,-1,19
 215 528 215 528 306 649 c 0,20,21
 322 670 322 670 344 678 c 0,22,23
 372 687 372 687 414 689 c 0,24,25
 442 690 442 690 455 679 c 0,26,27
 467 668 467 668 479 652 c 0,28,29
 483 647 483 647 480 641.5 c 128,-1,30
 477 636 477 636 468 635 c 0,31,32
 413 631 413 631 364 616 c 1,0,1
EndSplineSet
EndChar

StartChar: backslash
Encoding: 92 92 64
Width: 355
GlyphClass: 2
Flags: W
LayerCount: 2
Fore
SplineSet
157 633 m 0,0,1
 156 644 156 644 162.5 647.5 c 128,-1,2
 169 651 169 651 177 646 c 0,3,4
 226 621 226 621 242 508 c 0,5,6
 294 136 294 136 334 -26 c 0,7,8
 336 -34 336 -34 332.5 -37 c 128,-1,9
 329 -40 329 -40 322 -39 c 0,10,11
 281 -32 281 -32 257 39 c 0,12,13
 233 112 233 112 200 310.5 c 128,-1,14
 167 509 167 509 157 633 c 0,0,1
EndSplineSet
EndChar

StartChar: bracketright
Encoding: 93 93 65
Width: 319
GlyphClass: 2
Flags: W
LayerCount: 2
Fore
SplineSet
390 619 m 1,0,1
 387 619 387 619 368 615 c 128,-1,2
 349 611 349 611 340 610 c 0,3,4
 313 607 313 607 285 646 c 0,5,6
 272 664 272 664 295 668 c 0,7,8
 308 670 308 670 333.5 675 c 128,-1,9
 359 680 359 680 378.5 682.5 c 128,-1,10
 398 685 398 685 413 685 c 0,11,12
 432 685 432 685 442 671 c 0,13,14
 445 667 445 667 448 661 c 128,-1,15
 451 655 451 655 454.5 647 c 128,-1,16
 458 639 458 639 460 635 c 0,17,18
 469 616 469 616 459 601 c 0,19,20
 269 312 269 312 110 -44 c 0,21,22
 100 -68 100 -68 78 -71 c 0,23,24
 67 -73 67 -73 48 -76.5 c 128,-1,25
 29 -80 29 -80 20 -81 c 0,26,27
 -10 -86 -10 -86 -27 -75 c 0,28,29
 -44 -63 -44 -63 -56 -51 c 0,30,31
 -62 -46 -62 -46 -60.5 -39.5 c 128,-1,32
 -59 -33 -59 -33 -50 -30 c 0,33,34
 -9 -17 -9 -17 58 -8 c 1,35,36
 128 151 128 151 221.5 329.5 c 128,-1,37
 315 508 315 508 390 619 c 1,0,1
EndSplineSet
EndChar

StartChar: asciicircum
Encoding: 94 94 66
Width: 267
GlyphClass: 2
Flags: W
LayerCount: 2
Fore
SplineSet
191 500 m 1,0,1
 184 491 184 491 162 464 c 128,-1,2
 140 437 140 437 126 419 c 128,-1,3
 112 401 112 401 102 384 c 0,4,5
 94 370 94 370 84 380 c 0,6,7
 74 389 74 389 71.5 407 c 128,-1,8
 69 425 69 425 84 457 c 1,9,10
 131 532 131 532 197 607 c 0,11,12
 206 618 206 618 219 609 c 0,13,14
 240 594 240 594 244 560 c 0,15,16
 255 467 255 467 273 399 c 0,17,18
 275 390 275 390 273.5 387.5 c 128,-1,19
 272 385 272 385 264 384 c 0,20,21
 248 383 248 383 231.5 392.5 c 128,-1,22
 215 402 215 402 208 428 c 0,23,24
 196 470 196 470 191 500 c 1,0,1
EndSplineSet
EndChar

StartChar: underscore
Encoding: 95 95 67
Width: 366
GlyphClass: 2
Flags: W
LayerCount: 2
Fore
SplineSet
433 -72 m 2,0,1
 450 -72 450 -72 445 -86 c 0,2,3
 438 -102 438 -102 417 -113.5 c 128,-1,4
 396 -125 396 -125 365 -125 c 2,5,-1
 -67 -125 l 2,6,7
 -82 -125 -82 -125 -78 -111 c 0,8,9
 -73 -95 -73 -95 -51.5 -83.5 c 128,-1,10
 -30 -72 -30 -72 1 -72 c 2,11,-1
 433 -72 l 2,0,1
EndSplineSet
EndChar

StartChar: grave
Encoding: 96 96 68
Width: 77
GlyphClass: 2
Flags: W
LayerCount: 2
Fore
SplineSet
-44 505 m 0,0,1
 -8 524 -8 524 27 505 c 0,2,3
 62 487 62 487 115 444 c 0,4,5
 126 435 126 435 114 430 c 0,6,7
 88 420 88 420 62 431 c 0,8,9
 49 436 49 436 -45 490 c 0,10,11
 -58 498 -58 498 -44 505 c 0,0,1
EndSplineSet
EndChar

StartChar: a
Encoding: 97 97 69
Width: 407
GlyphClass: 2
Flags: W
LayerCount: 2
Fore
SplineSet
324 325 m 1,0,1
 346 366 346 366 360 386 c 256,2,3
 374 406 374 406 384 392 c 0,4,5
 397 377 397 377 398 348.5 c 128,-1,6
 399 320 399 320 383 281 c 0,7,8
 374 262 374 262 337 199.5 c 128,-1,9
 300 137 300 137 287 108 c 0,10,11
 274 80 274 80 270 58 c 128,-1,12
 266 36 266 36 272 23 c 128,-1,13
 278 10 278 10 295 11 c 0,14,15
 324 12 324 12 361 53 c 128,-1,16
 398 94 398 94 426 150 c 0,17,18
 435 166 435 166 442 151 c 0,19,20
 452 129 452 129 433 89 c 0,21,22
 412 45 412 45 370.5 12.5 c 128,-1,23
 329 -20 329 -20 289 -18 c 128,-1,24
 249 -16 249 -16 228 6 c 128,-1,25
 207 28 207 28 207 64 c 1,26,27
 146 -14 146 -14 82 -14 c 0,28,29
 36 -14 36 -14 14.5 22.5 c 128,-1,30
 -7 59 -7 59 3 117 c 128,-1,31
 13 175 13 175 53 234 c 0,32,33
 110 317 110 317 165.5 357 c 128,-1,34
 221 397 221 397 263 397 c 0,35,36
 294 397 294 397 310 376.5 c 128,-1,37
 326 356 326 356 324 325 c 1,0,1
237 170 m 0,38,39
 267 223 267 223 282 263 c 128,-1,40
 297 303 297 303 296 323 c 128,-1,41
 295 343 295 343 280 345 c 0,42,43
 255 347 255 347 207.5 303 c 128,-1,44
 160 259 160 259 120 194 c 0,45,46
 94 152 94 152 81 111.5 c 128,-1,47
 68 71 68 71 71 45 c 128,-1,48
 74 19 74 19 93 19 c 0,49,50
 122 18 122 18 159 58.5 c 128,-1,51
 196 99 196 99 237 170 c 0,38,39
EndSplineSet
Substitution2: "'smcp' Lowercase to Small Capitals lookup 0 subtable" a
EndChar

StartChar: b
Encoding: 98 98 70
Width: 352
GlyphClass: 2
Flags: W
LayerCount: 2
Fore
SplineSet
312 151 m 0,0,1
 277 73 277 73 233 31 c 128,-1,2
 189 -11 189 -11 145 -11 c 0,3,4
 69 -11 69 -11 40 60 c 1,5,6
 36 50 36 50 26 27 c 128,-1,7
 16 4 16 4 11 -6 c 0,8,9
 5 -22 5 -22 -5 -9 c 0,10,11
 -34 29 -34 29 -10 101 c 0,12,13
 10 164 10 164 120.5 371.5 c 128,-1,14
 231 579 231 579 282 650 c 0,15,16
 295 669 295 669 307 649 c 0,17,18
 334 598 334 598 281 501 c 0,19,20
 274 487 274 487 241 432 c 128,-1,21
 208 377 208 377 192 349 c 1,22,23
 239 391 239 391 278 391 c 0,24,25
 340 391 340 391 347.5 316.5 c 128,-1,26
 355 242 355 242 312 151 c 0,0,1
263 350 m 0,27,28
 232 353 232 353 190 310 c 0,29,30
 129 246 129 246 60 103 c 1,31,32
 62 79 62 79 72.5 59.5 c 128,-1,33
 83 40 83 40 102 36 c 0,34,35
 165 22 165 22 241 174 c 0,36,37
 268 227 268 227 277 268.5 c 128,-1,38
 286 310 286 310 281 329.5 c 128,-1,39
 276 349 276 349 263 350 c 0,27,28
EndSplineSet
Substitution2: "'smcp' Lowercase to Small Capitals lookup 0 subtable" b
EndChar

StartChar: c
Encoding: 99 99 71
Width: 311
GlyphClass: 2
Flags: W
LayerCount: 2
Fore
SplineSet
247 386 m 0,0,1
 285 363 285 363 302 331 c 0,2,3
 307 315 307 315 308 304.5 c 128,-1,4
 309 294 309 294 303 276 c 128,-1,5
 297 258 297 258 291.5 245.5 c 128,-1,6
 286 233 286 233 277 214 c 128,-1,7
 268 195 268 195 263 182 c 0,8,9
 258 166 258 166 242 174 c 0,10,11
 198 196 198 196 218 261 c 0,12,13
 221 270 221 270 226.5 283 c 128,-1,14
 232 296 232 296 236.5 305 c 128,-1,15
 241 314 241 314 245 325 c 128,-1,16
 249 336 249 336 249 341 c 128,-1,17
 249 346 249 346 245 351 c 0,18,19
 236 358 236 358 212.5 342 c 128,-1,20
 189 326 189 326 159 289.5 c 128,-1,21
 129 253 129 253 108 210 c 0,22,23
 69 125 69 125 78 69.5 c 128,-1,24
 87 14 87 14 133 13 c 0,25,26
 190 12 190 12 241 54.5 c 128,-1,27
 292 97 292 97 330 155 c 0,28,29
 334 161 334 161 339.5 161 c 128,-1,30
 345 161 345 161 348 154 c 0,31,32
 355 134 355 134 330 94 c 0,33,34
 301 49 301 49 247 17.5 c 128,-1,35
 193 -14 193 -14 137 -15 c 0,36,37
 43 -16 43 -16 12.5 61.5 c 128,-1,38
 -18 139 -18 139 32 236 c 0,39,40
 78 326 78 326 142.5 368 c 128,-1,41
 207 410 207 410 247 386 c 0,0,1
EndSplineSet
Substitution2: "'smcp' Lowercase to Small Capitals lookup 0 subtable" c
EndChar

StartChar: d
Encoding: 100 100 72
Width: 401
GlyphClass: 2
Flags: W
LayerCount: 2
Fore
SplineSet
277 108 m 0,0,1
 263 79 263 79 258.5 57 c 128,-1,2
 254 35 254 35 260 22.5 c 128,-1,3
 266 10 266 10 283 11 c 0,4,5
 312 12 312 12 348.5 52.5 c 128,-1,6
 385 93 385 93 413 149 c 0,7,8
 422 165 422 165 429 150 c 0,9,10
 439 126 439 126 421 88 c 0,11,12
 400 45 400 45 358.5 13 c 128,-1,13
 317 -19 317 -19 277 -17 c 0,14,15
 196 -12 196 -12 196 63 c 1,16,17
 134 -14 134 -14 72 -14 c 0,18,19
 26 -14 26 -14 5 22.5 c 128,-1,20
 -16 59 -16 59 -6.5 117 c 128,-1,21
 3 175 3 175 43 233 c 0,22,23
 98 314 98 314 154 354 c 128,-1,24
 210 394 210 394 252 394 c 0,25,26
 281 394 281 394 297 374.5 c 128,-1,27
 313 355 313 355 312 326 c 1,28,29
 424 539 424 539 478 616 c 0,30,31
 494 638 494 638 502 616 c 0,32,33
 525 562 525 562 471 465 c 0,34,35
 462 449 462 449 428.5 390 c 128,-1,36
 395 331 395 331 373 291.5 c 128,-1,37
 351 252 351 252 322.5 198.5 c 128,-1,38
 294 145 294 145 277 108 c 0,0,1
268 343 m 2,39,40
 244 344 244 344 196.5 300.5 c 128,-1,41
 149 257 149 257 109 193 c 0,42,43
 83 151 83 151 70 110.5 c 128,-1,44
 57 70 57 70 60.5 44.5 c 128,-1,45
 64 19 64 19 83 19 c 0,46,47
 113 18 113 18 150.5 58.5 c 128,-1,48
 188 99 188 99 224 168 c 0,49,50
 308 328 308 328 273 342 c 1,51,-1
 268 343 l 2,39,40
EndSplineSet
Substitution2: "'smcp' Lowercase to Small Capitals lookup 0 subtable" d
EndChar

StartChar: e
Encoding: 101 101 73
Width: 320
GlyphClass: 2
Flags: W
LayerCount: 2
Fore
SplineSet
92 171 m 1,0,1
 69 102 69 102 82.5 58.5 c 128,-1,2
 96 15 96 15 137 13 c 0,3,4
 193 10 193 10 245 52.5 c 128,-1,5
 297 95 297 95 336 155 c 0,6,7
 346 170 346 170 353 154 c 0,8,9
 357 147 357 147 352.5 128.5 c 128,-1,10
 348 110 348 110 336 92 c 0,11,12
 304 45 304 45 250.5 15 c 128,-1,13
 197 -15 197 -15 140 -16 c 0,14,15
 46 -17 46 -17 15 61 c 128,-1,16
 -16 139 -16 139 34 236 c 0,17,18
 80 328 80 328 145.5 369.5 c 128,-1,19
 211 411 211 411 251 388 c 0,20,21
 289 365 289 365 310 336 c 0,22,23
 325 320 325 320 316.5 278 c 128,-1,24
 308 236 308 236 278 200 c 0,25,26
 252 169 252 169 223.5 153 c 128,-1,27
 195 137 195 137 160.5 140.5 c 128,-1,28
 126 144 126 144 92 171 c 1,0,1
101 193 m 1,29,30
 156 159 156 159 220 243 c 0,31,32
 245 275 245 275 257.5 307.5 c 128,-1,33
 270 340 270 340 260 348 c 0,34,35
 249 357 249 357 222.5 342 c 128,-1,36
 196 327 196 327 163.5 291 c 128,-1,37
 131 255 131 255 109 210 c 0,38,39
 103 198 103 198 101 193 c 1,29,30
EndSplineSet
Substitution2: "'smcp' Lowercase to Small Capitals lookup 0 subtable" e
EndChar

StartChar: f
Encoding: 102 102 74
Width: 245
GlyphClass: 2
Flags: W
LayerCount: 2
Fore
SplineSet
106 184 m 1,0,1
 160 167 160 167 158 68 c 0,2,3
 158 58 158 58 156 34 c 1,4,5
 216 74 216 74 260 161 c 0,6,7
 263 167 263 167 267 169 c 128,-1,8
 271 171 271 171 275 169 c 128,-1,9
 279 167 279 167 281 160 c 0,10,11
 287 141 287 141 271 100 c 0,12,13
 262 77 262 77 226.5 43.5 c 128,-1,14
 191 10 191 10 151 -4 c 1,15,16
 139 -80 139 -80 109 -155.5 c 128,-1,17
 79 -231 79 -231 43 -276 c 0,18,19
 18 -307 18 -307 -3 -311.5 c 128,-1,20
 -24 -316 -24 -316 -46 -296 c 0,21,22
 -103 -248 -103 -248 -90 -151 c 0,23,24
 -77 -49 -77 -49 -5 112.5 c 128,-1,25
 67 274 67 274 138.5 395.5 c 128,-1,26
 210 517 210 517 279 621 c 0,27,28
 285 630 285 630 293 629.5 c 128,-1,29
 301 629 301 629 304 620 c 0,30,31
 324 562 324 562 270 470 c 0,32,33
 155 279 155 279 106 184 c 1,0,1
101 18 m 1,34,35
 108 54 108 54 110 90 c 0,36,37
 110 108 110 108 107.5 124 c 128,-1,38
 105 140 105 140 101.5 148.5 c 128,-1,39
 98 157 98 157 94 155 c 0,40,41
 87 152 87 152 81 124 c 128,-1,42
 75 96 75 96 74 75 c 0,43,44
 72 24 72 24 101 18 c 1,34,35
34 29 m 1,45,46
 -11 -77 -11 -77 -31 -156.5 c 128,-1,47
 -51 -236 -51 -236 -35 -257 c 0,48,49
 -20 -277 -20 -277 20 -208 c 0,50,51
 68 -122 68 -122 95 -11 c 1,52,53
 52 -7 52 -7 34 29 c 1,45,46
EndSplineSet
Substitution2: "'smcp' Lowercase to Small Capitals lookup 0 subtable" f
EndChar

StartChar: g
Encoding: 103 103 75
Width: 401
GlyphClass: 2
Flags: W
LayerCount: 2
Fore
SplineSet
415 90 m 0,0,1
 364 11 364 11 221 -41 c 1,2,3
 196 -102 196 -102 176 -145.5 c 128,-1,4
 156 -189 156 -189 128.5 -239.5 c 128,-1,5
 101 -290 101 -290 72 -322.5 c 128,-1,6
 43 -355 43 -355 14 -366 c 0,7,8
 -20 -380 -20 -380 -44 -345 c 0,9,10
 -85 -286 -85 -286 -64 -221 c 0,11,12
 -25 -99 -25 -99 150 -32 c 1,13,14
 156 -20 156 -20 165.5 3.5 c 128,-1,15
 175 27 175 27 179 37 c 1,16,17
 129 -13 129 -13 78 -13 c 0,18,19
 33 -13 33 -13 11.5 23 c 128,-1,20
 -10 59 -10 59 0 116.5 c 128,-1,21
 10 174 10 174 49 232 c 0,22,23
 104 313 104 313 160 353 c 128,-1,24
 216 393 216 393 259 393 c 0,25,26
 288 393 288 393 303.5 374 c 128,-1,27
 319 355 319 355 318 327 c 1,28,-1
 351 382 l 2,29,30
 364 404 364 404 376 388 c 0,31,32
 389 373 389 373 390 345 c 128,-1,33
 391 317 391 317 374 278 c 0,34,35
 265 60 265 60 239 0 c 1,36,37
 345 53 345 53 418 150 c 0,38,39
 421 154 421 154 424.5 155.5 c 128,-1,40
 428 157 428 157 431 155 c 128,-1,41
 434 153 434 153 435 148 c 0,42,43
 439 129 439 129 415 90 c 0,0,1
231 168 m 0,44,45
 305 296 305 296 287 333 c 0,46,47
 283 341 283 341 274 342 c 0,48,49
 250 344 250 344 202.5 300 c 128,-1,50
 155 256 155 256 115 193 c 0,51,52
 89 151 89 151 76 110 c 128,-1,53
 63 69 63 69 66.5 43.5 c 128,-1,54
 70 18 70 18 90 18 c 0,55,56
 118 17 118 17 154 57.5 c 128,-1,57
 190 98 190 98 231 168 c 0,44,45
133 -73 m 1,58,59
 73 -108 73 -108 32 -161.5 c 128,-1,60
 -9 -215 -9 -215 -21.5 -256 c 128,-1,61
 -34 -297 -34 -297 -24 -310 c 0,62,63
 -17 -320 -17 -320 7.5 -292.5 c 128,-1,64
 32 -265 32 -265 67 -205 c 128,-1,65
 102 -145 102 -145 133 -73 c 1,58,59
EndSplineSet
Substitution2: "'smcp' Lowercase to Small Capitals lookup 0 subtable" g
EndChar

StartChar: h
Encoding: 104 104 76
Width: 377
GlyphClass: 2
Flags: W
LayerCount: 2
Fore
SplineSet
399 91 m 0,0,1
 377 47 377 47 335.5 15.5 c 128,-1,2
 294 -16 294 -16 251 -16 c 0,3,4
 190 -16 190 -16 171 25.5 c 128,-1,5
 152 67 152 67 176 132 c 0,6,7
 190 173 190 173 220 225 c 128,-1,8
 250 277 250 277 268.5 307.5 c 128,-1,9
 287 338 287 338 280 342 c 0,10,11
 272 346 272 346 240.5 327.5 c 128,-1,12
 209 309 209 309 167.5 270 c 128,-1,13
 126 231 126 231 99 187 c 0,14,15
 36 84 36 84 2 -3 c 0,16,17
 -5 -19 -5 -19 -15 -7 c 0,18,19
 -44 26 -44 26 -19 99 c 0,20,21
 7 173 7 173 125 374 c 128,-1,22
 243 575 243 575 305 652 c 0,23,24
 320 672 320 672 329 651 c 0,25,26
 354 596 354 596 301 509 c 0,27,28
 292 493 292 493 181 321 c 1,29,30
 213 352 213 352 247 372.5 c 128,-1,31
 281 393 281 393 301 391 c 0,32,33
 329 388 329 388 343 356.5 c 128,-1,34
 357 325 357 325 340 286 c 0,35,36
 332 270 332 270 296 208 c 128,-1,37
 260 146 260 146 247 117 c 0,38,39
 235 88 235 88 232 64 c 128,-1,40
 229 40 229 40 237.5 26.5 c 128,-1,41
 246 13 246 13 264 14 c 0,42,43
 293 15 293 15 329 57 c 128,-1,44
 365 99 365 99 391 152 c 0,45,46
 394 159 394 159 400 159 c 128,-1,47
 406 159 406 159 409 153 c 0,48,49
 419 131 419 131 399 91 c 0,0,1
EndSplineSet
Substitution2: "'smcp' Lowercase to Small Capitals lookup 0 subtable" h
EndChar

StartChar: i
Encoding: 105 105 77
Width: 201
GlyphClass: 2
Flags: W
LayerCount: 2
Fore
SplineSet
232 459 m 0,0,1
 251 420 251 420 225 392 c 0,2,3
 216 381 216 381 198 384.5 c 128,-1,4
 180 388 180 388 169 407 c 0,5,6
 158 428 158 428 159.5 448 c 128,-1,7
 161 468 161 468 174 481 c 0,8,9
 186 494 186 494 204 486.5 c 128,-1,10
 222 479 222 479 232 459 c 0,0,1
69 -15 m 0,11,12
 14 -15 14 -15 -3.5 27.5 c 128,-1,13
 -21 70 -21 70 2 131 c 0,14,15
 20 182 20 182 60 256.5 c 128,-1,16
 100 331 100 331 130 374 c 0,17,18
 143 392 143 392 154 380 c 0,19,20
 167 366 167 366 168 338 c 128,-1,21
 169 310 169 310 153 271 c 0,22,23
 145 255 145 255 113 196 c 128,-1,24
 81 137 81 137 69 109 c 0,25,26
 51 65 51 65 53 39 c 128,-1,27
 55 13 55 13 79 14 c 0,28,29
 111 15 111 15 148 56 c 128,-1,30
 185 97 185 97 209 151 c 0,31,32
 217 166 217 166 225 151 c 0,33,34
 237 128 237 128 218 89 c 0,35,36
 196 43 196 43 154 14 c 128,-1,37
 112 -15 112 -15 69 -15 c 0,11,12
EndSplineSet
Substitution2: "'smcp' Lowercase to Small Capitals lookup 0 subtable" i
EndChar

StartChar: j
Encoding: 106 106 78
Width: 178
GlyphClass: 2
Flags: W
LayerCount: 2
Fore
SplineSet
230 461 m 0,0,1
 247 423 247 423 224 396 c 0,2,3
 215 384 215 384 197 388 c 128,-1,4
 179 392 179 392 168 411 c 0,5,6
 145 452 145 452 173 483 c 0,7,8
 185 496 185 496 203 489 c 128,-1,9
 221 482 221 482 230 461 c 0,0,1
9 -19 m 1,10,11
 121 39 121 39 198 153 c 0,12,13
 201 157 201 157 204 158.5 c 128,-1,14
 207 160 207 160 210 158.5 c 128,-1,15
 213 157 213 157 214 152 c 0,16,17
 221 130 221 130 199 93 c 0,18,19
 150 6 150 6 -9 -61 c 1,20,21
 -35 -123 -35 -123 -55.5 -166 c 128,-1,22
 -76 -209 -76 -209 -104.5 -260 c 128,-1,23
 -133 -311 -133 -311 -162 -343 c 128,-1,24
 -191 -375 -191 -375 -219 -386 c 0,25,26
 -254 -400 -254 -400 -276 -367 c 0,27,28
 -286 -352 -286 -352 -291 -342.5 c 128,-1,29
 -296 -333 -296 -333 -302 -316.5 c 128,-1,30
 -308 -300 -308 -300 -307 -282 c 128,-1,31
 -306 -264 -306 -264 -299 -243 c 0,32,33
 -257 -120 -257 -120 -82 -53 c 1,34,35
 42 244 42 244 129 377 c 0,36,37
 141 396 141 396 153 383 c 0,38,39
 165 369 165 369 165.5 340.5 c 128,-1,40
 166 312 166 312 150 273 c 0,41,42
 140 251 140 251 87 143.5 c 128,-1,43
 34 36 34 36 9 -19 c 1,10,11
-99 -95 m 1,44,45
 -159 -129 -159 -129 -200 -183 c 128,-1,46
 -241 -237 -241 -237 -253.5 -278 c 128,-1,47
 -266 -319 -266 -319 -256 -332 c 0,48,49
 -249 -341 -249 -341 -224 -312.5 c 128,-1,50
 -199 -284 -199 -284 -164 -224.5 c 128,-1,51
 -129 -165 -129 -165 -99 -95 c 1,44,45
EndSplineSet
Substitution2: "'smcp' Lowercase to Small Capitals lookup 0 subtable" j
EndChar

StartChar: k
Encoding: 107 107 79
Width: 367
GlyphClass: 2
Flags: W
LayerCount: 2
Fore
SplineSet
182 347 m 1,0,1
 224 388 224 388 271 404 c 0,2,3
 323 422 323 422 353 360 c 0,4,5
 385 294 385 294 332 243 c 0,6,7
 274 186 274 186 193 162 c 1,8,9
 196 101 196 101 215 61.5 c 128,-1,10
 234 22 234 22 263 19 c 0,11,12
 291 16 291 16 327 58 c 128,-1,13
 363 100 363 100 389 154 c 0,14,15
 394 163 394 163 399.5 163.5 c 128,-1,16
 405 164 405 164 409 155 c 0,17,18
 419 131 419 131 397 94 c 0,19,20
 336 -12 336 -12 248 -11 c 0,21,22
 191 -10 191 -10 155.5 38 c 128,-1,23
 120 86 120 86 121 182 c 0,24,25
 121 196 121 196 124.5 200.5 c 128,-1,26
 128 205 128 205 142 209 c 0,27,28
 200 228 200 228 244.5 260.5 c 128,-1,29
 289 293 289 293 307 321 c 128,-1,30
 325 349 325 349 317 363 c 0,31,32
 310 377 310 377 279 368 c 128,-1,33
 248 359 248 359 209 329 c 0,34,35
 155 288 155 288 114.5 217.5 c 128,-1,36
 74 147 74 147 12 0 c 0,37,38
 10 -6 10 -6 4.5 -7 c 128,-1,39
 -1 -8 -1 -8 -6 -2 c 0,40,41
 -32 28 -32 28 -7 108 c 0,42,43
 15 181 15 181 113.5 372 c 128,-1,44
 212 563 212 563 276 649 c 0,45,46
 291 669 291 669 301 650 c 0,47,48
 326 600 326 600 272 507 c 0,49,50
 241 454 241 454 182 347 c 1,0,1
EndSplineSet
Substitution2: "'smcp' Lowercase to Small Capitals lookup 0 subtable" k
EndChar

StartChar: l
Encoding: 108 108 80
Width: 230
GlyphClass: 2
Flags: W
LayerCount: 2
Fore
SplineSet
98 200 m 1,0,1
 77 150 77 150 68 109.5 c 128,-1,2
 59 69 59 69 64.5 43 c 128,-1,3
 70 17 70 17 92 15 c 0,4,5
 127 12 127 12 173 56 c 128,-1,6
 219 100 219 100 249 160 c 0,7,8
 252 166 252 166 256.5 168.5 c 128,-1,9
 261 171 261 171 265 169 c 128,-1,10
 269 167 269 167 271 160 c 0,11,12
 278 136 278 136 261 98 c 0,13,14
 246 66 246 66 196.5 26 c 128,-1,15
 147 -14 147 -14 94 -13 c 0,16,17
 40 -11 40 -11 17 28 c 128,-1,18
 -6 67 -6 67 11 145 c 0,19,20
 37 268 37 268 109 394 c 128,-1,21
 181 520 181 520 264 606 c 0,22,23
 287 630 287 630 307 611 c 0,24,25
 349 574 349 574 330 501 c 0,26,27
 308 415 308 415 240 331.5 c 128,-1,28
 172 248 172 248 98 200 c 1,0,1
116 243 m 1,29,30
 178 293 178 293 224.5 360.5 c 128,-1,31
 271 428 271 428 287.5 472.5 c 128,-1,32
 304 517 304 517 296 522 c 0,33,34
 286 528 286 528 239 458 c 128,-1,35
 192 388 192 388 140 291 c 0,36,37
 126 267 126 267 116 243 c 1,29,30
EndSplineSet
Substitution2: "'smcp' Lowercase to Small Capitals lookup 0 subtable" l
EndChar

StartChar: m
Encoding: 109 109 81
Width: 565
GlyphClass: 2
Flags: W
LayerCount: 2
Fore
SplineSet
158 284 m 1,0,1
 193 325 193 325 240 359.5 c 128,-1,2
 287 394 287 394 313 393 c 0,3,4
 338 392 338 392 350 360.5 c 128,-1,5
 362 329 362 329 352 295 c 1,6,7
 391 333 391 333 433.5 361 c 128,-1,8
 476 389 476 389 500 388 c 0,9,10
 526 387 526 387 533 351 c 128,-1,11
 540 315 540 315 524 278 c 0,12,13
 514 253 514 253 478 195.5 c 128,-1,14
 442 138 442 138 432 117 c 0,15,16
 412 74 412 74 419 44 c 128,-1,17
 426 14 426 14 454 15 c 0,18,19
 503 16 503 16 579 152 c 0,20,21
 588 167 588 167 597 154 c 0,22,23
 601 150 601 150 598.5 128.5 c 128,-1,24
 596 107 596 107 588 91 c 0,25,26
 566 47 566 47 523 15.5 c 128,-1,27
 480 -16 480 -16 438 -16 c 0,28,29
 374 -16 374 -16 350.5 29 c 128,-1,30
 327 74 327 74 356 135 c 0,31,32
 371 169 371 169 403 220 c 128,-1,33
 435 271 435 271 454 302 c 128,-1,34
 473 333 473 333 467 335 c 0,35,36
 462 337 462 337 450.5 332.5 c 128,-1,37
 439 328 439 328 414.5 310 c 128,-1,38
 390 292 390 292 360 262 c 0,39,40
 266 168 266 168 186 -11 c 0,41,42
 176 -31 176 -31 163 -16 c 0,43,44
 124 18 124 18 161 110 c 0,45,46
 174 144 174 144 210 201.5 c 128,-1,47
 246 259 246 259 268.5 297 c 128,-1,48
 291 335 291 335 282 338 c 0,49,50
 276 341 276 341 259 332.5 c 128,-1,51
 242 324 242 324 214.5 301.5 c 128,-1,52
 187 279 187 279 157 246 c 0,53,54
 82 165 82 165 10 -5 c 0,55,56
 3 -21 3 -21 -9 -10 c 0,57,58
 -43 20 -43 20 -19 93 c 0,59,60
 -3 141 -3 141 44.5 231.5 c 128,-1,61
 92 322 92 322 138 391 c 0,62,63
 149 408 149 408 159 391 c 0,64,65
 183 351 183 351 158 284 c 1,0,1
EndSplineSet
Substitution2: "'smcp' Lowercase to Small Capitals lookup 0 subtable" m
EndChar

StartChar: n
Encoding: 110 110 82
Width: 384
GlyphClass: 2
Flags: W
LayerCount: 2
Fore
SplineSet
160 294 m 1,0,1
 198 335 198 335 240.5 365 c 128,-1,2
 283 395 283 395 306 392 c 0,3,4
 333 388 333 388 347 356.5 c 128,-1,5
 361 325 361 325 345 286 c 0,6,7
 336 267 336 267 300.5 205.5 c 128,-1,8
 265 144 265 144 252 116 c 0,9,10
 239 87 239 87 236.5 63 c 128,-1,11
 234 39 234 39 242 25.5 c 128,-1,12
 250 12 250 12 268 13 c 0,13,14
 323 16 323 16 396 151 c 0,15,16
 404 166 404 166 413 152 c 0,17,18
 425 133 425 133 404 89 c 0,19,20
 383 46 383 46 340.5 14 c 128,-1,21
 298 -18 298 -18 256 -18 c 0,22,23
 194 -18 194 -18 175 24 c 128,-1,24
 156 66 156 66 180 131 c 0,25,26
 194 172 194 172 224.5 225 c 128,-1,27
 255 278 255 278 273 309 c 128,-1,28
 291 340 291 340 283 343 c 0,29,30
 277 345 277 345 259 336.5 c 128,-1,31
 241 328 241 328 210.5 304.5 c 128,-1,32
 180 281 180 281 151 249 c 0,33,34
 123 219 123 219 95 172.5 c 128,-1,35
 67 126 67 126 50.5 92 c 128,-1,36
 34 58 34 58 5 -5 c 0,37,38
 -2 -21 -2 -21 -14 -9 c 0,39,40
 -47 24 -47 24 -24 94 c 0,41,42
 -9 140 -9 140 39 228.5 c 128,-1,43
 87 317 87 317 136 389 c 0,44,45
 147 406 147 406 157 389 c 0,46,47
 178 354 178 354 160 294 c 1,0,1
EndSplineSet
Substitution2: "'smcp' Lowercase to Small Capitals lookup 0 subtable" n
EndChar

StartChar: o
Encoding: 111 111 83
Width: 332
GlyphClass: 2
Flags: W
LayerCount: 2
Fore
SplineSet
342 215 m 0,0,1
 332 204 332 204 315 202 c 1,2,3
 298 134 298 134 254 71.5 c 128,-1,4
 210 9 210 9 157 -9 c 0,5,6
 84 -33 84 -33 31 35 c 1,7,8
 0 82 0 82 5.5 139.5 c 128,-1,9
 11 197 11 197 47 260 c 0,10,11
 77 314 77 314 120 350.5 c 128,-1,12
 163 387 163 387 206 390 c 0,13,14
 247 393 247 393 274 356 c 0,15,16
 279 349 279 349 291 336.5 c 128,-1,17
 303 324 303 324 309 316 c 128,-1,18
 315 308 315 308 319 289.5 c 128,-1,19
 323 271 323 271 321 246 c 0,20,21
 320 242 320 242 320 234.5 c 128,-1,22
 320 227 320 227 319 223 c 1,23,24
 322 223 322 223 328.5 224 c 128,-1,25
 335 225 335 225 339 225 c 0,26,27
 350 225 350 225 342 215 c 0,0,1
256 242 m 1,28,29
 268 290 268 290 264 316 c 0,30,31
 262 331 262 331 255.5 335.5 c 128,-1,32
 249 340 249 340 242.5 333.5 c 128,-1,33
 236 327 236 327 234 313 c 0,34,35
 226 270 226 270 256 242 c 1,28,29
249 215 m 1,36,37
 240 219 240 219 230 227 c 0,38,39
 212 240 212 240 198.5 264.5 c 128,-1,40
 185 289 185 289 184 315 c 1,41,42
 137 275 137 275 107 221 c 0,43,44
 76 164 76 164 66 105.5 c 128,-1,45
 56 47 56 47 76 31 c 0,46,47
 98 13 98 13 138.5 41 c 128,-1,48
 179 69 179 69 214 135 c 0,49,50
 236 176 236 176 249 215 c 1,36,37
EndSplineSet
Substitution2: "'smcp' Lowercase to Small Capitals lookup 0 subtable" o
EndChar

StartChar: p
Encoding: 112 112 84
Width: 389
GlyphClass: 2
Flags: W
LayerCount: 2
Fore
SplineSet
209 4 m 1,0,1
 334 12 334 12 399 150 c 0,2,3
 404 160 404 160 410 159 c 128,-1,4
 416 158 416 158 418 150 c 0,5,6
 425 120 425 120 405 84 c 0,7,8
 351 -14 351 -14 227 -23 c 0,9,10
 133 -29 133 -29 86 14 c 0,11,12
 57 40 57 40 52 81 c 1,13,14
 -28 -65 -28 -65 -94 -218 c 0,15,16
 -101 -234 -101 -234 -111 -220 c 0,17,18
 -136 -186 -136 -186 -112 -110 c 0,19,20
 -90 -39 -90 -39 5.5 142.5 c 128,-1,21
 101 324 101 324 149 388 c 0,22,23
 164 408 164 408 173 387 c 0,24,25
 180 368 180 368 179 342 c 1,26,27
 270 421 270 421 325 363 c 0,28,29
 385 299 385 299 314 141 c 0,30,31
 268 40 268 40 209 4 c 1,0,1
108 181 m 0,32,33
 88 132 88 132 87 93 c 128,-1,34
 86 54 86 54 106 35 c 0,35,36
 129 16 129 16 171 59.5 c 128,-1,37
 213 103 213 103 250 178 c 0,38,39
 279 238 279 238 286.5 291 c 128,-1,40
 294 344 294 344 275 353 c 0,41,42
 257 362 257 362 216.5 328 c 128,-1,43
 176 294 176 294 142 238 c 0,44,45
 120 202 120 202 108 181 c 0,32,33
EndSplineSet
Substitution2: "'smcp' Lowercase to Small Capitals lookup 0 subtable" p
EndChar

StartChar: q
Encoding: 113 113 85
Width: 373
GlyphClass: 2
Flags: W
LayerCount: 2
Fore
SplineSet
154 10 m 1,0,1
 117 -15 117 -15 82 -15 c 0,2,3
 48 -15 48 -15 27 7 c 128,-1,4
 6 29 6 29 1.5 63 c 128,-1,5
 -3 97 -3 97 10 143 c 128,-1,6
 23 189 23 189 53 233 c 0,7,8
 108 314 108 314 164.5 354 c 128,-1,9
 221 394 221 394 263 394 c 0,10,11
 294 394 294 394 310 373 c 128,-1,12
 326 352 326 352 324 322 c 1,13,14
 351 370 351 370 367 386 c 0,15,16
 380 399 380 399 392 383 c 0,17,18
 415 335 415 335 370 255 c 0,19,20
 179 -86 179 -86 111 -249 c 0,21,22
 104 -265 104 -265 93 -253 c 0,23,24
 80 -238 80 -238 77 -222.5 c 128,-1,25
 74 -207 74 -207 84 -161 c 0,26,27
 104 -92 104 -92 154 10 c 1,0,1
237 168 m 0,28,29
 310 295 310 295 293 333 c 0,30,31
 289 342 289 342 280 343 c 0,32,33
 255 345 255 345 207.5 301 c 128,-1,34
 160 257 160 257 120 193 c 0,35,36
 94 151 94 151 80.5 109.5 c 128,-1,37
 67 68 67 68 70.5 42 c 128,-1,38
 74 16 74 16 93 16 c 0,39,40
 150 16 150 16 237 168 c 0,28,29
EndSplineSet
Substitution2: "'smcp' Lowercase to Small Capitals lookup 0 subtable" q
EndChar

StartChar: r
Encoding: 114 114 86
Width: 330
GlyphClass: 2
Flags: W
LayerCount: 2
Fore
SplineSet
165 316 m 1,0,1
 211 322 211 322 268 362 c 0,2,3
 286 374 286 374 295 364 c 0,4,5
 306 352 306 352 314 337 c 128,-1,6
 322 322 322 322 322 301.5 c 128,-1,7
 322 281 322 281 309 266 c 0,8,9
 219 163 219 163 199 100 c 0,10,11
 187 61 187 61 194.5 35 c 128,-1,12
 202 9 202 9 224 8 c 0,13,14
 252 7 252 7 285 45 c 128,-1,15
 318 83 318 83 343 140 c 0,16,17
 350 154 350 154 357 141 c 0,18,19
 368 117 368 117 352 79 c 0,20,21
 335 36 335 36 296.5 7.5 c 128,-1,22
 258 -21 258 -21 218 -19 c 0,23,24
 165 -17 165 -17 144 25.5 c 128,-1,25
 123 68 123 68 142 125 c 0,26,27
 166 198 166 198 262 308 c 1,28,29
 204 270 204 270 145 270 c 1,30,31
 139 259 139 259 97 188.5 c 128,-1,32
 55 118 55 118 28 63 c 128,-1,33
 1 8 1 8 -8 -33 c 0,34,35
 -12 -51 -12 -51 -25 -38 c 0,36,37
 -70 8 -70 8 -27 89 c 0,38,39
 -8 125 -8 125 100 280 c 1,40,41
 78 294 78 294 81 320 c 128,-1,42
 84 346 84 346 98.5 371.5 c 128,-1,43
 113 397 113 397 133 416.5 c 128,-1,44
 153 436 153 436 167 436 c 0,45,46
 189 433 189 433 187 400 c 128,-1,47
 185 367 185 367 165 316 c 1,0,1
EndSplineSet
Substitution2: "'smcp' Lowercase to Small Capitals lookup 0 subtable" r
EndChar

StartChar: s
Encoding: 115 115 87
Width: 302
GlyphClass: 2
Flags: W
LayerCount: 2
Fore
SplineSet
39 164 m 1,0,1
 116 269 116 269 154 336 c 1,2,3
 160 386 160 386 190 413 c 0,4,5
 206 427 206 427 222 431 c 128,-1,6
 238 435 238 435 244 428 c 0,7,8
 255 417 255 417 236 384 c 0,9,10
 235 383 235 383 225 365 c 1,11,12
 221 314 221 314 228 234.5 c 128,-1,13
 235 155 235 155 234 126 c 0,14,15
 230 48 230 48 189 21 c 1,16,17
 273 52 273 52 323 160 c 0,18,19
 327 168 327 168 333 167.5 c 128,-1,20
 339 167 339 167 342 160 c 0,21,22
 352 138 352 138 328 94 c 0,23,24
 300 43 300 43 253 14.5 c 128,-1,25
 206 -14 206 -14 151 -16 c 0,26,27
 46 -20 46 -20 3 59 c 0,28,29
 -16 92 -16 92 -12.5 134.5 c 128,-1,30
 -9 177 -9 177 16 198 c 0,31,32
 35 214 35 214 37 188 c 0,33,34
 38 184 38 184 38 176 c 128,-1,35
 38 168 38 168 39 164 c 1,0,1
152 272 m 1,36,37
 117 208 117 208 48 110 c 1,38,39
 60 65 60 65 80.5 39.5 c 128,-1,40
 101 14 101 14 125 21 c 0,41,42
 134 24 134 24 141 34.5 c 128,-1,43
 148 45 148 45 151 64 c 128,-1,44
 154 83 154 83 156 99.5 c 128,-1,45
 158 116 158 116 157.5 145 c 128,-1,46
 157 174 157 174 156.5 189 c 128,-1,47
 156 204 156 204 154 234.5 c 128,-1,48
 152 265 152 265 152 272 c 1,36,37
EndSplineSet
Substitution2: "'smcp' Lowercase to Small Capitals lookup 0 subtable" s
EndChar

StartChar: t
Encoding: 116 116 88
Width: 214
GlyphClass: 2
Flags: W
LayerCount: 2
Fore
SplineSet
125 389 m 1,0,1
 79 389 79 389 60 415 c 0,2,3
 53 425 53 425 56 430.5 c 128,-1,4
 59 436 59 436 71 435 c 0,5,6
 107 434 107 434 154 439 c 1,7,8
 207 534 207 534 230 563 c 0,9,10
 237 573 237 573 243.5 572.5 c 128,-1,11
 250 572 250 572 254 563 c 0,12,13
 272 517 272 517 241 450 c 1,14,15
 284 451 284 451 303 420 c 0,16,17
 314 401 314 401 291 401 c 0,18,19
 262 405 262 405 213 397 c 1,20,21
 115 229 115 229 79 149 c 0,22,23
 55 94 55 94 61 54 c 128,-1,24
 67 14 67 14 99 12 c 0,25,26
 131 11 131 11 169.5 53 c 128,-1,27
 208 95 208 95 238 156 c 0,28,29
 241 162 241 162 245 164.5 c 128,-1,30
 249 167 249 167 253 165 c 128,-1,31
 257 163 257 163 259 156 c 0,32,33
 265 136 265 136 249 99 c 0,34,35
 234 65 234 65 188 24 c 128,-1,36
 142 -17 142 -17 90 -15 c 0,37,38
 36 -13 36 -13 12 38.5 c 128,-1,39
 -12 90 -12 90 19 176 c 1,40,41
 53 256 53 256 125 389 c 1,0,1
EndSplineSet
Substitution2: "'smcp' Lowercase to Small Capitals lookup 0 subtable" t
EndChar

StartChar: u
Encoding: 117 117 89
Width: 404
GlyphClass: 2
Flags: W
LayerCount: 2
Fore
SplineSet
196 81 m 1,0,1
 122 -18 122 -18 52 -13 c 0,2,3
 18 -11 18 -11 2.5 12 c 128,-1,4
 -13 35 -13 35 -12 65.5 c 128,-1,5
 -11 96 -11 96 1 132 c 0,6,7
 40 248 40 248 139 387 c 0,8,9
 151 404 151 404 165 388 c 0,10,11
 199 337 199 337 146 253 c 0,12,13
 101 181 101 181 68 106 c 0,14,15
 52 69 52 69 54 45 c 128,-1,16
 56 21 56 21 73 19 c 0,17,18
 123 15 123 15 221 173 c 0,19,20
 252 223 252 223 290.5 294 c 128,-1,21
 329 365 329 365 345 387 c 0,22,23
 359 407 359 407 370 393 c 0,24,25
 383 378 383 378 384 349 c 128,-1,26
 385 320 385 320 369 281 c 0,27,28
 360 262 360 262 323.5 200 c 128,-1,29
 287 138 287 138 274 110 c 128,-1,30
 261 82 261 82 258 59.5 c 128,-1,31
 255 37 255 37 262.5 24.5 c 128,-1,32
 270 12 270 12 288 13 c 0,33,34
 345 16 345 16 420 151 c 0,35,36
 424 158 424 158 429.5 158.5 c 128,-1,37
 435 159 435 159 438 152 c 0,38,39
 449 130 449 130 429 89 c 0,40,41
 406 45 406 45 364 13.5 c 128,-1,42
 322 -18 322 -18 279 -18 c 0,43,44
 232 -18 232 -18 211 9 c 128,-1,45
 190 36 190 36 196 81 c 1,0,1
EndSplineSet
Substitution2: "'smcp' Lowercase to Small Capitals lookup 0 subtable" u
EndChar

StartChar: v
Encoding: 118 118 90
Width: 300
GlyphClass: 2
Flags: W
LayerCount: 2
Fore
SplineSet
68 29 m 1,0,1
 120 115 120 115 204 227 c 128,-1,2
 288 339 288 339 340 392 c 0,3,4
 356 408 356 408 359 388 c 0,5,6
 363 358 363 358 318 301 c 0,7,8
 311 293 311 293 261.5 234 c 128,-1,9
 212 175 212 175 168 116.5 c 128,-1,10
 124 58 124 58 81 -10 c 0,11,12
 71 -25 71 -25 61 -20 c 0,13,14
 31 -5 31 -5 20 14 c 128,-1,15
 9 33 9 33 11 72 c 0,16,17
 14 127 14 127 33 220.5 c 128,-1,18
 52 314 52 314 76 389 c 0,19,20
 83 408 83 408 96 397 c 0,21,22
 120 376 120 376 125.5 346 c 128,-1,23
 131 316 131 316 120 271 c 0,24,25
 116 252 116 252 103 204 c 128,-1,26
 90 156 90 156 82 117 c 128,-1,27
 74 78 74 78 68 29 c 1,0,1
EndSplineSet
Substitution2: "'smcp' Lowercase to Small Capitals lookup 0 subtable" v
EndChar

StartChar: w
Encoding: 119 119 91
Width: 490
GlyphClass: 2
Flags: W
LayerCount: 2
Fore
SplineSet
403 174 m 1,0,1
 411 244 411 244 434 297.5 c 128,-1,2
 457 351 457 351 477 372.5 c 128,-1,3
 497 394 497 394 510 397 c 0,4,5
 520 398 520 398 524 388.5 c 128,-1,6
 528 379 528 379 525 363 c 0,7,8
 512 298 512 298 438 173 c 0,9,10
 324 -19 324 -19 232 -16 c 0,11,12
 201 -15 201 -15 183.5 9 c 128,-1,13
 166 33 166 33 168 67 c 1,14,15
 104 -15 104 -15 46 -11 c 0,16,17
 1 -8 1 -8 -10.5 34.5 c 128,-1,18
 -22 77 -22 77 -1 132 c 0,19,20
 43 258 43 258 138 387 c 0,21,22
 151 405 151 405 162 388 c 0,23,24
 198 339 198 339 144 253 c 0,25,26
 89 166 89 166 62 101 c 0,27,28
 47 64 47 64 48 40.5 c 128,-1,29
 49 17 49 17 66 18 c 0,30,31
 90 19 90 19 115.5 50 c 128,-1,32
 141 81 141 81 182 148 c 0,33,34
 187 156 187 156 190.5 161.5 c 128,-1,35
 194 167 194 167 197 173 c 0,36,37
 228 222 228 222 267 293.5 c 128,-1,38
 306 365 306 365 323 387 c 0,39,40
 336 405 336 405 348 393 c 0,41,42
 360 377 360 377 361 349 c 128,-1,43
 362 321 362 321 346 281 c 0,44,45
 336 261 336 261 299 198 c 128,-1,46
 262 135 262 135 249 107 c 0,47,48
 229 64 229 64 230.5 40 c 128,-1,49
 232 16 232 16 254 15 c 0,50,51
 280 14 280 14 321 58.5 c 128,-1,52
 362 103 362 103 403 174 c 1,0,1
EndSplineSet
Substitution2: "'smcp' Lowercase to Small Capitals lookup 0 subtable" w
EndChar

StartChar: x
Encoding: 120 120 92
Width: 391
GlyphClass: 2
Flags: W
LayerCount: 2
Fore
SplineSet
174 180 m 1,0,1
 149 349 149 349 137 350 c 0,2,3
 126 351 126 351 100.5 322 c 128,-1,4
 75 293 75 293 55 247 c 0,5,6
 52 240 52 240 46.5 239.5 c 128,-1,7
 41 239 41 239 39 245 c 0,8,9
 32 265 32 265 45 299 c 0,10,11
 60 337 60 337 98 366 c 128,-1,12
 136 395 136 395 172 389 c 0,13,14
 195 385 195 385 206.5 369 c 128,-1,15
 218 353 218 353 225 319 c 0,16,17
 233 280 233 280 239 233 c 1,18,19
 336 312 336 312 389 380 c 0,20,21
 396 390 396 390 402.5 390 c 128,-1,22
 409 390 409 390 409 378 c 0,23,24
 409 339 409 339 355 277 c 0,25,26
 334 253 334 253 246 182 c 1,27,28
 249 163 249 163 254.5 125 c 128,-1,29
 260 87 260 87 263 73 c 0,30,31
 274 20 274 20 295 18 c 0,32,33
 320 17 320 17 348.5 55.5 c 128,-1,34
 377 94 377 94 404 150 c 0,35,36
 407 157 407 157 412 157.5 c 128,-1,37
 417 158 417 158 419 152 c 0,38,39
 430 127 430 127 410 89 c 0,40,41
 387 43 387 43 350.5 13.5 c 128,-1,42
 314 -16 314 -16 278 -16 c 0,43,44
 238 -16 238 -16 216 10.5 c 128,-1,45
 194 37 194 37 185 98 c 0,46,47
 185 100 185 100 183.5 110 c 128,-1,48
 182 120 182 120 181 127 c 1,49,50
 95 55 95 55 43 -10 c 0,51,52
 39 -15 39 -15 33 -17.5 c 128,-1,53
 27 -20 27 -20 23 -17.5 c 128,-1,54
 19 -15 19 -15 20 -7 c 0,55,56
 24 36 24 36 80 97 c 0,57,58
 105 124 105 124 174 180 c 1,0,1
EndSplineSet
Substitution2: "'smcp' Lowercase to Small Capitals lookup 0 subtable" x
EndChar

StartChar: y
Encoding: 121 121 93
Width: 375
GlyphClass: 2
Flags: W
LayerCount: 2
Fore
SplineSet
386 97 m 0,0,1
 339 22 339 22 194 -37 c 1,2,3
 168 -100 168 -100 148.5 -142.5 c 128,-1,4
 129 -185 129 -185 100.5 -236.5 c 128,-1,5
 72 -288 72 -288 43 -320.5 c 128,-1,6
 14 -353 14 -353 -16 -364 c 0,7,8
 -50 -377 -50 -377 -73 -343 c 0,9,10
 -82 -329 -82 -329 -87.5 -318.5 c 128,-1,11
 -93 -308 -93 -308 -98 -292.5 c 128,-1,12
 -103 -277 -103 -277 -101.5 -258.5 c 128,-1,13
 -100 -240 -100 -240 -93 -219 c 0,14,15
 -53 -98 -53 -98 121 -30 c 1,16,17
 123 -24 123 -24 134.5 2 c 128,-1,18
 146 28 146 28 152 42 c 1,19,20
 95 -17 95 -17 43 -13 c 0,21,22
 -7 -9 -7 -9 -18 37 c 128,-1,23
 -29 83 -29 83 -8 132 c 1,24,25
 34 255 34 255 128 385 c 0,26,27
 141 403 141 403 153 385 c 0,28,29
 188 338 188 338 134 252 c 0,30,31
 82 169 82 169 57 106 c 0,32,33
 42 69 42 69 43.5 45 c 128,-1,34
 45 21 45 21 62 20 c 0,35,36
 113 16 113 16 202 168 c 0,37,38
 216 192 216 192 259.5 273 c 128,-1,39
 303 354 303 354 323 383 c 0,40,41
 336 401 336 401 348 390 c 0,42,43
 360 374 360 374 361 346.5 c 128,-1,44
 362 319 362 319 344 278 c 0,45,46
 258 113 258 113 211 3 c 1,47,48
 318 61 318 61 388 157 c 0,49,50
 392 163 392 163 397.5 162.5 c 128,-1,51
 403 162 403 162 404 155 c 0,52,53
 409 132 409 132 386 97 c 0,0,1
104 -72 m 1,54,55
 44 -106 44 -106 3 -160 c 128,-1,56
 -38 -214 -38 -214 -50.5 -254.5 c 128,-1,57
 -63 -295 -63 -295 -53 -309 c 0,58,59
 -46 -319 -46 -319 -21 -290.5 c 128,-1,60
 4 -262 4 -262 39.5 -201.5 c 128,-1,61
 75 -141 75 -141 104 -72 c 1,54,55
EndSplineSet
Substitution2: "'smcp' Lowercase to Small Capitals lookup 0 subtable" y
EndChar

StartChar: z
Encoding: 122 122 94
Width: 353
GlyphClass: 2
Flags: W
LayerCount: 2
Fore
SplineSet
205 3 m 1,0,1
 212 37 212 37 199 54 c 0,2,3
 190 69 190 69 150 62.5 c 128,-1,4
 110 56 110 56 74 31 c 0,5,6
 61 22 61 22 57 32 c 0,7,8
 37 90 37 90 100 126 c 0,9,10
 171 167 171 167 220 212.5 c 128,-1,11
 269 258 269 258 285 292.5 c 128,-1,12
 301 327 301 327 287 344 c 0,13,14
 266 370 266 370 185 326 c 128,-1,15
 104 282 104 282 47 211 c 0,16,17
 42 205 42 205 38 206.5 c 128,-1,18
 34 208 34 208 32 214 c 0,19,20
 26 235 26 235 36.5 265.5 c 128,-1,21
 47 296 47 296 73 322 c 0,22,23
 138 385 138 385 218 395 c 0,24,25
 254 400 254 400 276.5 392.5 c 128,-1,26
 299 385 299 385 317 359 c 0,27,28
 357 302 357 302 313 226 c 0,29,30
 275 161 275 161 165 92 c 1,31,32
 205 94 205 94 228 72 c 0,33,34
 247 54 247 54 254 23 c 1,35,36
 326 61 326 61 374 152 c 0,37,38
 377 158 377 158 383 158.5 c 128,-1,39
 389 159 389 159 392 152 c 0,40,41
 401 133 401 133 378 90 c 0,42,43
 348 35 348 35 256 -5 c 1,44,45
 256 -80 256 -80 198.5 -174.5 c 128,-1,46
 141 -269 141 -269 89 -298 c 0,47,48
 51 -319 51 -319 23 -284 c 0,49,50
 13 -271 13 -271 7 -262 c 128,-1,51
 1 -253 1 -253 -5 -237.5 c 128,-1,52
 -11 -222 -11 -222 -10 -204.5 c 128,-1,53
 -9 -187 -9 -187 0 -167 c 0,54,55
 45 -63 45 -63 205 3 c 1,0,1
196 -30 m 1,56,57
 135 -64 135 -64 94 -114 c 128,-1,58
 53 -164 53 -164 41 -200.5 c 128,-1,59
 29 -237 29 -237 40 -250 c 0,60,61
 49 -260 49 -260 80 -226 c 128,-1,62
 111 -192 111 -192 145.5 -135 c 128,-1,63
 180 -78 180 -78 196 -30 c 1,56,57
EndSplineSet
Substitution2: "'smcp' Lowercase to Small Capitals lookup 0 subtable" z
EndChar

StartChar: braceleft
Encoding: 123 123 95
Width: 193
GlyphClass: 2
Flags: W
LayerCount: 2
Fore
SplineSet
139 310 m 1,0,1
 176 270 176 270 139 198 c 0,2,3
 133 185 133 185 104.5 139.5 c 128,-1,4
 76 94 76 94 61.5 60 c 128,-1,5
 47 26 47 26 51 5 c 0,6,7
 53 -5 53 -5 48.5 -8.5 c 128,-1,8
 44 -12 44 -12 36 -7 c 0,9,10
 12 8 12 8 4 35.5 c 128,-1,11
 -4 63 -4 63 9 102 c 0,12,13
 23 136 23 136 56 187.5 c 128,-1,14
 89 239 89 239 96 256 c 0,15,16
 109 291 109 291 92 307 c 0,17,18
 86 314 86 314 87.5 322 c 128,-1,19
 89 330 89 330 99 331 c 0,20,21
 130 333 130 333 151 363 c 0,22,23
 165 382 165 382 202 463 c 128,-1,24
 239 544 239 544 257 572 c 0,25,26
 295 629 295 629 365 616 c 0,27,28
 371 615 371 615 373 612 c 128,-1,29
 375 609 375 609 373 605 c 128,-1,30
 371 601 371 601 366 598 c 0,31,32
 343 582 343 582 319 544 c 128,-1,33
 295 506 295 506 266 447 c 128,-1,34
 237 388 237 388 234 382 c 0,35,36
 196 313 196 313 139 310 c 1,0,1
EndSplineSet
EndChar

StartChar: bar
Encoding: 124 124 96
Width: 224
GlyphClass: 2
Flags: W
LayerCount: 2
Fore
SplineSet
309 644 m 0,0,1
 324 665 324 665 333 643 c 0,2,3
 356 592 356 592 300 493 c 0,4,5
 94 130 94 130 30 -30 c 0,6,7
 24 -45 24 -45 13 -32 c 0,8,9
 -15 -1 -15 -1 11 75 c 0,10,11
 37 150 37 150 140 347.5 c 128,-1,12
 243 545 243 545 309 644 c 0,0,1
EndSplineSet
EndChar

StartChar: braceright
Encoding: 125 125 97
Width: 306
GlyphClass: 2
Flags: W
LayerCount: 2
Fore
SplineSet
224 295 m 1,0,1
 188 332 188 332 224 401 c 0,2,3
 229 411 229 411 260 461.5 c 128,-1,4
 291 512 291 512 306 547.5 c 128,-1,5
 321 583 321 583 316 603 c 0,6,7
 313 613 313 613 317 616 c 128,-1,8
 321 619 321 619 331 615 c 0,9,10
 358 604 358 604 367.5 580.5 c 128,-1,11
 377 557 377 557 367 525 c 0,12,13
 353 484 353 484 313 422 c 128,-1,14
 273 360 273 360 268 346 c 0,15,16
 255 311 255 311 273 293 c 0,17,18
 279 286 279 286 275 280 c 128,-1,19
 271 274 271 274 259 271 c 0,20,21
 234 265 234 265 213 237 c 0,22,23
 198 218 198 218 163.5 141 c 128,-1,24
 129 64 129 64 111 37 c 0,25,26
 72 -21 72 -21 2 -8 c 0,27,28
 -7 -6 -7 -6 -7 -0.5 c 128,-1,29
 -7 5 -7 5 2 10 c 0,30,31
 23 23 23 23 46.5 60 c 128,-1,32
 70 97 70 97 99 156.5 c 128,-1,33
 128 216 128 216 131 222 c 0,34,35
 168 289 168 289 224 295 c 1,0,1
EndSplineSet
EndChar

StartChar: exclamdown
Encoding: 161 161 99
Width: 317
GlyphClass: 2
Flags: W
LayerCount: 2
Fore
SplineSet
311 530 m 0,0,1
 295 564 295 564 318 594 c 0,2,3
 327 606 327 606 345 601.5 c 128,-1,4
 363 597 363 597 373 580 c 0,5,6
 384 560 384 560 382.5 540 c 128,-1,7
 381 520 381 520 368 507 c 0,8,9
 357 495 357 495 339 502 c 128,-1,10
 321 509 321 509 311 530 c 0,0,1
86 -33 m 0,11,12
 80 -42 80 -42 72.5 -41.5 c 128,-1,13
 65 -41 65 -41 61 -31 c 0,14,15
 37 22 37 22 91 120 c 0,16,17
 215 342 215 342 281 487 c 0,18,19
 288 501 288 501 298 491 c 0,20,21
 329 458 329 458 301 382 c 0,22,23
 270 299 270 299 205 173 c 128,-1,24
 140 47 140 47 86 -33 c 0,11,12
EndSplineSet
EndChar

StartChar: cent
Encoding: 162 162 100
Width: 353
GlyphClass: 2
Flags: W
LayerCount: 2
Fore
SplineSet
307 482 m 1,0,1
 330 525 330 525 367 585 c 0,2,3
 376 600 376 600 385 587 c 0,4,5
 402 561 402 561 371 498 c 2,6,-1
 350 456 l 1,7,8
 372 437 372 437 381 417 c 0,9,10
 385 401 385 401 386 390.5 c 128,-1,11
 387 380 387 380 380.5 362.5 c 128,-1,12
 374 345 374 345 367.5 333 c 128,-1,13
 361 321 361 321 351.5 303 c 128,-1,14
 342 285 342 285 337 273 c 0,15,16
 330 255 330 255 314 265 c 0,17,18
 275 291 275 291 298 348 c 0,19,20
 301 355 301 355 307 367.5 c 128,-1,21
 313 380 313 380 317 389.5 c 128,-1,22
 321 399 321 399 325 409 c 128,-1,23
 329 419 329 419 329 426 c 128,-1,24
 329 433 329 433 324 436 c 0,25,26
 301 451 301 451 240 400.5 c 128,-1,27
 179 350 179 350 148 281 c 0,28,29
 122 219 122 219 127 178 c 128,-1,30
 132 137 132 137 162 126 c 0,31,32
 191 115 191 115 229.5 137 c 128,-1,33
 268 159 268 159 293 200 c 0,34,35
 301 214 301 214 309 202 c 0,36,37
 325 174 325 174 295 135 c 0,38,39
 271 104 271 104 233 92.5 c 128,-1,40
 195 81 195 81 156 92 c 1,41,42
 126 35 126 35 110 0 c 0,43,44
 104 -16 104 -16 96 -3 c 0,45,46
 80 22 80 22 100 71 c 0,47,48
 101 76 101 76 115 110 c 1,49,50
 67 143 67 143 60.5 204 c 128,-1,51
 54 265 54 265 94 335 c 0,52,53
 138 412 138 412 200.5 452 c 128,-1,54
 263 492 263 492 307 482 c 1,0,1
EndSplineSet
EndChar

StartChar: sterling
Encoding: 163 163 101
Width: 355
GlyphClass: 2
Flags: W
LayerCount: 2
Fore
SplineSet
380 361 m 0,0,1
 343 324 343 324 303 333 c 0,2,3
 286 336 286 336 298 348 c 0,4,5
 330 382 330 382 349.5 424 c 128,-1,6
 369 466 369 466 356 474 c 0,7,8
 344 481 344 481 315 466 c 128,-1,9
 286 451 286 451 254 423 c 0,10,11
 227 399 227 399 211.5 368.5 c 128,-1,12
 196 338 196 338 199 315 c 1,13,14
 214 319 214 319 230 319 c 0,15,16
 252 320 252 320 268.5 308.5 c 128,-1,17
 285 297 285 297 291 280 c 0,18,19
 294 270 294 270 285 270 c 0,20,21
 259 270 259 270 210 263 c 1,22,23
 217 217 217 217 186 184 c 1,24,25
 225 189 225 189 230 189 c 0,26,27
 287 195 287 195 306 150 c 0,28,29
 311 138 311 138 298 138 c 0,30,31
 221 135 221 135 124 103 c 0,32,33
 106 97 106 97 96 109 c 0,34,35
 78 131 78 131 71 140 c 0,36,37
 59 155 59 155 76 164 c 0,38,39
 156 206 156 206 174 254 c 1,40,41
 150 247 150 247 136 246 c 0,42,43
 86 242 86 242 69 281 c 0,44,45
 63 294 63 294 76 294 c 0,46,47
 103 293 103 293 165 309 c 0,48,49
 165 310 165 310 160.5 323 c 128,-1,50
 156 336 156 336 155 340 c 128,-1,51
 154 344 154 344 151.5 356.5 c 128,-1,52
 149 369 149 369 151 376.5 c 128,-1,53
 153 384 153 384 156 397.5 c 128,-1,54
 159 411 159 411 166 421.5 c 128,-1,55
 173 432 173 432 185 446.5 c 128,-1,56
 197 461 197 461 213 475 c 0,57,58
 235 495 235 495 260 507.5 c 128,-1,59
 285 520 285 520 317 520.5 c 128,-1,60
 349 521 349 521 375 501 c 0,61,62
 403 480 403 480 409 451.5 c 128,-1,63
 415 423 415 423 406 400.5 c 128,-1,64
 397 378 397 378 380 361 c 0,0,1
EndSplineSet
EndChar

StartChar: currency
Encoding: 164 164 102
Width: 358
GlyphClass: 2
Flags: W
LayerCount: 2
Fore
SplineSet
231 452 m 0,0,1
 269 452 269 452 302 420 c 1,2,3
 364 484 364 484 387 501 c 0,4,5
 398 508 398 508 404.5 505.5 c 128,-1,6
 411 503 411 503 412 493 c 0,7,8
 415 465 415 465 389 437 c 0,9,10
 382 429 382 429 338 385 c 1,11,12
 362 358 362 358 362 321 c 0,13,14
 363 268 363 268 335 217 c 128,-1,15
 307 166 307 166 264 141 c 1,16,17
 275 82 275 82 277 53 c 0,18,19
 278 33 278 33 267 27 c 0,20,21
 256 22 256 22 251 34 c 0,22,23
 237 61 237 61 219 124 c 1,24,25
 164 115 164 115 114 154 c 1,26,27
 59 98 59 98 36 82 c 0,28,29
 17 69 17 69 5 75 c 0,30,31
 -4 80 -4 80 5 94 c 0,32,33
 16 111 16 111 83 184 c 1,34,35
 35 251 35 251 84 347 c 0,36,37
 114 402 114 402 159 430 c 1,38,39
 142 500 142 500 142 526 c 0,40,41
 141 539 141 539 147 543.5 c 128,-1,42
 153 548 153 548 162 545 c 0,43,44
 188 537 188 537 195 504 c 2,45,-1
 206 449 l 1,46,47
 218 452 218 452 231 452 c 0,0,1
273 246 m 0,48,49
 300 299 300 299 300 346.5 c 128,-1,50
 300 394 300 394 281 404 c 0,51,52
 256 419 256 419 215 393.5 c 128,-1,53
 174 368 174 368 148 316 c 0,54,55
 125 269 125 269 126 224 c 128,-1,56
 127 179 127 179 150 165 c 0,57,58
 175 150 175 150 210.5 171 c 128,-1,59
 246 192 246 192 273 246 c 0,48,49
EndSplineSet
EndChar

StartChar: yen
Encoding: 165 165 103
Width: 355
GlyphClass: 2
Flags: W
LayerCount: 2
Fore
SplineSet
325 231 m 0,0,1
 278 235 278 235 208 222 c 1,2,3
 186 177 186 177 159 102 c 0,4,5
 154 89 154 89 140 99 c 0,6,7
 108 123 108 123 126 187 c 0,8,9
 128 195 128 195 135 213 c 1,10,-1
 122 213 l 2,11,12
 71 213 71 213 57 251 c 0,13,14
 53 264 53 264 65 264 c 0,15,16
 95 264 95 264 155 272 c 1,17,18
 144 388 144 388 151 497 c 0,19,20
 152 520 152 520 171 511 c 0,21,22
 196 499 196 499 204 480 c 128,-1,23
 212 461 212 461 212 419 c 0,24,25
 212 412 212 412 211.5 370 c 128,-1,26
 211 328 211 328 211 300 c 1,27,28
 328 444 328 444 406 512 c 0,29,30
 425 528 425 528 425 507 c 0,31,32
 425 473 425 473 381 423 c 0,33,34
 366 407 366 407 347 386.5 c 128,-1,35
 328 366 328 366 298.5 335.5 c 128,-1,36
 269 305 269 305 249 284 c 1,37,38
 255 285 255 285 269 285 c 0,39,40
 318 285 318 285 333 241 c 0,41,42
 335 236 335 236 333 233 c 128,-1,43
 331 230 331 230 325 231 c 0,0,1
EndSplineSet
EndChar

StartChar: brokenbar
Encoding: 166 166 104
Width: 224
GlyphClass: 2
Flags: W
LayerCount: 2
Fore
SplineSet
309 644 m 0,0,1
 324 665 324 665 333 643 c 0,2,3
 356 592 356 592 300 493 c 0,4,5
 252 409 252 409 233 364 c 0,6,7
 229 347 229 347 224.5 344 c 128,-1,8
 220 341 220 341 213 348 c 0,9,10
 179 372 179 372 206 476 c 0,11,12
 215 499 215 499 251 557.5 c 128,-1,13
 287 616 287 616 309 644 c 0,0,1
110 294 m 1,14,15
 132 313 132 313 140 293 c 0,16,17
 160 258 160 258 124 170 c 1,18,19
 54 33 54 33 30 -30 c 0,20,21
 24 -45 24 -45 13 -32 c 0,22,23
 -15 -1 -15 -1 11 75 c 0,24,25
 19 104 19 104 53.5 179.5 c 128,-1,26
 88 255 88 255 110 294 c 1,14,15
EndSplineSet
EndChar

StartChar: section
Encoding: 167 167 105
Width: 476
GlyphClass: 2
Flags: W
LayerCount: 2
Fore
SplineSet
422 187 m 0,0,1
 422 147 422 147 383.5 115 c 128,-1,2
 345 83 345 83 284 71 c 1,3,4
 331 38 331 38 331 9 c 0,5,6
 331 -26 331 -26 288.5 -60.5 c 128,-1,7
 246 -95 246 -95 177 -96 c 0,8,9
 56 -98 56 -98 -33 9 c 0,10,11
 -48 26 -48 26 -31 32 c 0,12,13
 23 48 23 48 70 11 c 0,14,15
 142 -46 142 -46 203 -46 c 0,16,17
 227 -46 227 -46 241 -36 c 128,-1,18
 255 -26 255 -26 255 -11 c 0,19,20
 255 9 255 9 224.5 33 c 128,-1,21
 194 57 194 57 157.5 76 c 128,-1,22
 121 95 121 95 90.5 125.5 c 128,-1,23
 60 156 60 156 60 188 c 0,24,25
 60 230 60 230 98 273 c 128,-1,26
 136 316 136 316 198 336 c 1,27,28
 182 360 182 360 182 387 c 0,29,30
 182 450 182 450 241 514.5 c 128,-1,31
 300 579 300 579 388 612 c 0,32,33
 442 631 442 631 472.5 626 c 128,-1,34
 503 621 503 621 526 593 c 0,35,36
 555 556 555 556 555 524 c 128,-1,37
 555 492 555 492 526 453 c 0,38,39
 494 409 494 409 457 342 c 0,40,41
 448 326 448 326 435 339 c 0,42,43
 398 376 398 376 425 436 c 0,44,45
 433 453 433 453 456 485 c 128,-1,46
 479 517 479 517 491 539.5 c 128,-1,47
 503 562 503 562 495 570 c 0,48,49
 485 575 485 575 460 573 c 128,-1,50
 435 571 435 571 401 554 c 128,-1,51
 367 537 367 537 336 515 c 128,-1,52
 305 493 305 493 283.5 459 c 128,-1,53
 262 425 262 425 262 389 c 0,54,55
 262 364 262 364 287 336.5 c 128,-1,56
 312 309 312 309 342 288.5 c 128,-1,57
 372 268 372 268 397 240 c 128,-1,58
 422 212 422 212 422 187 c 0,0,1
345 177 m 0,59,60
 345 194 345 194 330.5 211 c 128,-1,61
 316 228 316 228 281.5 255 c 128,-1,62
 247 282 247 282 235 292 c 1,63,64
 190 274 190 274 165 246 c 128,-1,65
 140 218 140 218 140 192 c 0,66,67
 140 176 140 176 153.5 159.5 c 128,-1,68
 167 143 167 143 182 133 c 128,-1,69
 197 123 197 123 225 106 c 1,70,71
 281 110 281 110 313 131 c 128,-1,72
 345 152 345 152 345 177 c 0,59,60
EndSplineSet
EndChar

StartChar: dieresis
Encoding: 168 168 106
Width: 181
GlyphClass: 2
Flags: W
LayerCount: 2
Fore
SplineSet
117 473 m 0,0,1
 125 489 125 489 138 498 c 128,-1,2
 151 507 151 507 162 502 c 0,3,4
 174 497 174 497 177.5 483 c 128,-1,5
 181 469 181 469 174 454 c 0,6,7
 167 438 167 438 153.5 429 c 128,-1,8
 140 420 140 420 129 425 c 0,9,10
 117 430 117 430 113.5 444 c 128,-1,11
 110 458 110 458 117 473 c 0,0,1
8 473 m 128,-1,13
 15 489 15 489 28 497 c 128,-1,14
 41 505 41 505 53 500 c 0,15,16
 80 487 80 487 64 453 c 0,17,18
 59 438 59 438 45 429.5 c 128,-1,19
 31 421 31 421 20 425 c 0,20,21
 8 429 8 429 4.5 443 c 128,-1,12
 1 457 1 457 8 473 c 128,-1,13
EndSplineSet
EndChar

StartChar: copyright
Encoding: 169 169 107
Width: 550
GlyphClass: 2
Flags: W
LayerCount: 2
Fore
SplineSet
495 612 m 1,0,1
 548 589 548 589 569 538.5 c 128,-1,2
 590 488 590 488 583 433 c 128,-1,3
 576 378 576 378 550 326 c 0,4,5
 513 251 513 251 450 208.5 c 128,-1,6
 387 166 387 166 318 169 c 0,7,8
 230 173 230 173 204.5 240 c 128,-1,9
 179 307 179 307 231 392 c 0,10,11
 277 470 277 470 333.5 505.5 c 128,-1,12
 390 541 390 541 424 521 c 0,13,14
 456 501 456 501 469 472 c 0,15,16
 473 458 473 458 473.5 449 c 128,-1,17
 474 440 474 440 468 423.5 c 128,-1,18
 462 407 462 407 457 396 c 128,-1,19
 452 385 452 385 443 368 c 128,-1,20
 434 351 434 351 430 340 c 0,21,22
 426 331 426 331 423 329.5 c 128,-1,23
 420 328 420 328 411 332 c 0,24,25
 395 340 395 340 390 359.5 c 128,-1,26
 385 379 385 379 395 407 c 0,27,28
 398 415 398 415 403.5 426 c 128,-1,29
 409 437 409 437 412.5 444 c 128,-1,30
 416 451 416 451 419.5 460 c 128,-1,31
 423 469 423 469 422.5 473 c 128,-1,32
 422 477 422 477 419 481 c 0,33,34
 411 487 411 487 391 475 c 128,-1,35
 371 463 371 463 345 434 c 128,-1,36
 319 405 319 405 298 369 c 0,37,38
 259 298 259 298 265.5 250 c 128,-1,39
 272 202 272 202 314 200 c 0,40,41
 363 197 363 197 410.5 236.5 c 128,-1,42
 458 276 458 276 491 339 c 0,43,44
 511 377 511 377 522.5 423 c 128,-1,45
 534 469 534 469 527 517 c 128,-1,46
 520 565 520 565 484 585 c 0,47,48
 431 615 431 615 346 577 c 128,-1,49
 261 539 261 539 200 446 c 0,50,51
 139 348 139 348 140.5 254.5 c 128,-1,52
 142 161 142 161 199 127 c 1,53,54
 246 104 246 104 292.5 110 c 128,-1,55
 339 116 339 116 378 142 c 0,56,57
 383 145 383 145 385.5 146 c 128,-1,58
 388 147 388 147 389.5 144.5 c 128,-1,59
 391 142 391 142 391 136 c 0,60,61
 389 103 389 103 345 85 c 0,62,63
 264 52 264 52 183 100 c 0,64,65
 91 155 91 155 86 271 c 0,66,67
 83 338 83 338 110 404 c 128,-1,68
 137 470 137 470 180 518 c 128,-1,69
 223 566 223 566 272 599 c 128,-1,70
 321 632 321 632 363 641 c 0,71,72
 449 660 449 660 495 612 c 1,0,1
EndSplineSet
EndChar

StartChar: guillemotleft
Encoding: 171 171 108
Width: 294
GlyphClass: 2
Flags: W
LayerCount: 2
Fore
SplineSet
307 323 m 0,0,1
 296 306 296 306 270 280 c 128,-1,2
 244 254 244 254 224 240 c 1,3,4
 246 192 246 192 247.5 157.5 c 128,-1,5
 249 123 249 123 232 112 c 0,6,7
 219 102 219 102 214 119 c 0,8,9
 198 178 198 178 166 237 c 0,10,11
 155 257 155 257 177 273 c 0,12,13
 257 330 257 330 300 385 c 0,14,15
 312 400 312 400 319 383 c 0,16,17
 330 356 330 356 307 323 c 0,0,1
169 317 m 0,18,19
 142 280 142 280 104 253 c 1,20,21
 126 204 126 204 134 175 c 0,22,23
 145 133 145 133 126 114 c 0,24,25
 112 100 112 100 106 118 c 0,26,27
 88 176 88 176 48 244 c 0,28,29
 32 271 32 271 58 288 c 0,30,31
 123 331 123 331 165 379 c 0,32,33
 177 393 177 393 184 376 c 0,34,35
 194 351 194 351 169 317 c 0,18,19
EndSplineSet
EndChar

StartChar: logicalnot
Encoding: 172 172 109
Width: 349
GlyphClass: 2
Flags: W
LayerCount: 2
Fore
SplineSet
127 251 m 0,0,1
 71 254 71 254 62 302 c 0,2,3
 60 309 60 309 62 313 c 128,-1,4
 64 317 64 317 72 316 c 0,5,6
 103 314 103 314 180.5 319.5 c 128,-1,7
 258 325 258 325 275 325 c 0,8,9
 319 325 319 325 337 298 c 0,10,11
 357 269 357 269 341 244 c 0,12,13
 313 200 313 200 291 146 c 0,14,15
 284 130 284 130 271 140 c 0,16,17
 233 169 233 169 258 224 c 0,18,19
 267 244 267 244 277 261 c 1,20,21
 259 260 259 260 202.5 255 c 128,-1,22
 146 250 146 250 127 251 c 0,0,1
EndSplineSet
EndChar

StartChar: registered
Encoding: 174 174 110
Width: 567
GlyphClass: 2
Flags: W
LayerCount: 2
Fore
SplineSet
563 324 m 0,0,1
 536 258 536 258 490.5 223 c 128,-1,2
 445 188 445 188 397 188 c 0,3,4
 351 188 351 188 317 218 c 128,-1,5
 283 248 283 248 268 305 c 1,6,7
 244 262 244 262 213 198 c 0,8,9
 206 182 206 182 197 195 c 0,10,11
 173 227 173 227 195 283 c 0,12,13
 219 347 219 347 293 469 c 1,14,15
 279 479 279 479 272 493 c 0,16,17
 266 505 266 505 280 508 c 0,18,19
 301 512 301 512 345.5 528.5 c 128,-1,20
 390 545 390 545 412 546 c 0,21,22
 469 548 469 548 488 493 c 0,23,24
 507 440 507 440 468 389 c 0,25,26
 448 363 448 363 409.5 340 c 128,-1,27
 371 317 371 317 331 306 c 1,28,29
 341 266 341 266 360.5 243 c 128,-1,30
 380 220 380 220 400 219 c 0,31,32
 424 218 424 218 452.5 245.5 c 128,-1,33
 481 273 481 273 508 333 c 0,34,35
 546 422 546 422 533 493 c 128,-1,36
 520 564 520 564 471 585 c 0,37,38
 417 608 417 608 337 570.5 c 128,-1,39
 257 533 257 533 193 444 c 0,40,41
 150 383 150 383 134.5 316.5 c 128,-1,42
 119 250 119 250 132.5 199.5 c 128,-1,43
 146 149 146 149 183 130 c 0,44,45
 228 111 228 111 276.5 121.5 c 128,-1,46
 325 132 325 132 358 161 c 0,47,48
 373 174 373 174 373 158 c 0,49,50
 373 123 373 123 333 99 c 0,51,52
 308 84 308 84 276 81.5 c 128,-1,53
 244 79 244 79 221 83.5 c 128,-1,54
 198 88 198 88 181 96 c 0,55,56
 73 143 73 143 73 273 c 0,57,58
 73 340 73 340 101.5 405 c 128,-1,59
 130 470 130 470 174 516.5 c 128,-1,60
 218 563 218 563 267 595 c 128,-1,61
 316 627 316 627 358 636 c 0,62,63
 444 654 444 654 491 608 c 1,64,65
 531 590 531 590 555 556.5 c 128,-1,66
 579 523 579 523 584.5 483 c 128,-1,67
 590 443 590 443 584.5 402.5 c 128,-1,68
 579 362 579 362 563 324 c 0,0,1
455 481 m 0,69,70
 454 485 454 485 450 487 c 128,-1,71
 446 489 446 489 440.5 489 c 128,-1,72
 435 489 435 489 429 488.5 c 128,-1,73
 423 488 423 488 414.5 485 c 128,-1,74
 406 482 406 482 399.5 480 c 128,-1,75
 393 478 393 478 382.5 474.5 c 128,-1,76
 372 471 372 471 367 469 c 0,77,78
 317 390 317 390 298 358 c 1,79,80
 369 377 369 377 416.5 416.5 c 128,-1,81
 464 456 464 456 455 481 c 0,69,70
EndSplineSet
EndChar

StartChar: macron
Encoding: 175 175 111
Width: 220
GlyphClass: 2
Flags: W
LayerCount: 2
Fore
SplineSet
46 429 m 0,0,1
 6 429 6 429 0 467 c 0,2,3
 -1 474 -1 474 0 476.5 c 128,-1,4
 1 479 1 479 7 478 c 0,5,6
 32 476 32 476 92 480.5 c 128,-1,7
 152 485 152 485 174 485 c 0,8,9
 214 485 214 485 220 447 c 0,10,11
 221 441 221 441 219.5 438.5 c 128,-1,12
 218 436 218 436 212 437 c 0,13,14
 189 440 189 440 123.5 434.5 c 128,-1,15
 58 429 58 429 46 429 c 0,0,1
EndSplineSet
EndChar

StartChar: degree
Encoding: 176 176 112
Width: 302
GlyphClass: 2
Flags: W
LayerCount: 2
Fore
SplineSet
258 613 m 0,0,1
 290 613 290 613 312 583 c 0,2,3
 338 548 338 548 335 508 c 0,4,5
 333 459 333 459 302.5 412.5 c 128,-1,6
 272 366 272 366 230 358 c 0,7,8
 183 350 183 350 152 393 c 0,9,10
 133 423 133 423 135 462 c 128,-1,11
 137 501 137 501 157 540 c 0,12,13
 175 574 175 574 202 593.5 c 128,-1,14
 229 613 229 613 258 613 c 0,0,1
285 565 m 0,15,16
 275 577 275 577 250 558.5 c 128,-1,17
 225 540 225 540 206 508 c 0,18,19
 189 478 189 478 182.5 445 c 128,-1,20
 176 412 176 412 186 401 c 0,21,22
 197 390 197 390 217 404 c 128,-1,23
 237 418 237 418 258 453 c 0,24,25
 278 487 278 487 285.5 522.5 c 128,-1,26
 293 558 293 558 285 565 c 0,15,16
EndSplineSet
EndChar

StartChar: plusminus
Encoding: 177 177 113
Width: 314
GlyphClass: 2
Flags: W
LayerCount: 2
Fore
SplineSet
138 239 m 1,0,1
 74 239 74 239 62 292 c 0,2,3
 60 299 60 299 63 303 c 128,-1,4
 66 307 66 307 74 306 c 0,5,6
 111 303 111 303 172 309 c 1,7,8
 204 366 204 366 226 406 c 0,9,10
 235 423 235 423 249 407 c 0,11,12
 279 373 279 373 250 314 c 1,13,14
 316 313 316 313 321 260 c 0,15,16
 322 252 322 252 319.5 249 c 128,-1,17
 317 246 317 246 309 247 c 0,18,19
 267 251 267 251 213 245 c 1,20,21
 175 180 175 180 164 152 c 0,22,23
 158 135 158 135 144 146 c 0,24,25
 123 163 123 163 123 188 c 0,26,27
 123 208 123 208 138 239 c 1,0,1
65 50 m 0,28,29
 2 51 2 51 -8 99 c 0,30,31
 -10 106 -10 106 -8 110 c 128,-1,32
 -6 114 -6 114 2 113 c 0,33,34
 32 111 32 111 89 116 c 128,-1,35
 146 121 146 121 164 121 c 0,36,37
 223 121 223 121 239 71 c 0,38,39
 241 64 241 64 238.5 60 c 128,-1,40
 236 56 236 56 228 57 c 0,41,42
 186 60 186 60 133 55 c 128,-1,43
 80 50 80 50 65 50 c 0,28,29
EndSplineSet
EndChar

StartChar: acute
Encoding: 180 180 114
Width: 181
GlyphClass: 2
Flags: W
LayerCount: 2
Fore
SplineSet
174 504 m 0,0,1
 188 495 188 495 174 488 c 0,2,3
 163 483 163 483 136.5 469.5 c 128,-1,4
 110 456 110 456 90.5 447 c 128,-1,5
 71 438 71 438 59 434 c 0,6,7
 27 424 27 424 7 433 c 0,8,9
 -6 439 -6 439 8 449 c 0,10,11
 69 492 69 492 103 507 c 0,12,13
 141 524 141 524 174 504 c 0,0,1
EndSplineSet
EndChar

StartChar: mu
Encoding: 181 181 115
Width: 404
GlyphClass: 2
Flags: W
LayerCount: 2
Fore
SplineSet
196 81 m 1,0,1
 122 -18 122 -18 52 -13 c 0,2,3
 24 -10 24 -10 10 3 c 1,4,5
 -49 -112 -49 -112 -94 -218 c 0,6,7
 -101 -234 -101 -234 -111 -220 c 0,8,9
 -140 -179 -140 -179 -112 -110 c 0,10,11
 -75 -21 -75 -21 2.5 135 c 128,-1,12
 80 291 80 291 139 387 c 0,13,14
 150 405 150 405 165 388 c 0,15,16
 199 337 199 337 146 253 c 0,17,18
 101 181 101 181 68 106 c 0,19,20
 64 97 64 97 61 85 c 128,-1,21
 58 73 58 73 55.5 57 c 128,-1,22
 53 41 53 41 57.5 30.5 c 128,-1,23
 62 20 62 20 73 19 c 0,24,25
 123 15 123 15 221 173 c 0,26,27
 252 223 252 223 290.5 294 c 128,-1,28
 329 365 329 365 345 387 c 0,29,30
 359 407 359 407 370 393 c 0,31,32
 383 378 383 378 384 349 c 128,-1,33
 385 320 385 320 369 281 c 0,34,35
 360 262 360 262 323.5 200 c 128,-1,36
 287 138 287 138 274 110 c 128,-1,37
 261 82 261 82 258 59.5 c 128,-1,38
 255 37 255 37 262.5 24.5 c 128,-1,39
 270 12 270 12 288 13 c 0,40,41
 345 16 345 16 420 151 c 0,42,43
 424 158 424 158 429.5 158.5 c 128,-1,44
 435 159 435 159 438 152 c 0,45,46
 449 130 449 130 429 89 c 0,47,48
 406 45 406 45 364 13.5 c 128,-1,49
 322 -18 322 -18 279 -18 c 0,50,51
 232 -18 232 -18 211 9 c 128,-1,52
 190 36 190 36 196 81 c 1,0,1
EndSplineSet
EndChar

StartChar: paragraph
Encoding: 182 182 116
Width: 471
GlyphClass: 2
Flags: W
LayerCount: 2
Fore
SplineSet
621 551 m 0,0,1
 615 551 615 551 604.5 551 c 128,-1,2
 594 551 594 551 584.5 551 c 128,-1,3
 575 551 575 551 566 551 c 1,4,5
 562 521 562 521 531 468 c 0,6,7
 366 193 366 193 290 3 c 0,8,9
 284 -12 284 -12 273 1 c 0,10,11
 248 30 248 30 268 100 c 0,12,13
 289 171 289 171 358.5 307.5 c 128,-1,14
 428 444 428 444 498 547 c 1,15,16
 483 546 483 546 448 540 c 1,17,18
 247 206 247 206 164 -3 c 0,19,20
 157 -21 157 -21 146 -7 c 0,21,22
 120 25 120 25 140 92 c 0,23,24
 155 145 155 145 199 236 c 1,25,26
 114 252 114 252 103 336 c 0,27,28
 92 422 92 422 170 498 c 0,29,30
 230 556 230 556 331.5 589 c 128,-1,31
 433 622 433 622 546 620 c 0,32,33
 581 619 581 619 603 603 c 128,-1,34
 625 587 625 587 633 566 c 0,35,36
 639 551 639 551 621 551 c 0,0,1
EndSplineSet
EndChar

StartChar: periodcentered
Encoding: 183 183 117
Width: 134
GlyphClass: 2
Flags: W
LayerCount: 2
Fore
SplineSet
56 258 m 0,0,1
 65 278 65 278 81.5 288 c 128,-1,2
 98 298 98 298 113 293 c 128,-1,3
 128 288 128 288 132 270.5 c 128,-1,4
 136 253 136 253 128 233 c 128,-1,5
 120 213 120 213 103 203 c 128,-1,6
 86 193 86 193 71 198 c 128,-1,7
 56 203 56 203 52 221.5 c 128,-1,8
 48 240 48 240 56 258 c 0,0,1
EndSplineSet
EndChar

StartChar: guillemotright
Encoding: 187 187 118
Width: 357
GlyphClass: 2
Flags: W
LayerCount: 2
Fore
SplineSet
78 182 m 0,0,1
 89 199 89 199 115 225 c 128,-1,2
 141 251 141 251 161 265 c 1,3,4
 118 360 118 360 155 387 c 0,5,6
 168 397 168 397 173 380 c 0,7,8
 188 325 188 325 219 268 c 0,9,10
 230 248 230 248 208 232 c 0,11,12
 137 181 137 181 84 120 c 0,13,14
 72 106 72 106 65 122 c 0,15,16
 54 148 54 148 78 182 c 0,0,1
216 188 m 128,-1,18
 241 222 241 222 281 252 c 1,19,20
 261 291 261 291 251 330 c 0,21,22
 241 373 241 373 259 391 c 0,23,24
 273 405 273 405 279 387 c 0,25,26
 297 329 297 329 337 261 c 0,27,28
 353 234 353 234 327 217 c 0,29,30
 262 174 262 174 220 126 c 0,31,32
 208 112 208 112 201 129 c 0,33,17
 191 154 191 154 216 188 c 128,-1,18
EndSplineSet
EndChar

StartChar: onequarter
Encoding: 188 188 119
Width: 540
GlyphClass: 2
Flags: W
LayerCount: 2
Fore
SplineSet
531 257 m 0,0,1
 496 204 496 204 465 144 c 1,2,3
 474 134 474 134 476 123 c 0,4,5
 477 119 477 119 475.5 117 c 128,-1,6
 474 115 474 115 470 116 c 0,7,8
 464 117 464 117 451 117 c 1,9,10
 416 49 416 49 393 -9 c 0,11,12
 389 -18 389 -18 381 -11 c 0,13,14
 352 12 352 12 370 66 c 0,15,16
 375 83 375 83 390 113 c 1,17,18
 373 111 373 111 302 98 c 0,19,20
 284 94 284 94 276 106 c 0,21,22
 267 118 267 118 262 130 c 0,23,24
 257 140 257 140 264 148 c 0,25,26
 297 187 297 187 366.5 244.5 c 128,-1,27
 436 302 436 302 491 337 c 0,28,29
 508 347 508 347 517 335 c 0,30,31
 529 320 529 320 536 298 c 0,32,33
 543 275 543 275 531 257 c 0,0,1
492 585 m 0,34,35
 516 610 516 610 519 589 c 0,36,37
 525 546 525 546 468 478 c 0,38,39
 465 475 465 475 362 356.5 c 128,-1,40
 259 238 259 238 186 149.5 c 128,-1,41
 113 61 113 61 72 1 c 0,42,43
 61 -15 61 -15 55 3 c 0,44,45
 43 36 43 36 79 93 c 0,46,47
 120 158 120 158 256 319 c 128,-1,48
 392 480 392 480 492 585 c 0,34,35
309 142 m 1,49,50
 359 157 359 157 413 160 c 1,51,52
 451 235 451 235 487 285 c 1,53,54
 387 218 387 218 309 142 c 1,49,50
106 327 m 0,55,56
 126 390 126 390 207 524 c 1,57,58
 175 521 175 521 177 531 c 2,59,-1
 180 536 l 2,60,61
 188 543 188 543 199 553.5 c 128,-1,62
 210 564 210 564 223 578 c 128,-1,63
 236 592 236 592 241 597 c 0,64,65
 249 605 249 605 256 598 c 0,66,67
 292 562 292 562 267 514 c 0,68,69
 258 497 258 497 229 447 c 128,-1,70
 200 397 200 397 174 347.5 c 128,-1,71
 148 298 148 298 130 252 c 0,72,73
 126 243 126 243 118 250 c 0,74,75
 89 273 89 273 106 327 c 0,55,56
EndSplineSet
EndChar

StartChar: onehalf
Encoding: 189 189 120
Width: 530
GlyphClass: 2
Flags: W
LayerCount: 2
Fore
SplineSet
492 585 m 0,0,1
 516 610 516 610 519 589 c 0,2,3
 525 546 525 546 468 478 c 0,4,5
 465 475 465 475 362 356.5 c 128,-1,6
 259 238 259 238 186 149.5 c 128,-1,7
 113 61 113 61 72 1 c 0,8,9
 61 -15 61 -15 55 3 c 0,10,11
 43 36 43 36 79 93 c 0,12,13
 120 158 120 158 256 319 c 128,-1,14
 392 480 392 480 492 585 c 0,0,1
106 327 m 0,15,16
 126 390 126 390 207 524 c 1,17,18
 175 521 175 521 177 531 c 2,19,-1
 180 536 l 2,20,21
 188 543 188 543 199 553.5 c 128,-1,22
 210 564 210 564 223 578 c 128,-1,23
 236 592 236 592 241 597 c 0,24,25
 249 605 249 605 256 598 c 0,26,27
 292 562 292 562 267 514 c 0,28,29
 258 497 258 497 229 447 c 128,-1,30
 200 397 200 397 174 347.5 c 128,-1,31
 148 298 148 298 130 252 c 0,32,33
 126 243 126 243 118 250 c 0,34,35
 89 273 89 273 106 327 c 0,15,16
419 249 m 0,36,37
 405 226 405 226 383 219 c 128,-1,38
 361 212 361 212 346 218 c 0,39,40
 340 220 340 220 343 230 c 0,41,42
 363 284 363 284 409 321 c 0,43,44
 430 338 430 338 455 341 c 128,-1,45
 480 344 480 344 505 326 c 0,46,47
 549 289 549 289 515 221 c 0,48,49
 494 179 494 179 436 127 c 128,-1,50
 378 75 378 75 311 42 c 1,51,52
 350 56 350 56 385 56 c 0,53,54
 424 56 424 56 436 21 c 0,55,56
 439 13 439 13 430 13 c 0,57,58
 352 13 352 13 287 -8 c 0,59,60
 269 -13 269 -13 260 -4 c 0,61,62
 247 9 247 9 242 29 c 0,63,64
 238 45 238 45 250 52 c 0,65,66
 354 110 354 110 417 177.5 c 128,-1,67
 480 245 480 245 480 289 c 0,68,69
 480 304 480 304 470 304 c 0,70,71
 454 304 454 304 419 249 c 0,36,37
EndSplineSet
EndChar

StartChar: threequarters
Encoding: 190 190 121
Width: 620
GlyphClass: 2
Flags: W
LayerCount: 2
Fore
SplineSet
572 585 m 0,0,1
 596 610 596 610 599 589 c 0,2,3
 605 546 605 546 548 478 c 0,4,5
 545 475 545 475 442 356.5 c 128,-1,6
 339 238 339 238 266 149.5 c 128,-1,7
 193 61 193 61 152 1 c 0,8,9
 141 -15 141 -15 135 3 c 0,10,11
 123 36 123 36 159 93 c 0,12,13
 200 158 200 158 336 319 c 128,-1,14
 472 480 472 480 572 585 c 0,0,1
611 257 m 0,15,16
 576 204 576 204 545 144 c 1,17,18
 554 134 554 134 556 123 c 0,19,20
 557 119 557 119 555.5 117 c 128,-1,21
 554 115 554 115 550 116 c 0,22,23
 544 117 544 117 531 117 c 1,24,25
 496 49 496 49 473 -9 c 0,26,27
 469 -18 469 -18 461 -11 c 0,28,29
 432 12 432 12 450 66 c 0,30,31
 455 83 455 83 470 113 c 1,32,33
 454 111 454 111 382 98 c 0,34,35
 364 94 364 94 356 106 c 0,36,37
 347 118 347 118 342 130 c 0,38,39
 337 140 337 140 344 148 c 0,40,41
 377 187 377 187 446.5 244.5 c 128,-1,42
 516 302 516 302 571 337 c 0,43,44
 588 347 588 347 597 335 c 0,45,46
 609 320 609 320 616 298 c 0,47,48
 623 275 623 275 611 257 c 0,15,16
389 142 m 1,49,50
 439 157 439 157 493 160 c 1,51,52
 531 235 531 235 567 285 c 1,53,54
 467 218 467 218 389 142 c 1,49,50
343 543 m 0,55,56
 343 515 343 515 317.5 486 c 128,-1,57
 292 457 292 457 251 442 c 1,58,59
 262 440 262 440 269 437 c 0,60,61
 294 427 294 427 291 385 c 128,-1,62
 288 343 288 343 253 302 c 0,63,64
 219 262 219 262 173 252.5 c 128,-1,65
 127 243 127 243 102 262 c 0,66,67
 80 275 80 275 73 299.5 c 128,-1,68
 66 324 66 324 76 349 c 0,69,70
 91 389 91 389 131 389 c 0,71,72
 148 389 148 389 140 379 c 0,73,74
 118 351 118 351 114.5 323.5 c 128,-1,75
 111 296 111 296 125 291 c 0,76,77
 138 284 138 284 161 294 c 128,-1,78
 184 304 184 304 208 335 c 0,79,80
 235 371 235 371 235 403 c 0,81,82
 235 423 235 423 219 423 c 0,83,84
 217 423 217 423 208.5 421.5 c 128,-1,85
 200 420 200 420 196 420 c 0,86,87
 175 420 175 420 166 438 c 0,88,89
 161 447 161 447 171 450 c 0,90,91
 227 466 227 466 261 497 c 128,-1,92
 295 528 295 528 295 556 c 0,93,94
 295 571 295 571 283 571 c 0,95,96
 270 571 270 571 241 534 c 0,97,98
 226 515 226 515 205 509 c 128,-1,99
 184 503 184 503 172 510 c 0,100,101
 164 513 164 513 169 522 c 0,102,103
 198 577 198 577 242 598 c 0,104,105
 263 608 263 608 285.5 605.5 c 128,-1,106
 308 603 308 603 322 589 c 0,107,108
 343 568 343 568 343 543 c 0,55,56
EndSplineSet
EndChar

StartChar: questiondown
Encoding: 191 191 122
Width: 369
GlyphClass: 2
Flags: W
LayerCount: 2
Fore
SplineSet
342 562 m 0,0,1
 326 603 326 603 348 626 c 0,2,3
 357 637 357 637 374.5 633.5 c 128,-1,4
 392 630 392 630 403 612 c 0,5,6
 414 592 414 592 412 572 c 128,-1,7
 410 552 410 552 398 539 c 128,-1,8
 386 526 386 526 368 533.5 c 128,-1,9
 350 541 350 541 342 562 c 0,0,1
278 86 m 0,10,11
 236 19 236 19 173.5 -5.5 c 128,-1,12
 111 -30 111 -30 55 4 c 0,13,14
 13 32 13 32 4 84 c 128,-1,15
 -5 136 -5 136 24 199 c 0,16,17
 50 253 50 253 95 291 c 128,-1,18
 140 329 140 329 209 366 c 0,19,20
 298 415 298 415 324 511 c 0,21,22
 329 528 329 528 342 514 c 0,23,24
 354 502 354 502 357.5 480.5 c 128,-1,25
 361 459 361 459 349 421 c 0,26,27
 335 389 335 389 307 362.5 c 128,-1,28
 279 336 279 336 223 304 c 0,29,30
 123 247 123 247 79 153 c 0,31,32
 68 130 68 130 62.5 107 c 128,-1,33
 57 84 57 84 60 62 c 128,-1,34
 63 40 63 40 78 32 c 0,35,36
 116 12 116 12 173.5 66 c 128,-1,37
 231 120 231 120 275 209 c 0,38,39
 284 226 284 226 294 212 c 0,40,41
 307 198 307 198 304.5 161 c 128,-1,42
 302 124 302 124 278 86 c 0,10,11
EndSplineSet
EndChar

StartChar: Agrave
Encoding: 192 192 123
Width: 442
GlyphClass: 2
Flags: W
LayerCount: 2
Fore
SplineSet
313 157 m 1,0,1
 293 156 293 156 217 148 c 128,-1,2
 141 140 141 140 114 141 c 1,3,4
 68 62 68 62 38 -3 c 0,5,6
 35 -10 35 -10 29.5 -10 c 128,-1,7
 24 -10 24 -10 20 -5 c 0,8,9
 -2 25 -2 25 25 97 c 0,10,11
 36 125 36 125 52 154 c 1,12,13
 28 167 28 167 19 188 c 0,14,15
 15 198 15 198 17.5 201 c 128,-1,16
 20 204 20 204 31 203 c 0,17,18
 58 199 58 199 76 198 c 1,19,20
 142 313 142 313 233.5 435.5 c 128,-1,21
 325 558 325 558 399 619 c 0,22,23
 421 637 421 637 435 618 c 0,24,25
 450 597 450 597 458 577 c 0,26,27
 472 545 472 545 458 504 c 0,28,29
 410 359 410 359 385 213 c 1,30,31
 423 200 423 200 430 162 c 0,32,33
 433 148 433 148 419 153 c 0,34,35
 401 158 401 158 376 159 c 1,36,37
 364 66 364 66 361 -1 c 0,38,39
 361 -17 361 -17 346 -10 c 0,40,41
 310 6 310 6 309 81 c 0,42,43
 309 117 309 117 313 157 c 1,0,1
152 201 m 1,44,45
 175 203 175 203 235 210 c 128,-1,46
 295 217 295 217 321 218 c 1,47,48
 349 409 349 409 395 526 c 1,49,50
 271 387 271 387 152 201 c 1,44,45
363 715 m 0,51,52
 399 734 399 734 434 715 c 0,53,54
 469 697 469 697 522 654 c 0,55,56
 533 645 533 645 521 640 c 0,57,58
 495 630 495 630 469 641 c 0,59,60
 456 646 456 646 362 700 c 0,61,62
 349 708 349 708 363 715 c 0,51,52
EndSplineSet
EndChar

StartChar: Aacute
Encoding: 193 193 124
Width: 442
GlyphClass: 2
Flags: W
LayerCount: 2
Fore
SplineSet
313 157 m 1,0,1
 293 156 293 156 217 148 c 128,-1,2
 141 140 141 140 114 141 c 1,3,4
 68 62 68 62 38 -3 c 0,5,6
 35 -10 35 -10 29.5 -10 c 128,-1,7
 24 -10 24 -10 20 -5 c 0,8,9
 -2 25 -2 25 25 97 c 0,10,11
 36 125 36 125 52 154 c 1,12,13
 28 167 28 167 19 188 c 0,14,15
 15 198 15 198 17.5 201 c 128,-1,16
 20 204 20 204 31 203 c 0,17,18
 58 199 58 199 76 198 c 1,19,20
 142 313 142 313 233.5 435.5 c 128,-1,21
 325 558 325 558 399 619 c 0,22,23
 421 637 421 637 435 618 c 0,24,25
 450 597 450 597 458 577 c 0,26,27
 472 545 472 545 458 504 c 0,28,29
 410 359 410 359 385 213 c 1,30,31
 423 200 423 200 430 162 c 0,32,33
 433 148 433 148 419 153 c 0,34,35
 401 158 401 158 376 159 c 1,36,37
 364 66 364 66 361 -1 c 0,38,39
 361 -17 361 -17 346 -10 c 0,40,41
 310 6 310 6 309 81 c 0,42,43
 309 117 309 117 313 157 c 1,0,1
152 201 m 1,44,45
 175 203 175 203 235 210 c 128,-1,46
 295 217 295 217 321 218 c 1,47,48
 349 409 349 409 395 526 c 1,49,50
 271 387 271 387 152 201 c 1,44,45
524 731 m 0,51,52
 538 722 538 722 524 715 c 0,53,54
 511 709 511 709 485.5 696 c 128,-1,55
 460 683 460 683 440 674 c 128,-1,56
 420 665 420 665 409 661 c 0,57,58
 374 650 374 650 356 661 c 0,59,60
 342 667 342 667 356 676 c 0,61,62
 433 726 433 726 451 734 c 0,63,64
 491 751 491 751 524 731 c 0,51,52
EndSplineSet
EndChar

StartChar: Acircumflex
Encoding: 194 194 125
Width: 442
GlyphClass: 2
Flags: W
LayerCount: 2
Fore
SplineSet
313 157 m 1,0,1
 293 156 293 156 217 148 c 128,-1,2
 141 140 141 140 114 141 c 1,3,4
 68 62 68 62 38 -3 c 0,5,6
 35 -10 35 -10 29.5 -10 c 128,-1,7
 24 -10 24 -10 20 -5 c 0,8,9
 -2 25 -2 25 25 97 c 0,10,11
 36 125 36 125 52 154 c 1,12,13
 28 167 28 167 19 188 c 0,14,15
 15 198 15 198 17.5 201 c 128,-1,16
 20 204 20 204 31 203 c 0,17,18
 58 199 58 199 76 198 c 1,19,20
 142 313 142 313 233.5 435.5 c 128,-1,21
 325 558 325 558 399 619 c 0,22,23
 421 637 421 637 435 618 c 0,24,25
 450 597 450 597 458 577 c 0,26,27
 472 545 472 545 458 504 c 0,28,29
 410 359 410 359 385 213 c 1,30,31
 423 200 423 200 430 162 c 0,32,33
 433 148 433 148 419 153 c 0,34,35
 401 158 401 158 376 159 c 1,36,37
 364 66 364 66 361 -1 c 0,38,39
 361 -17 361 -17 346 -10 c 0,40,41
 310 6 310 6 309 81 c 0,42,43
 309 117 309 117 313 157 c 1,0,1
152 201 m 1,44,45
 175 203 175 203 235 210 c 128,-1,46
 295 217 295 217 321 218 c 1,47,48
 349 409 349 409 395 526 c 1,49,50
 271 387 271 387 152 201 c 1,44,45
447 694 m 1,51,52
 409 667 409 667 388 657 c 0,53,54
 358 643 358 643 337 649 c 0,55,56
 323 654 323 654 337 664 c 0,57,58
 429 732 429 732 453 746 c 0,59,60
 456 748 456 748 464 750 c 0,61,62
 478 750 478 750 485 735 c 0,63,64
 505 697 505 697 525 665 c 0,65,66
 532 653 532 653 519 650 c 0,67,68
 491 643 491 643 467 669 c 0,69,70
 457 679 457 679 447 694 c 1,51,52
EndSplineSet
EndChar

StartChar: Atilde
Encoding: 195 195 126
Width: 442
GlyphClass: 2
Flags: W
LayerCount: 2
Fore
SplineSet
313 157 m 1,0,1
 293 156 293 156 217 148 c 128,-1,2
 141 140 141 140 114 141 c 1,3,4
 68 62 68 62 38 -3 c 0,5,6
 35 -10 35 -10 29.5 -10 c 128,-1,7
 24 -10 24 -10 20 -5 c 0,8,9
 -2 25 -2 25 25 97 c 0,10,11
 36 125 36 125 52 154 c 1,12,13
 28 167 28 167 19 188 c 0,14,15
 15 198 15 198 17.5 201 c 128,-1,16
 20 204 20 204 31 203 c 0,17,18
 58 199 58 199 76 198 c 1,19,20
 142 313 142 313 233.5 435.5 c 128,-1,21
 325 558 325 558 399 619 c 0,22,23
 421 637 421 637 435 618 c 0,24,25
 450 597 450 597 458 577 c 0,26,27
 472 545 472 545 458 504 c 0,28,29
 410 359 410 359 385 213 c 1,30,31
 423 200 423 200 430 162 c 0,32,33
 433 148 433 148 419 153 c 0,34,35
 401 158 401 158 376 159 c 1,36,37
 364 66 364 66 361 -1 c 0,38,39
 361 -17 361 -17 346 -10 c 0,40,41
 310 6 310 6 309 81 c 0,42,43
 309 117 309 117 313 157 c 1,0,1
152 201 m 1,44,45
 175 203 175 203 235 210 c 128,-1,46
 295 217 295 217 321 218 c 1,47,48
 349 409 349 409 395 526 c 1,49,50
 271 387 271 387 152 201 c 1,44,45
320 690 m 0,51,52
 326 704 326 704 343 715 c 128,-1,53
 360 726 360 726 382 726 c 0,54,55
 399 726 399 726 446.5 708.5 c 128,-1,56
 494 691 494 691 527 701 c 0,57,58
 535 703 535 703 538 700 c 128,-1,59
 541 697 541 697 537 689 c 0,60,61
 521 657 521 657 482 654 c 0,62,63
 457 652 457 652 405.5 671 c 128,-1,64
 354 690 354 690 328 681 c 0,65,66
 322 679 322 679 320 681.5 c 128,-1,67
 318 684 318 684 320 690 c 0,51,52
EndSplineSet
EndChar

StartChar: Adieresis
Encoding: 196 196 127
Width: 442
GlyphClass: 2
Flags: W
LayerCount: 2
Fore
SplineSet
313 157 m 1,0,1
 293 156 293 156 217 148 c 128,-1,2
 141 140 141 140 114 141 c 1,3,4
 68 62 68 62 38 -3 c 0,5,6
 35 -10 35 -10 29.5 -10 c 128,-1,7
 24 -10 24 -10 20 -5 c 0,8,9
 -2 25 -2 25 25 97 c 0,10,11
 36 125 36 125 52 154 c 1,12,13
 28 167 28 167 19 188 c 0,14,15
 15 198 15 198 17.5 201 c 128,-1,16
 20 204 20 204 31 203 c 0,17,18
 58 199 58 199 76 198 c 1,19,20
 142 313 142 313 233.5 435.5 c 128,-1,21
 325 558 325 558 399 619 c 0,22,23
 421 637 421 637 435 618 c 0,24,25
 450 597 450 597 458 577 c 0,26,27
 472 545 472 545 458 504 c 0,28,29
 410 359 410 359 385 213 c 1,30,31
 423 200 423 200 430 162 c 0,32,33
 433 148 433 148 419 153 c 0,34,35
 401 158 401 158 376 159 c 1,36,37
 364 66 364 66 361 -1 c 0,38,39
 361 -17 361 -17 346 -10 c 0,40,41
 310 6 310 6 309 81 c 0,42,43
 309 117 309 117 313 157 c 1,0,1
152 201 m 1,44,45
 175 203 175 203 235 210 c 128,-1,46
 295 217 295 217 321 218 c 1,47,48
 349 409 349 409 395 526 c 1,49,50
 271 387 271 387 152 201 c 1,44,45
469 708 m 128,-1,52
 476 724 476 724 489 732 c 128,-1,53
 502 740 502 740 514 736 c 128,-1,54
 526 732 526 732 529.5 718 c 128,-1,55
 533 704 533 704 526 688 c 0,56,57
 520 673 520 673 506 665 c 128,-1,58
 492 657 492 657 481 661 c 0,59,60
 469 665 469 665 465.5 678.5 c 128,-1,51
 462 692 462 692 469 708 c 128,-1,52
354 706 m 0,61,62
 362 722 362 722 375 731 c 128,-1,63
 388 740 388 740 399 735 c 0,64,65
 411 730 411 730 414.5 716 c 128,-1,66
 418 702 418 702 411 687 c 128,-1,67
 404 672 404 672 391 663 c 128,-1,68
 378 654 378 654 366 658 c 128,-1,69
 354 662 354 662 350.5 676.5 c 128,-1,70
 347 691 347 691 354 706 c 0,61,62
EndSplineSet
EndChar

StartChar: Aring
Encoding: 197 197 128
Width: 442
GlyphClass: 2
Flags: W
LayerCount: 2
Fore
SplineSet
313 157 m 1,0,1
 293 156 293 156 217 148 c 128,-1,2
 141 140 141 140 114 141 c 1,3,4
 68 62 68 62 38 -3 c 0,5,6
 35 -10 35 -10 29.5 -10 c 128,-1,7
 24 -10 24 -10 20 -5 c 0,8,9
 -2 25 -2 25 25 97 c 0,10,11
 36 125 36 125 52 154 c 1,12,13
 28 167 28 167 19 188 c 0,14,15
 15 198 15 198 17.5 201 c 128,-1,16
 20 204 20 204 31 203 c 0,17,18
 58 199 58 199 76 198 c 1,19,20
 142 313 142 313 233.5 435.5 c 128,-1,21
 325 558 325 558 399 619 c 0,22,23
 421 637 421 637 435 618 c 0,24,25
 450 597 450 597 458 577 c 0,26,27
 472 545 472 545 458 504 c 0,28,29
 410 359 410 359 385 213 c 1,30,31
 423 200 423 200 430 162 c 0,32,33
 433 148 433 148 419 153 c 0,34,35
 401 158 401 158 376 159 c 1,36,37
 364 66 364 66 361 -1 c 0,38,39
 361 -17 361 -17 346 -10 c 0,40,41
 310 6 310 6 309 81 c 0,42,43
 309 117 309 117 313 157 c 1,0,1
152 201 m 1,44,45
 175 203 175 203 235 210 c 128,-1,46
 295 217 295 217 321 218 c 1,47,48
 349 409 349 409 395 526 c 1,49,50
 271 387 271 387 152 201 c 1,44,45
493 698 m 0,51,52
 532 666 532 666 503 613 c 0,53,54
 493 594 493 594 474 587.5 c 128,-1,55
 455 581 455 581 436 593 c 0,56,57
 415 608 415 608 411 632.5 c 128,-1,58
 407 657 407 657 418 677 c 0,59,60
 430 699 430 699 450 706.5 c 128,-1,61
 470 714 470 714 493 698 c 0,51,52
482 682 m 0,62,63
 475 686 475 686 464.5 678.5 c 128,-1,64
 454 671 454 671 448 658 c 0,65,66
 432 622 432 622 446 612 c 0,67,68
 450 609 450 609 459.5 614.5 c 128,-1,69
 469 620 469 620 476 633 c 0,70,71
 484 648 484 648 486 662.5 c 128,-1,72
 488 677 488 677 482 682 c 0,62,63
EndSplineSet
EndChar

StartChar: AE
Encoding: 198 198 129
Width: 651
GlyphClass: 2
Flags: W
LayerCount: 2
Fore
SplineSet
128 142 m 1,0,1
 64 60 64 60 24 -9 c 0,2,3
 17 -22 17 -22 8 -9 c 0,4,5
 -14 25 -14 25 25 100 c 0,6,7
 37 124 37 124 55 149 c 1,8,9
 31 160 31 160 24 177 c 0,10,11
 21 183 21 183 21 186 c 128,-1,12
 21 189 21 189 24 190.5 c 128,-1,13
 27 192 27 192 34 192 c 0,14,15
 49 191 49 191 87 195 c 1,16,17
 160 295 160 295 262.5 403.5 c 128,-1,18
 365 512 365 512 446 567 c 0,19,20
 474 587 474 587 506 594 c 0,21,22
 621 618 621 618 708 620 c 0,23,24
 775 621 775 621 796 570 c 0,25,26
 799 563 799 563 796 558.5 c 128,-1,27
 793 554 793 554 784 555 c 0,28,29
 715 561 715 561 572 528 c 1,30,31
 508 425 508 425 430 280 c 1,32,33
 472 288 472 288 509 290 c 0,34,35
 575 291 575 291 591 239 c 0,36,37
 596 224 596 224 579 224 c 0,38,39
 502 225 502 225 387 197 c 1,40,41
 340 100 340 100 322 57 c 1,42,43
 404 82 404 82 474 86 c 128,-1,44
 544 90 544 90 563 38 c 0,45,46
 569 23 569 23 553 23 c 0,47,48
 484 25 484 25 337 -14 c 0,49,50
 316 -20 316 -20 305 -18.5 c 128,-1,51
 294 -17 294 -17 286 -5 c 0,52,53
 268 23 268 23 263 33 c 0,54,55
 250 58 250 58 263 91 c 0,56,57
 282 140 282 140 299 178 c 1,58,59
 182 147 182 147 128 142 c 1,0,1
482 516 m 1,60,61
 344 398 344 398 190 218 c 1,62,63
 213 224 213 224 263.5 239 c 128,-1,64
 314 254 314 254 338 260 c 1,65,66
 397 377 397 377 482 516 c 1,60,61
EndSplineSet
EndChar

StartChar: Ccedilla
Encoding: 199 199 130
Width: 462
GlyphClass: 2
Flags: W
LayerCount: 2
Fore
SplineSet
121 10 m 1,0,1
 120 10 120 10 120 10.5 c 128,-1,2
 120 11 120 11 119 11 c 0,3,4
 83 30 83 30 58.5 75 c 128,-1,5
 34 120 34 120 33 179 c 0,6,7
 32 254 32 254 60 329.5 c 128,-1,8
 88 405 88 405 132.5 461 c 128,-1,9
 177 517 177 517 226 557.5 c 128,-1,10
 275 598 275 598 319 615 c 0,11,12
 410 650 410 650 454 612 c 0,13,14
 495 577 495 577 507 539 c 0,15,16
 520 497 520 497 498 451 c 0,17,18
 487 428 487 428 458 352 c 0,19,20
 452 335 452 335 436 346 c 0,21,22
 392 375 392 375 412 442 c 0,23,24
 416 455 416 455 423.5 473.5 c 128,-1,25
 431 492 431 492 436 505.5 c 128,-1,26
 441 519 441 519 445 533.5 c 128,-1,27
 449 548 449 548 448.5 558.5 c 128,-1,28
 448 569 448 569 441 576 c 0,29,30
 427 592 427 592 380.5 572.5 c 128,-1,31
 334 553 334 553 273.5 499.5 c 128,-1,32
 213 446 213 446 171 376 c 0,33,34
 129 307 129 307 114 234.5 c 128,-1,35
 99 162 99 162 108 112.5 c 128,-1,36
 117 63 117 63 142 42 c 0,37,38
 190 3 190 3 260.5 49 c 128,-1,39
 331 95 331 95 388 206 c 0,40,41
 392 214 392 214 398.5 214 c 128,-1,42
 405 214 405 214 409 204 c 0,43,44
 426 159 426 159 397 110 c 128,-1,45
 368 61 368 61 328 32 c 0,46,47
 251 -23 251 -23 163 -5 c 1,48,49
 153 -25 153 -25 151 -30 c 1,50,51
 176 -31 176 -31 189 -57 c 0,52,53
 202 -84 202 -84 191 -103 c 0,54,55
 173 -133 173 -133 137 -133 c 0,56,57
 108 -133 108 -133 89 -107 c 0,58,59
 84 -100 84 -100 86.5 -96.5 c 128,-1,60
 89 -93 89 -93 96 -93 c 0,61,62
 117 -94 117 -94 135 -89 c 128,-1,63
 153 -84 153 -84 160.5 -78 c 128,-1,64
 168 -72 168 -72 166 -68 c 0,65,66
 162 -61 162 -61 134 -65 c 0,67,68
 115 -68 115 -68 104 -55 c 0,69,70
 92 -41 92 -41 99 -27 c 0,71,72
 105 -14 105 -14 121 10 c 1,0,1
EndSplineSet
EndChar

StartChar: Egrave
Encoding: 200 200 131
Width: 368
GlyphClass: 2
Flags: W
LayerCount: 2
Fore
SplineSet
218 525 m 1,0,1
 187 537 187 537 176 576 c 0,2,3
 174 583 174 583 177 586 c 128,-1,4
 180 589 180 589 187 588 c 0,5,6
 234 585 234 585 325.5 599 c 128,-1,7
 417 613 417 613 436 613 c 0,8,9
 494 614 494 614 512 564 c 0,10,11
 515 558 515 558 512 554 c 128,-1,12
 509 550 509 550 501 551 c 0,13,14
 476 551 476 551 446.5 548 c 128,-1,15
 417 545 417 545 396.5 541.5 c 128,-1,16
 376 538 376 538 344.5 532 c 128,-1,17
 313 526 313 526 298 524 c 1,18,19
 252 455 252 455 160 288 c 1,20,21
 191 294 191 294 231 296 c 0,22,23
 298 299 298 299 313 251 c 0,24,25
 318 236 318 236 303 236 c 0,26,27
 230 236 230 236 118 208 c 1,28,29
 71 118 71 118 41 50 c 1,30,31
 130 78 130 78 196 81 c 0,32,33
 264 84 264 84 281 37 c 0,34,35
 286 22 286 22 271 22 c 0,36,37
 204 23 204 23 50 -18 c 0,38,39
 22 -25 22 -25 8 -8 c 0,40,41
 5 -5 5 -5 -13 29 c 0,42,43
 -25 51 -25 51 -12 86 c 0,44,45
 21 175 21 175 87 299.5 c 128,-1,46
 153 424 153 424 218 525 c 1,0,1
296 735 m 0,47,48
 332 754 332 754 367 735 c 0,49,50
 402 717 402 717 455 674 c 0,51,52
 466 665 466 665 454 660 c 0,53,54
 428 650 428 650 402 661 c 0,55,56
 390 666 390 666 295 720 c 0,57,58
 282 728 282 728 296 735 c 0,47,48
EndSplineSet
EndChar

StartChar: Eacute
Encoding: 201 201 132
Width: 368
GlyphClass: 2
Flags: W
LayerCount: 2
Fore
SplineSet
218 525 m 1,0,1
 187 537 187 537 176 576 c 0,2,3
 174 583 174 583 177 586 c 128,-1,4
 180 589 180 589 187 588 c 0,5,6
 234 585 234 585 325.5 599 c 128,-1,7
 417 613 417 613 436 613 c 0,8,9
 494 614 494 614 512 564 c 0,10,11
 515 558 515 558 512 554 c 128,-1,12
 509 550 509 550 501 551 c 0,13,14
 476 551 476 551 446.5 548 c 128,-1,15
 417 545 417 545 396.5 541.5 c 128,-1,16
 376 538 376 538 344.5 532 c 128,-1,17
 313 526 313 526 298 524 c 1,18,19
 252 455 252 455 160 288 c 1,20,21
 191 294 191 294 231 296 c 0,22,23
 298 299 298 299 313 251 c 0,24,25
 318 236 318 236 303 236 c 0,26,27
 230 236 230 236 118 208 c 1,28,29
 71 118 71 118 41 50 c 1,30,31
 130 78 130 78 196 81 c 0,32,33
 264 84 264 84 281 37 c 0,34,35
 286 22 286 22 271 22 c 0,36,37
 204 23 204 23 50 -18 c 0,38,39
 22 -25 22 -25 8 -8 c 0,40,41
 5 -5 5 -5 -13 29 c 0,42,43
 -25 51 -25 51 -12 86 c 0,44,45
 21 175 21 175 87 299.5 c 128,-1,46
 153 424 153 424 218 525 c 1,0,1
467 731 m 0,47,48
 481 722 481 722 467 715 c 0,49,50
 454 709 454 709 428.5 696 c 128,-1,51
 403 683 403 683 383 674 c 128,-1,52
 363 665 363 665 352 661 c 0,53,54
 317 650 317 650 299 661 c 0,55,56
 285 667 285 667 299 676 c 0,57,58
 376 726 376 726 394 734 c 0,59,60
 434 751 434 751 467 731 c 0,47,48
EndSplineSet
EndChar

StartChar: Ecircumflex
Encoding: 202 202 133
Width: 368
GlyphClass: 2
Flags: W
LayerCount: 2
Fore
SplineSet
218 525 m 1,0,1
 187 537 187 537 176 576 c 0,2,3
 174 583 174 583 177 586 c 128,-1,4
 180 589 180 589 187 588 c 0,5,6
 234 585 234 585 325.5 599 c 128,-1,7
 417 613 417 613 436 613 c 0,8,9
 494 614 494 614 512 564 c 0,10,11
 515 558 515 558 512 554 c 128,-1,12
 509 550 509 550 501 551 c 0,13,14
 476 551 476 551 446.5 548 c 128,-1,15
 417 545 417 545 396.5 541.5 c 128,-1,16
 376 538 376 538 344.5 532 c 128,-1,17
 313 526 313 526 298 524 c 1,18,19
 252 455 252 455 160 288 c 1,20,21
 191 294 191 294 231 296 c 0,22,23
 298 299 298 299 313 251 c 0,24,25
 318 236 318 236 303 236 c 0,26,27
 230 236 230 236 118 208 c 1,28,29
 71 118 71 118 41 50 c 1,30,31
 130 78 130 78 196 81 c 0,32,33
 264 84 264 84 281 37 c 0,34,35
 286 22 286 22 271 22 c 0,36,37
 204 23 204 23 50 -18 c 0,38,39
 22 -25 22 -25 8 -8 c 0,40,41
 5 -5 5 -5 -13 29 c 0,42,43
 -25 51 -25 51 -12 86 c 0,44,45
 21 175 21 175 87 299.5 c 128,-1,46
 153 424 153 424 218 525 c 1,0,1
400 694 m 1,47,48
 362 667 362 667 341 657 c 0,49,50
 311 643 311 643 290 649 c 0,51,52
 276 654 276 654 290 664 c 0,53,54
 382 732 382 732 406 746 c 0,55,56
 408 748 408 748 417 750 c 0,57,58
 430 750 430 750 438 735 c 0,59,60
 458 697 458 697 478 665 c 0,61,62
 486 653 486 653 472 650 c 0,63,64
 444 643 444 643 420 669 c 0,65,66
 410 679 410 679 400 694 c 1,47,48
EndSplineSet
EndChar

StartChar: Edieresis
Encoding: 203 203 134
Width: 368
GlyphClass: 2
Flags: W
LayerCount: 2
Fore
SplineSet
218 525 m 1,0,1
 187 537 187 537 176 576 c 0,2,3
 174 583 174 583 177 586 c 128,-1,4
 180 589 180 589 187 588 c 0,5,6
 234 585 234 585 325.5 599 c 128,-1,7
 417 613 417 613 436 613 c 0,8,9
 494 614 494 614 512 564 c 0,10,11
 515 558 515 558 512 554 c 128,-1,12
 509 550 509 550 501 551 c 0,13,14
 476 551 476 551 446.5 548 c 128,-1,15
 417 545 417 545 396.5 541.5 c 128,-1,16
 376 538 376 538 344.5 532 c 128,-1,17
 313 526 313 526 298 524 c 1,18,19
 252 455 252 455 160 288 c 1,20,21
 191 294 191 294 231 296 c 0,22,23
 298 299 298 299 313 251 c 0,24,25
 318 236 318 236 303 236 c 0,26,27
 230 236 230 236 118 208 c 1,28,29
 71 118 71 118 41 50 c 1,30,31
 130 78 130 78 196 81 c 0,32,33
 264 84 264 84 281 37 c 0,34,35
 286 22 286 22 271 22 c 0,36,37
 204 23 204 23 50 -18 c 0,38,39
 22 -25 22 -25 8 -8 c 0,40,41
 5 -5 5 -5 -13 29 c 0,42,43
 -25 51 -25 51 -12 86 c 0,44,45
 21 175 21 175 87 299.5 c 128,-1,46
 153 424 153 424 218 525 c 1,0,1
412 708 m 128,-1,48
 419 724 419 724 432 732 c 128,-1,49
 445 740 445 740 457 736 c 128,-1,50
 469 732 469 732 472.5 718 c 128,-1,51
 476 704 476 704 469 688 c 0,52,53
 463 673 463 673 449 665 c 128,-1,54
 435 657 435 657 424 661 c 0,55,56
 412 665 412 665 408.5 678.5 c 128,-1,47
 405 692 405 692 412 708 c 128,-1,48
297 706 m 0,57,58
 305 722 305 722 318 731 c 128,-1,59
 331 740 331 740 342 735 c 0,60,61
 354 730 354 730 357.5 716 c 128,-1,62
 361 702 361 702 354 687 c 128,-1,63
 347 672 347 672 334 663 c 128,-1,64
 321 654 321 654 309 658 c 128,-1,65
 297 662 297 662 293.5 676.5 c 128,-1,66
 290 691 290 691 297 706 c 0,57,58
EndSplineSet
EndChar

StartChar: Igrave
Encoding: 204 204 135
Width: 182
GlyphClass: 2
Flags: W
LayerCount: 2
Fore
SplineSet
269 616 m 0,0,1
 283 636 283 636 293 615 c 0,2,3
 319 561 319 561 263 462 c 0,4,5
 90 158 90 158 18 -4 c 0,6,7
 12 -18 12 -18 2 -6 c 0,8,9
 -30 28 -30 28 -2 105 c 0,10,11
 33 203 33 203 119 363.5 c 128,-1,12
 205 524 205 524 269 616 c 0,0,1
233 735 m 0,13,14
 269 754 269 754 304 735 c 0,15,16
 339 717 339 717 392 674 c 0,17,18
 403 665 403 665 391 660 c 0,19,20
 365 650 365 650 339 661 c 0,21,22
 326 666 326 666 232 720 c 0,23,24
 219 728 219 728 233 735 c 0,13,14
EndSplineSet
EndChar

StartChar: Iacute
Encoding: 205 205 136
Width: 182
GlyphClass: 2
Flags: W
LayerCount: 2
Fore
SplineSet
269 616 m 0,0,1
 283 636 283 636 293 615 c 0,2,3
 319 561 319 561 263 462 c 0,4,5
 90 158 90 158 18 -4 c 0,6,7
 12 -18 12 -18 2 -6 c 0,8,9
 -30 28 -30 28 -2 105 c 0,10,11
 33 203 33 203 119 363.5 c 128,-1,12
 205 524 205 524 269 616 c 0,0,1
394 731 m 0,13,14
 408 722 408 722 394 715 c 0,15,16
 381 709 381 709 355.5 696 c 128,-1,17
 330 683 330 683 310 674 c 128,-1,18
 290 665 290 665 279 661 c 0,19,20
 244 650 244 650 226 661 c 0,21,22
 212 667 212 667 226 676 c 0,23,24
 303 726 303 726 321 734 c 0,25,26
 361 751 361 751 394 731 c 0,13,14
EndSplineSet
EndChar

StartChar: Icircumflex
Encoding: 206 206 137
Width: 182
GlyphClass: 2
Flags: W
LayerCount: 2
Fore
SplineSet
269 616 m 0,0,1
 283 636 283 636 293 615 c 0,2,3
 319 561 319 561 263 462 c 0,4,5
 90 158 90 158 18 -4 c 0,6,7
 12 -18 12 -18 2 -6 c 0,8,9
 -30 28 -30 28 -2 105 c 0,10,11
 33 203 33 203 119 363.5 c 128,-1,12
 205 524 205 524 269 616 c 0,0,1
317 694 m 1,13,14
 279 667 279 667 258 657 c 0,15,16
 228 643 228 643 207 649 c 0,17,18
 193 654 193 654 207 664 c 0,19,20
 299 732 299 732 323 746 c 0,21,22
 326 748 326 748 334 750 c 0,23,24
 348 750 348 750 355 735 c 0,25,26
 375 697 375 697 395 665 c 0,27,28
 402 653 402 653 389 650 c 0,29,30
 361 643 361 643 337 669 c 0,31,32
 327 679 327 679 317 694 c 1,13,14
EndSplineSet
EndChar

StartChar: Idieresis
Encoding: 207 207 138
Width: 182
GlyphClass: 2
Flags: W
LayerCount: 2
Fore
SplineSet
269 616 m 0,0,1
 283 636 283 636 293 615 c 0,2,3
 319 561 319 561 263 462 c 0,4,5
 90 158 90 158 18 -4 c 0,6,7
 12 -18 12 -18 2 -6 c 0,8,9
 -30 28 -30 28 -2 105 c 0,10,11
 33 203 33 203 119 363.5 c 128,-1,12
 205 524 205 524 269 616 c 0,0,1
339 708 m 128,-1,14
 346 724 346 724 359 732 c 128,-1,15
 372 740 372 740 384 736 c 128,-1,16
 396 732 396 732 399.5 718 c 128,-1,17
 403 704 403 704 396 688 c 0,18,19
 390 673 390 673 376 665 c 128,-1,20
 362 657 362 657 351 661 c 0,21,22
 339 665 339 665 335.5 678.5 c 128,-1,13
 332 692 332 692 339 708 c 128,-1,14
224 706 m 0,23,24
 232 722 232 722 245 731 c 128,-1,25
 258 740 258 740 269 735 c 0,26,27
 281 730 281 730 284.5 716 c 128,-1,28
 288 702 288 702 281 687 c 128,-1,29
 274 672 274 672 261 663 c 128,-1,30
 248 654 248 654 236 658 c 128,-1,31
 224 662 224 662 220.5 676.5 c 128,-1,32
 217 691 217 691 224 706 c 0,23,24
EndSplineSet
EndChar

StartChar: Eth
Encoding: 208 208 139
Width: 483
GlyphClass: 2
Flags: W
LayerCount: 2
Fore
SplineSet
210 501 m 1,0,1
 161 504 161 504 145 543 c 0,2,3
 139 560 139 560 155 562 c 0,4,5
 191 567 191 567 249.5 591.5 c 128,-1,6
 308 616 308 616 339 621 c 0,7,8
 432 635 432 635 490 533 c 0,9,10
 515 483 515 483 514.5 424 c 128,-1,11
 514 365 514 365 482.5 299 c 128,-1,12
 451 233 451 233 403 174.5 c 128,-1,13
 355 116 355 116 284.5 67 c 128,-1,14
 214 18 214 18 136 -8 c 0,15,16
 97 -21 97 -21 72 -1 c 0,17,18
 43 23 43 23 30 42 c 0,19,20
 15 63 15 63 13.5 80.5 c 128,-1,21
 12 98 12 98 27 148 c 0,22,23
 50 217 50 217 103.5 319 c 128,-1,24
 157 421 157 421 210 501 c 1,0,1
263 511 m 1,25,26
 272 467 272 467 237 406 c 0,27,28
 235 403 235 403 197.5 337 c 128,-1,29
 160 271 160 271 146.5 245.5 c 128,-1,30
 133 220 133 220 110 172 c 128,-1,31
 87 124 87 124 77 92 c 128,-1,32
 67 60 67 60 73 49.5 c 128,-1,33
 79 39 79 39 101 47 c 0,34,35
 167 72 167 72 225 112.5 c 128,-1,36
 283 153 283 153 323.5 198 c 128,-1,37
 364 243 364 243 395.5 293 c 128,-1,38
 427 343 427 343 439.5 387 c 128,-1,39
 452 431 452 431 455 469.5 c 128,-1,40
 458 508 458 508 441 531 c 0,41,42
 429 551 429 551 407 554 c 128,-1,43
 385 557 385 557 366.5 551 c 128,-1,44
 348 545 348 545 313.5 530.5 c 128,-1,45
 279 516 279 516 263 511 c 1,25,26
85 279 m 0,46,47
 22 282 22 282 12 332 c 0,48,49
 10 339 10 339 12 343 c 128,-1,50
 14 347 14 347 22 346 c 0,51,52
 52 344 52 344 115.5 349 c 128,-1,53
 179 354 179 354 196 354 c 0,54,55
 260 354 260 354 271 302 c 0,56,57
 273 295 273 295 270.5 291 c 128,-1,58
 268 287 268 287 260 288 c 0,59,60
 219 291 219 291 160.5 284.5 c 128,-1,61
 102 278 102 278 85 279 c 0,46,47
EndSplineSet
EndChar

StartChar: Ntilde
Encoding: 209 209 140
Width: 459
GlyphClass: 2
Flags: W
LayerCount: 2
Fore
SplineSet
239 429 m 1,0,1
 70 139 70 139 22 -6 c 0,2,3
 17 -23 17 -23 5 -10 c 0,4,5
 -28 27 -28 27 0 102 c 0,6,7
 64 279 64 279 259 607 c 0,8,9
 270 626 270 626 285 616 c 0,10,11
 313 596 313 596 320 570 c 128,-1,12
 327 544 327 544 319 492 c 0,13,14
 298 365 298 365 286 132 c 1,15,16
 335 243 335 243 410 381.5 c 128,-1,17
 485 520 485 520 544 611 c 0,18,19
 556 629 556 629 567 609 c 0,20,21
 592 558 592 558 536 464 c 0,22,23
 489 386 489 386 411 237 c 128,-1,24
 333 88 333 88 291 -7 c 0,25,26
 285 -21 285 -21 271 -13 c 0,27,28
 248 -1 248 -1 237 21.5 c 128,-1,29
 226 44 226 44 222 91 c 0,30,31
 212 215 212 215 239 429 c 1,0,1
338 690 m 0,32,33
 344 704 344 704 361 715 c 128,-1,34
 378 726 378 726 400 726 c 0,35,36
 417 726 417 726 464.5 708.5 c 128,-1,37
 512 691 512 691 545 701 c 0,38,39
 553 703 553 703 556 700 c 128,-1,40
 559 697 559 697 555 689 c 0,41,42
 539 657 539 657 500 654 c 0,43,44
 475 652 475 652 423.5 671 c 128,-1,45
 372 690 372 690 346 681 c 0,46,47
 340 679 340 679 338 681.5 c 128,-1,48
 336 684 336 684 338 690 c 0,32,33
EndSplineSet
EndChar

StartChar: Ograve
Encoding: 210 210 141
Width: 537
GlyphClass: 2
Flags: W
LayerCount: 2
Fore
SplineSet
476 597 m 1,0,1
 535 571 535 571 552.5 503 c 128,-1,2
 570 435 570 435 553 357.5 c 128,-1,3
 536 280 536 280 497 208 c 0,4,5
 430 85 430 85 340 21 c 128,-1,6
 250 -43 250 -43 154 -8 c 0,7,8
 40 34 40 34 40 179 c 0,9,10
 40 255 40 255 70.5 331 c 128,-1,11
 101 407 101 407 147.5 463.5 c 128,-1,12
 194 520 194 520 245 560.5 c 128,-1,13
 296 601 296 601 340 617 c 0,14,15
 428 647 428 647 476 597 c 1,0,1
424 236 m 0,16,17
 467 315 467 315 484.5 391.5 c 128,-1,18
 502 468 502 468 493 515.5 c 128,-1,19
 484 563 484 563 456 573 c 0,20,21
 415 588 415 588 333.5 533.5 c 128,-1,22
 252 479 252 479 186 377 c 0,23,24
 140 305 140 305 121 228.5 c 128,-1,25
 102 152 102 152 112 98 c 128,-1,26
 122 44 122 44 156 30 c 0,27,28
 207 8 207 8 285 66 c 128,-1,29
 363 124 363 124 424 236 c 0,16,17
391 735 m 0,30,31
 427 754 427 754 462 735 c 0,32,33
 497 717 497 717 550 674 c 0,34,35
 561 665 561 665 549 660 c 0,36,37
 523 650 523 650 497 661 c 0,38,39
 485 666 485 666 390 720 c 0,40,41
 377 728 377 728 391 735 c 0,30,31
EndSplineSet
EndChar

StartChar: Oacute
Encoding: 211 211 142
Width: 537
GlyphClass: 2
Flags: W
LayerCount: 2
Fore
SplineSet
476 597 m 1,0,1
 535 571 535 571 552.5 503 c 128,-1,2
 570 435 570 435 553 357.5 c 128,-1,3
 536 280 536 280 497 208 c 0,4,5
 430 85 430 85 340 21 c 128,-1,6
 250 -43 250 -43 154 -8 c 0,7,8
 40 34 40 34 40 179 c 0,9,10
 40 255 40 255 70.5 331 c 128,-1,11
 101 407 101 407 147.5 463.5 c 128,-1,12
 194 520 194 520 245 560.5 c 128,-1,13
 296 601 296 601 340 617 c 0,14,15
 428 647 428 647 476 597 c 1,0,1
424 236 m 0,16,17
 467 315 467 315 484.5 391.5 c 128,-1,18
 502 468 502 468 493 515.5 c 128,-1,19
 484 563 484 563 456 573 c 0,20,21
 415 588 415 588 333.5 533.5 c 128,-1,22
 252 479 252 479 186 377 c 0,23,24
 140 305 140 305 121 228.5 c 128,-1,25
 102 152 102 152 112 98 c 128,-1,26
 122 44 122 44 156 30 c 0,27,28
 207 8 207 8 285 66 c 128,-1,29
 363 124 363 124 424 236 c 0,16,17
601 731 m 0,30,31
 615 722 615 722 601 715 c 0,32,33
 588 709 588 709 562.5 696 c 128,-1,34
 537 683 537 683 517 674 c 128,-1,35
 497 665 497 665 486 661 c 0,36,37
 451 650 451 650 433 661 c 0,38,39
 419 667 419 667 433 676 c 0,40,41
 510 726 510 726 528 734 c 0,42,43
 568 751 568 751 601 731 c 0,30,31
EndSplineSet
EndChar

StartChar: Ocircumflex
Encoding: 212 212 143
Width: 537
GlyphClass: 2
Flags: W
LayerCount: 2
Fore
SplineSet
476 597 m 1,0,1
 535 571 535 571 552.5 503 c 128,-1,2
 570 435 570 435 553 357.5 c 128,-1,3
 536 280 536 280 497 208 c 0,4,5
 430 85 430 85 340 21 c 128,-1,6
 250 -43 250 -43 154 -8 c 0,7,8
 40 34 40 34 40 179 c 0,9,10
 40 255 40 255 70.5 331 c 128,-1,11
 101 407 101 407 147.5 463.5 c 128,-1,12
 194 520 194 520 245 560.5 c 128,-1,13
 296 601 296 601 340 617 c 0,14,15
 428 647 428 647 476 597 c 1,0,1
424 236 m 0,16,17
 467 315 467 315 484.5 391.5 c 128,-1,18
 502 468 502 468 493 515.5 c 128,-1,19
 484 563 484 563 456 573 c 0,20,21
 415 588 415 588 333.5 533.5 c 128,-1,22
 252 479 252 479 186 377 c 0,23,24
 140 305 140 305 121 228.5 c 128,-1,25
 102 152 102 152 112 98 c 128,-1,26
 122 44 122 44 156 30 c 0,27,28
 207 8 207 8 285 66 c 128,-1,29
 363 124 363 124 424 236 c 0,16,17
494 694 m 1,30,31
 456 667 456 667 435 657 c 0,32,33
 405 643 405 643 384 649 c 0,34,35
 370 654 370 654 384 664 c 0,36,37
 476 732 476 732 500 746 c 0,38,39
 502 748 502 748 511 750 c 0,40,41
 524 750 524 750 532 735 c 0,42,43
 552 697 552 697 572 665 c 0,44,45
 580 653 580 653 566 650 c 0,46,47
 538 643 538 643 514 669 c 0,48,49
 504 679 504 679 494 694 c 1,30,31
EndSplineSet
EndChar

StartChar: Otilde
Encoding: 213 213 144
Width: 537
GlyphClass: 2
Flags: W
LayerCount: 2
Fore
SplineSet
476 597 m 1,0,1
 535 571 535 571 552.5 503 c 128,-1,2
 570 435 570 435 553 357.5 c 128,-1,3
 536 280 536 280 497 208 c 0,4,5
 430 85 430 85 340 21 c 128,-1,6
 250 -43 250 -43 154 -8 c 0,7,8
 40 34 40 34 40 179 c 0,9,10
 40 255 40 255 70.5 331 c 128,-1,11
 101 407 101 407 147.5 463.5 c 128,-1,12
 194 520 194 520 245 560.5 c 128,-1,13
 296 601 296 601 340 617 c 0,14,15
 428 647 428 647 476 597 c 1,0,1
424 236 m 0,16,17
 467 315 467 315 484.5 391.5 c 128,-1,18
 502 468 502 468 493 515.5 c 128,-1,19
 484 563 484 563 456 573 c 0,20,21
 415 588 415 588 333.5 533.5 c 128,-1,22
 252 479 252 479 186 377 c 0,23,24
 140 305 140 305 121 228.5 c 128,-1,25
 102 152 102 152 112 98 c 128,-1,26
 122 44 122 44 156 30 c 0,27,28
 207 8 207 8 285 66 c 128,-1,29
 363 124 363 124 424 236 c 0,16,17
387 690 m 0,30,31
 393 704 393 704 410 715 c 128,-1,32
 427 726 427 726 449 726 c 0,33,34
 466 726 466 726 513.5 708.5 c 128,-1,35
 561 691 561 691 594 701 c 0,36,37
 602 703 602 703 605 700 c 128,-1,38
 608 697 608 697 604 689 c 0,39,40
 588 657 588 657 549 654 c 0,41,42
 524 652 524 652 472.5 671 c 128,-1,43
 421 690 421 690 395 681 c 0,44,45
 389 679 389 679 387 681.5 c 128,-1,46
 385 684 385 684 387 690 c 0,30,31
EndSplineSet
EndChar

StartChar: Odieresis
Encoding: 214 214 145
Width: 537
GlyphClass: 2
Flags: W
LayerCount: 2
Fore
SplineSet
476 597 m 1,0,1
 535 571 535 571 552.5 503 c 128,-1,2
 570 435 570 435 553 357.5 c 128,-1,3
 536 280 536 280 497 208 c 0,4,5
 430 85 430 85 340 21 c 128,-1,6
 250 -43 250 -43 154 -8 c 0,7,8
 40 34 40 34 40 179 c 0,9,10
 40 255 40 255 70.5 331 c 128,-1,11
 101 407 101 407 147.5 463.5 c 128,-1,12
 194 520 194 520 245 560.5 c 128,-1,13
 296 601 296 601 340 617 c 0,14,15
 428 647 428 647 476 597 c 1,0,1
424 236 m 0,16,17
 467 315 467 315 484.5 391.5 c 128,-1,18
 502 468 502 468 493 515.5 c 128,-1,19
 484 563 484 563 456 573 c 0,20,21
 415 588 415 588 333.5 533.5 c 128,-1,22
 252 479 252 479 186 377 c 0,23,24
 140 305 140 305 121 228.5 c 128,-1,25
 102 152 102 152 112 98 c 128,-1,26
 122 44 122 44 156 30 c 0,27,28
 207 8 207 8 285 66 c 128,-1,29
 363 124 363 124 424 236 c 0,16,17
516 708 m 128,-1,31
 523 724 523 724 536 732 c 128,-1,32
 549 740 549 740 561 736 c 128,-1,33
 573 732 573 732 576.5 718 c 128,-1,34
 580 704 580 704 573 688 c 0,35,36
 567 673 567 673 553 665 c 128,-1,37
 539 657 539 657 528 661 c 0,38,39
 516 665 516 665 512.5 678.5 c 128,-1,30
 509 692 509 692 516 708 c 128,-1,31
401 706 m 0,40,41
 409 722 409 722 422 731 c 128,-1,42
 435 740 435 740 446 735 c 0,43,44
 458 730 458 730 461.5 716 c 128,-1,45
 465 702 465 702 458 687 c 128,-1,46
 451 672 451 672 438 663 c 128,-1,47
 425 654 425 654 413 658 c 128,-1,48
 401 662 401 662 397.5 676.5 c 128,-1,49
 394 691 394 691 401 706 c 0,40,41
EndSplineSet
EndChar

StartChar: multiply
Encoding: 215 215 146
Width: 273
GlyphClass: 2
Flags: W
LayerCount: 2
Fore
SplineSet
245 190 m 0,0,1
 250 169 250 169 241 160 c 0,2,3
 234 152 234 152 224 162 c 0,4,5
 208 177 208 177 165 242 c 1,6,7
 99 195 99 195 65 165 c 0,8,9
 53 154 53 154 47 164 c 0,10,11
 23 206 23 206 80 256 c 0,12,13
 94 269 94 269 132 296 c 1,14,15
 97 358 97 358 90 379 c 0,16,17
 82 403 82 403 105 403 c 0,18,19
 132 403 132 403 149 374 c 0,20,21
 152 368 152 368 176 328 c 1,22,23
 242 376 242 376 268 401 c 0,24,25
 280 413 280 413 286 402 c 0,26,27
 306 362 306 362 264 318 c 0,28,29
 250 302 250 302 207 271 c 1,30,31
 237 217 237 217 245 190 c 0,0,1
EndSplineSet
EndChar

StartChar: Oslash
Encoding: 216 216 147
Width: 525
GlyphClass: 2
Flags: W
LayerCount: 2
Fore
SplineSet
540 527 m 0,0,1
 566 459 566 459 552 375 c 128,-1,2
 538 291 538 291 494 208 c 0,3,4
 429 87 429 87 339.5 23 c 128,-1,5
 250 -41 250 -41 155 -7 c 0,6,7
 125 3 125 3 103 25 c 1,8,9
 73 -14 73 -14 55 -39 c 0,10,11
 45 -54 45 -54 41 -37 c 0,12,13
 34 -9 34 -9 63 45 c 0,14,15
 68 50 68 50 71 58 c 1,16,17
 40 110 40 110 40 178 c 0,18,19
 40 253 40 253 71 329 c 128,-1,20
 102 405 102 405 148.5 461.5 c 128,-1,21
 195 518 195 518 245.5 558 c 128,-1,22
 296 598 296 598 339 613 c 0,23,24
 427 642 427 642 474 592 c 1,25,26
 497 583 497 583 506 572 c 1,27,28
 545 613 545 613 570 635 c 0,29,30
 586 649 586 649 589 632 c 0,31,32
 595 595 595 595 541 528 c 0,33,34
 540 528 540 528 540 527 c 0,0,1
110 116 m 1,35,36
 243 301 243 301 479 545 c 1,37,38
 470 565 470 565 453 571 c 0,39,40
 413 587 413 587 332 532.5 c 128,-1,41
 251 478 251 478 185 376 c 0,42,43
 143 311 143 311 124 241 c 128,-1,44
 105 171 105 171 110 116 c 1,35,36
493 473 m 1,45,46
 476 454 476 454 416 389 c 128,-1,47
 356 324 356 324 319.5 283 c 128,-1,48
 283 242 283 242 227.5 177.5 c 128,-1,49
 172 113 172 113 128 57 c 1,50,51
 139 38 139 38 155 31 c 0,52,53
 206 9 206 9 283.5 66.5 c 128,-1,54
 361 124 361 124 421 235 c 0,55,56
 493 370 493 370 493 473 c 1,45,46
EndSplineSet
EndChar

StartChar: Ugrave
Encoding: 217 217 148
Width: 452
GlyphClass: 2
Flags: W
LayerCount: 2
Fore
SplineSet
76 -12 m 0,0,1
 -26 30 -26 30 8 168 c 0,2,3
 43 308 43 308 240 607 c 0,4,5
 252 625 252 625 264 606 c 0,6,7
 293 560 293 560 245 467 c 0,8,9
 232 441 232 441 187.5 365 c 128,-1,10
 143 289 143 289 112 226.5 c 128,-1,11
 81 164 81 164 70 117 c 0,12,13
 50 32 50 32 90 17 c 0,14,15
 134 0 134 0 190 55 c 128,-1,16
 246 110 246 110 301 216 c 0,17,18
 426 460 426 460 520 608 c 0,19,20
 531 627 531 627 544 607 c 0,21,22
 568 565 568 565 531 483 c 0,23,24
 500 416 500 416 425.5 281.5 c 128,-1,25
 351 147 351 147 305 83 c 0,26,27
 254 12 254 12 192 -11 c 128,-1,28
 130 -34 130 -34 76 -12 c 0,0,1
348 735 m 0,29,30
 384 754 384 754 419 735 c 0,31,32
 454 717 454 717 507 674 c 0,33,34
 518 665 518 665 506 660 c 0,35,36
 480 650 480 650 454 661 c 0,37,38
 441 666 441 666 347 720 c 0,39,40
 334 728 334 728 348 735 c 0,29,30
EndSplineSet
EndChar

StartChar: Uacute
Encoding: 218 218 149
Width: 452
GlyphClass: 2
Flags: W
LayerCount: 2
Fore
SplineSet
76 -12 m 0,0,1
 -26 30 -26 30 8 168 c 0,2,3
 43 308 43 308 240 607 c 0,4,5
 252 625 252 625 264 606 c 0,6,7
 293 560 293 560 245 467 c 0,8,9
 232 441 232 441 187.5 365 c 128,-1,10
 143 289 143 289 112 226.5 c 128,-1,11
 81 164 81 164 70 117 c 0,12,13
 50 32 50 32 90 17 c 0,14,15
 134 0 134 0 190 55 c 128,-1,16
 246 110 246 110 301 216 c 0,17,18
 426 460 426 460 520 608 c 0,19,20
 531 627 531 627 544 607 c 0,21,22
 568 565 568 565 531 483 c 0,23,24
 500 416 500 416 425.5 281.5 c 128,-1,25
 351 147 351 147 305 83 c 0,26,27
 254 12 254 12 192 -11 c 128,-1,28
 130 -34 130 -34 76 -12 c 0,0,1
519 731 m 0,29,30
 533 722 533 722 519 715 c 0,31,32
 506 709 506 709 480.5 696 c 128,-1,33
 455 683 455 683 435 674 c 128,-1,34
 415 665 415 665 404 661 c 0,35,36
 369 650 369 650 351 661 c 0,37,38
 337 667 337 667 351 676 c 0,39,40
 428 726 428 726 446 734 c 0,41,42
 486 751 486 751 519 731 c 0,29,30
EndSplineSet
EndChar

StartChar: Ucircumflex
Encoding: 219 219 150
Width: 452
GlyphClass: 2
Flags: W
LayerCount: 2
Fore
SplineSet
76 -12 m 0,0,1
 -26 30 -26 30 8 168 c 0,2,3
 43 308 43 308 240 607 c 0,4,5
 252 625 252 625 264 606 c 0,6,7
 293 560 293 560 245 467 c 0,8,9
 232 441 232 441 187.5 365 c 128,-1,10
 143 289 143 289 112 226.5 c 128,-1,11
 81 164 81 164 70 117 c 0,12,13
 50 32 50 32 90 17 c 0,14,15
 134 0 134 0 190 55 c 128,-1,16
 246 110 246 110 301 216 c 0,17,18
 426 460 426 460 520 608 c 0,19,20
 531 627 531 627 544 607 c 0,21,22
 568 565 568 565 531 483 c 0,23,24
 500 416 500 416 425.5 281.5 c 128,-1,25
 351 147 351 147 305 83 c 0,26,27
 254 12 254 12 192 -11 c 128,-1,28
 130 -34 130 -34 76 -12 c 0,0,1
422 694 m 1,29,30
 384 667 384 667 363 657 c 0,31,32
 333 643 333 643 312 649 c 0,33,34
 298 654 298 654 312 664 c 0,35,36
 404 732 404 732 428 746 c 0,37,38
 430 748 430 748 439 750 c 0,39,40
 452 750 452 750 460 735 c 0,41,42
 480 697 480 697 500 665 c 0,43,44
 508 653 508 653 494 650 c 0,45,46
 466 643 466 643 442 669 c 0,47,48
 432 679 432 679 422 694 c 1,29,30
EndSplineSet
EndChar

StartChar: Udieresis
Encoding: 220 220 151
Width: 452
GlyphClass: 2
Flags: W
LayerCount: 2
Fore
SplineSet
76 -12 m 0,0,1
 -26 30 -26 30 8 168 c 0,2,3
 43 308 43 308 240 607 c 0,4,5
 252 625 252 625 264 606 c 0,6,7
 293 560 293 560 245 467 c 0,8,9
 232 441 232 441 187.5 365 c 128,-1,10
 143 289 143 289 112 226.5 c 128,-1,11
 81 164 81 164 70 117 c 0,12,13
 50 32 50 32 90 17 c 0,14,15
 134 0 134 0 190 55 c 128,-1,16
 246 110 246 110 301 216 c 0,17,18
 426 460 426 460 520 608 c 0,19,20
 531 627 531 627 544 607 c 0,21,22
 568 565 568 565 531 483 c 0,23,24
 500 416 500 416 425.5 281.5 c 128,-1,25
 351 147 351 147 305 83 c 0,26,27
 254 12 254 12 192 -11 c 128,-1,28
 130 -34 130 -34 76 -12 c 0,0,1
454 708 m 128,-1,30
 461 724 461 724 474 732 c 128,-1,31
 487 740 487 740 499 736 c 128,-1,32
 511 732 511 732 514.5 718 c 128,-1,33
 518 704 518 704 511 688 c 0,34,35
 505 673 505 673 491 665 c 128,-1,36
 477 657 477 657 466 661 c 0,37,38
 454 665 454 665 450.5 678.5 c 128,-1,29
 447 692 447 692 454 708 c 128,-1,30
339 706 m 0,39,40
 347 722 347 722 360 731 c 128,-1,41
 373 740 373 740 384 735 c 0,42,43
 396 730 396 730 399.5 716 c 128,-1,44
 403 702 403 702 396 687 c 128,-1,45
 389 672 389 672 376 663 c 128,-1,46
 363 654 363 654 351 658 c 128,-1,47
 339 662 339 662 335.5 676.5 c 128,-1,48
 332 691 332 691 339 706 c 0,39,40
EndSplineSet
EndChar

StartChar: Yacute
Encoding: 221 221 152
Width: 379
GlyphClass: 2
Flags: W
LayerCount: 2
Fore
SplineSet
174 197 m 1,0,1
 114 90 114 90 79 -10 c 0,2,3
 73 -25 73 -25 60 -13 c 0,4,5
 29 14 29 14 50 87 c 0,6,7
 66 141 66 141 112 232 c 1,8,9
 116 477 116 477 141 602 c 0,10,11
 145 624 145 624 162 613 c 0,12,13
 202 588 202 588 197 497 c 0,14,15
 196 471 196 471 190 406 c 128,-1,16
 184 341 184 341 182 301 c 1,17,18
 334 469 334 469 495 612 c 0,19,20
 511 625 511 625 516 607 c 0,21,22
 531 551 531 551 455 476 c 0,23,24
 443 464 443 464 385 409 c 128,-1,25
 327 354 327 354 278 305.5 c 128,-1,26
 229 257 229 257 174 197 c 1,0,1
432 731 m 0,27,28
 446 722 446 722 432 715 c 0,29,30
 419 709 419 709 393.5 696 c 128,-1,31
 368 683 368 683 348 674 c 128,-1,32
 328 665 328 665 317 661 c 0,33,34
 282 650 282 650 264 661 c 0,35,36
 250 667 250 667 264 676 c 0,37,38
 341 726 341 726 359 734 c 0,39,40
 399 751 399 751 432 731 c 0,27,28
EndSplineSet
EndChar

StartChar: Thorn
Encoding: 222 222 153
Width: 459
GlyphClass: 2
Flags: W
LayerCount: 2
Fore
SplineSet
277 621 m 0,0,1
 291 641 291 641 301 620 c 0,2,3
 318 584 318 584 296 522 c 1,4,5
 323 529 323 529 343 530 c 0,6,7
 432 533 432 533 462 447 c 0,8,9
 486 378 486 378 446.5 313 c 128,-1,10
 407 248 407 248 327.5 207.5 c 128,-1,11
 248 167 248 167 156 159 c 0,12,13
 127 156 127 156 106 167 c 1,14,15
 52 63 52 63 23 -4 c 0,16,17
 17 -19 17 -19 6 -6 c 0,18,19
 -24 29 -24 29 3 105 c 0,20,21
 42 215 42 215 153 417 c 1,22,23
 120 427 120 427 107 456 c 0,24,25
 99 473 99 473 117 474 c 0,26,27
 141 476 141 476 195 491 c 1,28,29
 235 558 235 558 277 621 c 0,0,1
249 429 m 0,30,31
 190 324 190 324 139 230 c 1,32,33
 208 233 208 233 268 256 c 128,-1,34
 328 279 328 279 362.5 311 c 128,-1,35
 397 343 397 343 413 377.5 c 128,-1,36
 429 412 429 412 419 438 c 0,37,38
 411 458 411 458 384 460 c 128,-1,39
 357 462 357 462 331.5 455.5 c 128,-1,40
 306 449 306 449 266 435 c 0,41,42
 262 433 262 433 260 432.5 c 128,-1,43
 258 432 258 432 255 431 c 128,-1,44
 252 430 252 430 249 429 c 0,30,31
EndSplineSet
EndChar

StartChar: germandbls
Encoding: 223 223 154
Width: 410
GlyphClass: 2
Flags: W
LayerCount: 2
Fore
SplineSet
448 405 m 0,0,1
 400 342 400 342 315 309 c 1,2,3
 338 301 338 301 353 288 c 0,4,5
 392 256 392 256 383 196 c 128,-1,6
 374 136 374 136 318 73 c 0,7,8
 249 -4 249 -4 168 -11 c 0,9,10
 117 -14 117 -14 87 20 c 0,11,12
 81 27 81 27 83 31.5 c 128,-1,13
 85 36 85 36 95 36 c 0,14,15
 137 35 137 35 184 58 c 128,-1,16
 231 81 231 81 264 119 c 0,17,18
 303 165 303 165 320 207.5 c 128,-1,19
 337 250 337 250 320 266 c 128,-1,20
 303 282 303 282 259 273 c 0,21,22
 219 265 219 265 195 308 c 0,23,24
 185 324 185 324 203 329 c 0,25,26
 240 340 240 340 274 357 c 128,-1,27
 308 374 308 374 333 392.5 c 128,-1,28
 358 411 358 411 378.5 431.5 c 128,-1,29
 399 452 399 452 411 471.5 c 128,-1,30
 423 491 423 491 429.5 508.5 c 128,-1,31
 436 526 436 526 435.5 540.5 c 128,-1,32
 435 555 435 555 427 564 c 0,33,34
 416 577 416 577 400.5 578 c 128,-1,35
 385 579 385 579 368 569.5 c 128,-1,36
 351 560 351 560 334.5 547 c 128,-1,37
 318 534 318 534 301.5 516 c 128,-1,38
 285 498 285 498 274.5 485 c 128,-1,39
 264 472 264 472 255 459 c 0,40,41
 205 389 205 389 134.5 254 c 128,-1,42
 64 119 64 119 18 -1 c 0,43,44
 11 -17 11 -17 2 -4 c 0,45,46
 -24 35 -24 35 -2 106 c 0,47,48
 18 170 18 170 71 280 c 128,-1,49
 124 390 124 390 174 464 c 0,50,51
 248 575 248 575 313 605 c 0,52,53
 349 624 349 624 390.5 619.5 c 128,-1,54
 432 615 432 615 458 583 c 0,55,56
 487 552 487 552 486 503 c 128,-1,57
 485 454 485 454 448 405 c 0,0,1
EndSplineSet
EndChar

StartChar: agrave
Encoding: 224 224 155
Width: 407
GlyphClass: 2
Flags: W
LayerCount: 2
Fore
SplineSet
324 325 m 1,0,1
 346 366 346 366 360 386 c 256,2,3
 374 406 374 406 384 392 c 0,4,5
 397 377 397 377 398 348.5 c 128,-1,6
 399 320 399 320 383 281 c 0,7,8
 374 262 374 262 337 199.5 c 128,-1,9
 300 137 300 137 287 108 c 0,10,11
 274 80 274 80 270 58 c 128,-1,12
 266 36 266 36 272 23 c 128,-1,13
 278 10 278 10 295 11 c 0,14,15
 324 12 324 12 361 53 c 128,-1,16
 398 94 398 94 426 150 c 0,17,18
 435 166 435 166 442 151 c 0,19,20
 452 129 452 129 433 89 c 0,21,22
 412 45 412 45 370.5 12.5 c 128,-1,23
 329 -20 329 -20 289 -18 c 128,-1,24
 249 -16 249 -16 228 6 c 128,-1,25
 207 28 207 28 207 64 c 1,26,27
 146 -14 146 -14 82 -14 c 0,28,29
 36 -14 36 -14 14.5 22.5 c 128,-1,30
 -7 59 -7 59 3 117 c 128,-1,31
 13 175 13 175 53 234 c 0,32,33
 110 317 110 317 165.5 357 c 128,-1,34
 221 397 221 397 263 397 c 0,35,36
 294 397 294 397 310 376.5 c 128,-1,37
 326 356 326 356 324 325 c 1,0,1
237 170 m 0,38,39
 267 223 267 223 282 263 c 128,-1,40
 297 303 297 303 296 323 c 128,-1,41
 295 343 295 343 280 345 c 0,42,43
 255 347 255 347 207.5 303 c 128,-1,44
 160 259 160 259 120 194 c 0,45,46
 94 152 94 152 81 111.5 c 128,-1,47
 68 71 68 71 71 45 c 128,-1,48
 74 19 74 19 93 19 c 0,49,50
 122 18 122 18 159 58.5 c 128,-1,51
 196 99 196 99 237 170 c 0,38,39
226 505 m 0,52,53
 262 524 262 524 297 505 c 0,54,55
 332 487 332 487 385 444 c 0,56,57
 396 435 396 435 384 430 c 0,58,59
 358 420 358 420 332 431 c 0,60,61
 320 436 320 436 225 490 c 0,62,63
 212 498 212 498 226 505 c 0,52,53
EndSplineSet
Substitution2: "'smcp' Lowercase to Small Capitals lookup 0 subtable" agrave
EndChar

StartChar: aacute
Encoding: 225 225 156
Width: 407
GlyphClass: 2
Flags: W
LayerCount: 2
Fore
SplineSet
324 325 m 1,0,1
 346 366 346 366 360 386 c 256,2,3
 374 406 374 406 384 392 c 0,4,5
 397 377 397 377 398 348.5 c 128,-1,6
 399 320 399 320 383 281 c 0,7,8
 374 262 374 262 337 199.5 c 128,-1,9
 300 137 300 137 287 108 c 0,10,11
 274 80 274 80 270 58 c 128,-1,12
 266 36 266 36 272 23 c 128,-1,13
 278 10 278 10 295 11 c 0,14,15
 324 12 324 12 361 53 c 128,-1,16
 398 94 398 94 426 150 c 0,17,18
 435 166 435 166 442 151 c 0,19,20
 452 129 452 129 433 89 c 0,21,22
 412 45 412 45 370.5 12.5 c 128,-1,23
 329 -20 329 -20 289 -18 c 128,-1,24
 249 -16 249 -16 228 6 c 128,-1,25
 207 28 207 28 207 64 c 1,26,27
 146 -14 146 -14 82 -14 c 0,28,29
 36 -14 36 -14 14.5 22.5 c 128,-1,30
 -7 59 -7 59 3 117 c 128,-1,31
 13 175 13 175 53 234 c 0,32,33
 110 317 110 317 165.5 357 c 128,-1,34
 221 397 221 397 263 397 c 0,35,36
 294 397 294 397 310 376.5 c 128,-1,37
 326 356 326 356 324 325 c 1,0,1
237 170 m 0,38,39
 267 223 267 223 282 263 c 128,-1,40
 297 303 297 303 296 323 c 128,-1,41
 295 343 295 343 280 345 c 0,42,43
 255 347 255 347 207.5 303 c 128,-1,44
 160 259 160 259 120 194 c 0,45,46
 94 152 94 152 81 111.5 c 128,-1,47
 68 71 68 71 71 45 c 128,-1,48
 74 19 74 19 93 19 c 0,49,50
 122 18 122 18 159 58.5 c 128,-1,51
 196 99 196 99 237 170 c 0,38,39
426 504 m 0,52,53
 440 495 440 495 426 488 c 0,54,55
 415 483 415 483 388.5 469.5 c 128,-1,56
 362 456 362 456 342.5 447 c 128,-1,57
 323 438 323 438 311 434 c 0,58,59
 279 424 279 424 259 433 c 0,60,61
 246 439 246 439 260 449 c 0,62,63
 321 492 321 492 355 507 c 0,64,65
 393 524 393 524 426 504 c 0,52,53
EndSplineSet
Substitution2: "'smcp' Lowercase to Small Capitals lookup 0 subtable" aacute
EndChar

StartChar: acircumflex
Encoding: 226 226 157
Width: 407
GlyphClass: 2
Flags: W
LayerCount: 2
Fore
SplineSet
324 325 m 1,0,1
 346 366 346 366 360 386 c 256,2,3
 374 406 374 406 384 392 c 0,4,5
 397 377 397 377 398 348.5 c 128,-1,6
 399 320 399 320 383 281 c 0,7,8
 374 262 374 262 337 199.5 c 128,-1,9
 300 137 300 137 287 108 c 0,10,11
 274 80 274 80 270 58 c 128,-1,12
 266 36 266 36 272 23 c 128,-1,13
 278 10 278 10 295 11 c 0,14,15
 324 12 324 12 361 53 c 128,-1,16
 398 94 398 94 426 150 c 0,17,18
 435 166 435 166 442 151 c 0,19,20
 452 129 452 129 433 89 c 0,21,22
 412 45 412 45 370.5 12.5 c 128,-1,23
 329 -20 329 -20 289 -18 c 128,-1,24
 249 -16 249 -16 228 6 c 128,-1,25
 207 28 207 28 207 64 c 1,26,27
 146 -14 146 -14 82 -14 c 0,28,29
 36 -14 36 -14 14.5 22.5 c 128,-1,30
 -7 59 -7 59 3 117 c 128,-1,31
 13 175 13 175 53 234 c 0,32,33
 110 317 110 317 165.5 357 c 128,-1,34
 221 397 221 397 263 397 c 0,35,36
 294 397 294 397 310 376.5 c 128,-1,37
 326 356 326 356 324 325 c 1,0,1
237 170 m 0,38,39
 267 223 267 223 282 263 c 128,-1,40
 297 303 297 303 296 323 c 128,-1,41
 295 343 295 343 280 345 c 0,42,43
 255 347 255 347 207.5 303 c 128,-1,44
 160 259 160 259 120 194 c 0,45,46
 94 152 94 152 81 111.5 c 128,-1,47
 68 71 68 71 71 45 c 128,-1,48
 74 19 74 19 93 19 c 0,49,50
 122 18 122 18 159 58.5 c 128,-1,51
 196 99 196 99 237 170 c 0,38,39
341 471 m 1,52,53
 297 445 297 445 281 436 c 0,54,55
 254 422 254 422 230 427 c 0,56,57
 214 431 214 431 229 442 c 0,58,59
 240 449 240 449 283.5 481 c 128,-1,60
 327 513 327 513 345 524 c 0,61,62
 347 526 347 526 352 526 c 2,63,-1
 358 527 l 2,64,65
 369 529 369 529 378 514 c 0,66,67
 402 470 402 470 419 444 c 0,68,69
 426 433 426 433 413 429 c 0,70,71
 384 423 384 423 360 447 c 0,72,73
 349 458 349 458 341 471 c 1,52,53
EndSplineSet
Substitution2: "'smcp' Lowercase to Small Capitals lookup 0 subtable" acircumflex
EndChar

StartChar: atilde
Encoding: 227 227 158
Width: 407
GlyphClass: 2
Flags: W
LayerCount: 2
Fore
SplineSet
324 325 m 1,0,1
 346 366 346 366 360 386 c 256,2,3
 374 406 374 406 384 392 c 0,4,5
 397 377 397 377 398 348.5 c 128,-1,6
 399 320 399 320 383 281 c 0,7,8
 374 262 374 262 337 199.5 c 128,-1,9
 300 137 300 137 287 108 c 0,10,11
 274 80 274 80 270 58 c 128,-1,12
 266 36 266 36 272 23 c 128,-1,13
 278 10 278 10 295 11 c 0,14,15
 324 12 324 12 361 53 c 128,-1,16
 398 94 398 94 426 150 c 0,17,18
 435 166 435 166 442 151 c 0,19,20
 452 129 452 129 433 89 c 0,21,22
 412 45 412 45 370.5 12.5 c 128,-1,23
 329 -20 329 -20 289 -18 c 128,-1,24
 249 -16 249 -16 228 6 c 128,-1,25
 207 28 207 28 207 64 c 1,26,27
 146 -14 146 -14 82 -14 c 0,28,29
 36 -14 36 -14 14.5 22.5 c 128,-1,30
 -7 59 -7 59 3 117 c 128,-1,31
 13 175 13 175 53 234 c 0,32,33
 110 317 110 317 165.5 357 c 128,-1,34
 221 397 221 397 263 397 c 0,35,36
 294 397 294 397 310 376.5 c 128,-1,37
 326 356 326 356 324 325 c 1,0,1
237 170 m 0,38,39
 267 223 267 223 282 263 c 128,-1,40
 297 303 297 303 296 323 c 128,-1,41
 295 343 295 343 280 345 c 0,42,43
 255 347 255 347 207.5 303 c 128,-1,44
 160 259 160 259 120 194 c 0,45,46
 94 152 94 152 81 111.5 c 128,-1,47
 68 71 68 71 71 45 c 128,-1,48
 74 19 74 19 93 19 c 0,49,50
 122 18 122 18 159 58.5 c 128,-1,51
 196 99 196 99 237 170 c 0,38,39
227 442 m 0,52,53
 232 457 232 457 249 471 c 128,-1,54
 266 485 266 485 286 489 c 0,55,56
 302 492 302 492 353 481 c 128,-1,57
 404 470 404 470 427 487 c 0,58,59
 434 490 434 490 437 487.5 c 128,-1,60
 440 485 440 485 437 477 c 0,61,62
 423 442 423 442 387 433 c 0,63,64
 362 427 362 427 309 437.5 c 128,-1,65
 256 448 256 448 237 434 c 0,66,67
 230 430 230 430 227.5 433 c 128,-1,68
 225 436 225 436 227 442 c 0,52,53
EndSplineSet
Substitution2: "'smcp' Lowercase to Small Capitals lookup 0 subtable" atilde
EndChar

StartChar: adieresis
Encoding: 228 228 159
Width: 407
GlyphClass: 2
Flags: W
LayerCount: 2
Fore
SplineSet
324 325 m 1,0,1
 346 366 346 366 360 386 c 256,2,3
 374 406 374 406 384 392 c 0,4,5
 397 377 397 377 398 348.5 c 128,-1,6
 399 320 399 320 383 281 c 0,7,8
 374 262 374 262 337 199.5 c 128,-1,9
 300 137 300 137 287 108 c 0,10,11
 274 80 274 80 270 58 c 128,-1,12
 266 36 266 36 272 23 c 128,-1,13
 278 10 278 10 295 11 c 0,14,15
 324 12 324 12 361 53 c 128,-1,16
 398 94 398 94 426 150 c 0,17,18
 435 166 435 166 442 151 c 0,19,20
 452 129 452 129 433 89 c 0,21,22
 412 45 412 45 370.5 12.5 c 128,-1,23
 329 -20 329 -20 289 -18 c 128,-1,24
 249 -16 249 -16 228 6 c 128,-1,25
 207 28 207 28 207 64 c 1,26,27
 146 -14 146 -14 82 -14 c 0,28,29
 36 -14 36 -14 14.5 22.5 c 128,-1,30
 -7 59 -7 59 3 117 c 128,-1,31
 13 175 13 175 53 234 c 0,32,33
 110 317 110 317 165.5 357 c 128,-1,34
 221 397 221 397 263 397 c 0,35,36
 294 397 294 397 310 376.5 c 128,-1,37
 326 356 326 356 324 325 c 1,0,1
237 170 m 0,38,39
 267 223 267 223 282 263 c 128,-1,40
 297 303 297 303 296 323 c 128,-1,41
 295 343 295 343 280 345 c 0,42,43
 255 347 255 347 207.5 303 c 128,-1,44
 160 259 160 259 120 194 c 0,45,46
 94 152 94 152 81 111.5 c 128,-1,47
 68 71 68 71 71 45 c 128,-1,48
 74 19 74 19 93 19 c 0,49,50
 122 18 122 18 159 58.5 c 128,-1,51
 196 99 196 99 237 170 c 0,38,39
359 473 m 0,52,53
 367 489 367 489 380 498 c 128,-1,54
 393 507 393 507 404 502 c 0,55,56
 416 497 416 497 419.5 483 c 128,-1,57
 423 469 423 469 416 454 c 0,58,59
 409 438 409 438 395.5 429 c 128,-1,60
 382 420 382 420 371 425 c 0,61,62
 359 430 359 430 355.5 444 c 128,-1,63
 352 458 352 458 359 473 c 0,52,53
250 473 m 128,-1,65
 257 489 257 489 270 497 c 128,-1,66
 283 505 283 505 295 500 c 0,67,68
 322 487 322 487 306 453 c 0,69,70
 301 438 301 438 287 429.5 c 128,-1,71
 273 421 273 421 262 425 c 0,72,73
 250 429 250 429 246.5 443 c 128,-1,64
 243 457 243 457 250 473 c 128,-1,65
EndSplineSet
Substitution2: "'smcp' Lowercase to Small Capitals lookup 0 subtable" adieresis
EndChar

StartChar: aring
Encoding: 229 229 160
Width: 407
GlyphClass: 2
Flags: W
LayerCount: 2
Fore
SplineSet
324 325 m 1,0,1
 346 366 346 366 360 386 c 256,2,3
 374 406 374 406 384 392 c 0,4,5
 397 377 397 377 398 348.5 c 128,-1,6
 399 320 399 320 383 281 c 0,7,8
 374 262 374 262 337 199.5 c 128,-1,9
 300 137 300 137 287 108 c 0,10,11
 274 80 274 80 270 58 c 128,-1,12
 266 36 266 36 272 23 c 128,-1,13
 278 10 278 10 295 11 c 0,14,15
 324 12 324 12 361 53 c 128,-1,16
 398 94 398 94 426 150 c 0,17,18
 435 166 435 166 442 151 c 0,19,20
 452 129 452 129 433 89 c 0,21,22
 412 45 412 45 370.5 12.5 c 128,-1,23
 329 -20 329 -20 289 -18 c 128,-1,24
 249 -16 249 -16 228 6 c 128,-1,25
 207 28 207 28 207 64 c 1,26,27
 146 -14 146 -14 82 -14 c 0,28,29
 36 -14 36 -14 14.5 22.5 c 128,-1,30
 -7 59 -7 59 3 117 c 128,-1,31
 13 175 13 175 53 234 c 0,32,33
 110 317 110 317 165.5 357 c 128,-1,34
 221 397 221 397 263 397 c 0,35,36
 294 397 294 397 310 376.5 c 128,-1,37
 326 356 326 356 324 325 c 1,0,1
237 170 m 0,38,39
 267 223 267 223 282 263 c 128,-1,40
 297 303 297 303 296 323 c 128,-1,41
 295 343 295 343 280 345 c 0,42,43
 255 347 255 347 207.5 303 c 128,-1,44
 160 259 160 259 120 194 c 0,45,46
 94 152 94 152 81 111.5 c 128,-1,47
 68 71 68 71 71 45 c 128,-1,48
 74 19 74 19 93 19 c 0,49,50
 122 18 122 18 159 58.5 c 128,-1,51
 196 99 196 99 237 170 c 0,38,39
413 535 m 0,52,53
 452 503 452 503 423 450 c 0,54,55
 413 431 413 431 394 424.5 c 128,-1,56
 375 418 375 418 356 430 c 0,57,58
 335 445 335 445 331 469.5 c 128,-1,59
 327 494 327 494 338 514 c 0,60,61
 350 536 350 536 370 543.5 c 128,-1,62
 390 551 390 551 413 535 c 0,52,53
402 519 m 0,63,64
 395 523 395 523 384.5 515.5 c 128,-1,65
 374 508 374 508 368 495 c 0,66,67
 352 459 352 459 366 449 c 0,68,69
 370 446 370 446 379.5 451.5 c 128,-1,70
 389 457 389 457 396 470 c 0,71,72
 404 485 404 485 406 499.5 c 128,-1,73
 408 514 408 514 402 519 c 0,63,64
EndSplineSet
Substitution2: "'smcp' Lowercase to Small Capitals lookup 0 subtable" aring
EndChar

StartChar: ae
Encoding: 230 230 161
Width: 555
GlyphClass: 2
Flags: W
LayerCount: 2
Fore
SplineSet
571 89 m 0,0,1
 497 -20 497 -20 334 -20 c 0,2,3
 273 -20 273 -20 242.5 3.5 c 128,-1,4
 212 27 212 27 210 67 c 1,5,6
 146 -16 146 -16 81 -16 c 0,7,8
 48 -16 48 -16 27.5 6 c 128,-1,9
 7 28 7 28 2.5 62.5 c 128,-1,10
 -2 97 -2 97 11.5 142.5 c 128,-1,11
 25 188 25 188 55 232 c 0,12,13
 111 313 111 313 167 353 c 128,-1,14
 223 393 223 393 264 393 c 0,15,16
 293 393 293 393 309.5 372.5 c 128,-1,17
 326 352 326 352 324 323 c 1,18,19
 340 355 340 355 359 382 c 0,20,21
 372 401 372 401 384 388 c 0,22,23
 395 377 395 377 397 345 c 1,24,25
 470 396 470 396 512 368 c 0,26,27
 533 355 533 355 547 333 c 0,28,29
 561 316 561 316 552.5 276 c 128,-1,30
 544 236 544 236 515 199 c 0,31,32
 476 150 476 150 427.5 141 c 128,-1,33
 379 132 379 132 322 174 c 1,34,35
 293 121 293 121 287 107 c 0,36,37
 243 6 243 6 337 6 c 0,38,39
 420 6 420 6 473.5 46 c 128,-1,40
 527 86 527 86 572 153 c 0,41,42
 576 159 576 159 581.5 158.5 c 128,-1,43
 587 158 587 158 589 152 c 0,44,45
 592 145 592 145 587.5 126 c 128,-1,46
 583 107 583 107 571 89 c 0,0,1
344 209 m 0,47,48
 343 207 343 207 339.5 202 c 128,-1,49
 336 197 336 197 334 194 c 0,50,51
 352 181 352 181 369.5 180 c 128,-1,52
 387 179 387 179 403.5 189.5 c 128,-1,53
 420 200 420 200 431 211.5 c 128,-1,54
 442 223 442 223 456 240 c 0,55,56
 482 273 482 273 494.5 304 c 128,-1,57
 507 335 507 335 497 344 c 128,-1,58
 487 353 487 353 461.5 339 c 128,-1,59
 436 325 436 325 403.5 290 c 128,-1,60
 371 255 371 255 344 209 c 0,47,48
280 342 m 0,61,62
 254 344 254 344 207 300.5 c 128,-1,63
 160 257 160 257 121 193 c 0,64,65
 95 150 95 150 81.5 108.5 c 128,-1,66
 68 67 68 67 71 41 c 128,-1,67
 74 15 74 15 94 15 c 0,68,69
 121 14 121 14 158 55.5 c 128,-1,70
 195 97 195 97 236 168 c 0,71,72
 267 221 267 221 281.5 261 c 128,-1,73
 296 301 296 301 295 321 c 128,-1,74
 294 341 294 341 280 342 c 0,61,62
EndSplineSet
Substitution2: "'smcp' Lowercase to Small Capitals lookup 0 subtable" ae
EndChar

StartChar: ccedilla
Encoding: 231 231 162
Width: 310
GlyphClass: 2
Flags: W
LayerCount: 2
Fore
SplineSet
66 0 m 1,0,1
 13 27 13 27 3 93.5 c 128,-1,2
 -7 160 -7 160 31 236 c 0,3,4
 77 326 77 326 141.5 368 c 128,-1,5
 206 410 206 410 246 386 c 0,6,7
 284 363 284 363 301 331 c 0,8,9
 306 315 306 315 307 304.5 c 128,-1,10
 308 294 308 294 302 276 c 128,-1,11
 296 258 296 258 290.5 245.5 c 128,-1,12
 285 233 285 233 276 214 c 128,-1,13
 267 195 267 195 262 182 c 0,14,15
 257 166 257 166 241 174 c 0,16,17
 197 196 197 196 217 261 c 0,18,19
 220 270 220 270 225.5 283 c 128,-1,20
 231 296 231 296 235.5 305 c 128,-1,21
 240 314 240 314 244 325 c 128,-1,22
 248 336 248 336 248 341 c 128,-1,23
 248 346 248 346 244 351 c 0,24,25
 235 358 235 358 211.5 342 c 128,-1,26
 188 326 188 326 158 289.5 c 128,-1,27
 128 253 128 253 107 210 c 0,28,29
 68 125 68 125 77 69.5 c 128,-1,30
 86 14 86 14 132 13 c 0,31,32
 189 12 189 12 240 54.5 c 128,-1,33
 291 97 291 97 329 155 c 0,34,35
 333 161 333 161 338.5 161 c 128,-1,36
 344 161 344 161 347 154 c 0,37,38
 354 134 354 134 329 94 c 0,39,40
 300 49 300 49 246 17.5 c 128,-1,41
 192 -14 192 -14 136 -15 c 0,42,43
 125 -15 125 -15 107 -13 c 1,44,45
 100 -24 100 -24 95 -36 c 1,46,47
 117 -37 117 -37 131 -62 c 0,48,49
 143 -83 143 -83 132 -104 c 0,50,51
 117 -132 117 -132 82 -132 c 0,52,53
 54 -132 54 -132 38 -108 c 0,54,55
 29 -95 29 -95 44 -95 c 0,56,57
 64 -96 64 -96 80 -92 c 128,-1,58
 96 -88 96 -88 103 -82 c 128,-1,59
 110 -76 110 -76 108 -72 c 0,60,61
 103 -63 103 -63 81 -69 c 0,62,63
 64 -73 64 -73 52 -60 c 0,64,65
 41 -48 41 -48 47 -33 c 0,66,67
 50 -26 50 -26 66 0 c 1,0,1
EndSplineSet
Substitution2: "'smcp' Lowercase to Small Capitals lookup 0 subtable" ccedilla
EndChar

StartChar: egrave
Encoding: 232 232 163
Width: 320
GlyphClass: 2
Flags: W
LayerCount: 2
Fore
SplineSet
92 171 m 1,0,1
 69 102 69 102 82.5 58.5 c 128,-1,2
 96 15 96 15 137 13 c 0,3,4
 193 10 193 10 245 52.5 c 128,-1,5
 297 95 297 95 336 155 c 0,6,7
 346 170 346 170 353 154 c 0,8,9
 357 147 357 147 352.5 128.5 c 128,-1,10
 348 110 348 110 336 92 c 0,11,12
 304 45 304 45 250.5 15 c 128,-1,13
 197 -15 197 -15 140 -16 c 0,14,15
 46 -17 46 -17 15 61 c 128,-1,16
 -16 139 -16 139 34 236 c 0,17,18
 80 328 80 328 145.5 369.5 c 128,-1,19
 211 411 211 411 251 388 c 0,20,21
 289 365 289 365 310 336 c 0,22,23
 325 320 325 320 316.5 278 c 128,-1,24
 308 236 308 236 278 200 c 0,25,26
 252 169 252 169 223.5 153 c 128,-1,27
 195 137 195 137 160.5 140.5 c 128,-1,28
 126 144 126 144 92 171 c 1,0,1
101 193 m 1,29,30
 156 159 156 159 220 243 c 0,31,32
 245 275 245 275 257.5 307.5 c 128,-1,33
 270 340 270 340 260 348 c 0,34,35
 249 357 249 357 222.5 342 c 128,-1,36
 196 327 196 327 163.5 291 c 128,-1,37
 131 255 131 255 109 210 c 0,38,39
 103 198 103 198 101 193 c 1,29,30
182 505 m 0,40,41
 218 524 218 524 253 505 c 0,42,43
 288 487 288 487 341 444 c 0,44,45
 352 435 352 435 340 430 c 0,46,47
 314 420 314 420 288 431 c 0,48,49
 275 436 275 436 181 490 c 0,50,51
 168 498 168 498 182 505 c 0,40,41
EndSplineSet
Substitution2: "'smcp' Lowercase to Small Capitals lookup 0 subtable" egrave
EndChar

StartChar: eacute
Encoding: 233 233 164
Width: 320
GlyphClass: 2
Flags: W
LayerCount: 2
Fore
SplineSet
92 171 m 1,0,1
 69 102 69 102 82.5 58.5 c 128,-1,2
 96 15 96 15 137 13 c 0,3,4
 193 10 193 10 245 52.5 c 128,-1,5
 297 95 297 95 336 155 c 0,6,7
 346 170 346 170 353 154 c 0,8,9
 357 147 357 147 352.5 128.5 c 128,-1,10
 348 110 348 110 336 92 c 0,11,12
 304 45 304 45 250.5 15 c 128,-1,13
 197 -15 197 -15 140 -16 c 0,14,15
 46 -17 46 -17 15 61 c 128,-1,16
 -16 139 -16 139 34 236 c 0,17,18
 80 328 80 328 145.5 369.5 c 128,-1,19
 211 411 211 411 251 388 c 0,20,21
 289 365 289 365 310 336 c 0,22,23
 325 320 325 320 316.5 278 c 128,-1,24
 308 236 308 236 278 200 c 0,25,26
 252 169 252 169 223.5 153 c 128,-1,27
 195 137 195 137 160.5 140.5 c 128,-1,28
 126 144 126 144 92 171 c 1,0,1
101 193 m 1,29,30
 156 159 156 159 220 243 c 0,31,32
 245 275 245 275 257.5 307.5 c 128,-1,33
 270 340 270 340 260 348 c 0,34,35
 249 357 249 357 222.5 342 c 128,-1,36
 196 327 196 327 163.5 291 c 128,-1,37
 131 255 131 255 109 210 c 0,38,39
 103 198 103 198 101 193 c 1,29,30
343 504 m 0,40,41
 357 495 357 495 343 488 c 0,42,43
 332 483 332 483 305.5 469.5 c 128,-1,44
 279 456 279 456 259.5 447 c 128,-1,45
 240 438 240 438 228 434 c 0,46,47
 196 424 196 424 176 433 c 0,48,49
 163 439 163 439 177 449 c 0,50,51
 238 492 238 492 272 507 c 0,52,53
 310 524 310 524 343 504 c 0,40,41
EndSplineSet
Substitution2: "'smcp' Lowercase to Small Capitals lookup 0 subtable" eacute
EndChar

StartChar: ecircumflex
Encoding: 234 234 165
Width: 320
GlyphClass: 2
Flags: W
LayerCount: 2
Fore
SplineSet
92 171 m 1,0,1
 69 102 69 102 82.5 58.5 c 128,-1,2
 96 15 96 15 137 13 c 0,3,4
 193 10 193 10 245 52.5 c 128,-1,5
 297 95 297 95 336 155 c 0,6,7
 346 170 346 170 353 154 c 0,8,9
 357 147 357 147 352.5 128.5 c 128,-1,10
 348 110 348 110 336 92 c 0,11,12
 304 45 304 45 250.5 15 c 128,-1,13
 197 -15 197 -15 140 -16 c 0,14,15
 46 -17 46 -17 15 61 c 128,-1,16
 -16 139 -16 139 34 236 c 0,17,18
 80 328 80 328 145.5 369.5 c 128,-1,19
 211 411 211 411 251 388 c 0,20,21
 289 365 289 365 310 336 c 0,22,23
 325 320 325 320 316.5 278 c 128,-1,24
 308 236 308 236 278 200 c 0,25,26
 252 169 252 169 223.5 153 c 128,-1,27
 195 137 195 137 160.5 140.5 c 128,-1,28
 126 144 126 144 92 171 c 1,0,1
101 193 m 1,29,30
 156 159 156 159 220 243 c 0,31,32
 245 275 245 275 257.5 307.5 c 128,-1,33
 270 340 270 340 260 348 c 0,34,35
 249 357 249 357 222.5 342 c 128,-1,36
 196 327 196 327 163.5 291 c 128,-1,37
 131 255 131 255 109 210 c 0,38,39
 103 198 103 198 101 193 c 1,29,30
278 471 m 1,40,41
 234 445 234 445 218 436 c 0,42,43
 191 422 191 422 167 427 c 0,44,45
 151 431 151 431 166 442 c 0,46,47
 177 449 177 449 220.5 481 c 128,-1,48
 264 513 264 513 282 524 c 0,49,50
 284 526 284 526 290 526 c 2,51,-1
 295 527 l 2,52,53
 306 529 306 529 315 514 c 0,54,55
 339 470 339 470 356 444 c 0,56,57
 363 433 363 433 350 429 c 0,58,59
 321 423 321 423 297 447 c 0,60,61
 286 458 286 458 278 471 c 1,40,41
EndSplineSet
Substitution2: "'smcp' Lowercase to Small Capitals lookup 0 subtable" ecircumflex
EndChar

StartChar: edieresis
Encoding: 235 235 166
Width: 320
GlyphClass: 2
Flags: W
LayerCount: 2
Fore
SplineSet
92 171 m 1,0,1
 69 102 69 102 82.5 58.5 c 128,-1,2
 96 15 96 15 137 13 c 0,3,4
 193 10 193 10 245 52.5 c 128,-1,5
 297 95 297 95 336 155 c 0,6,7
 346 170 346 170 353 154 c 0,8,9
 357 147 357 147 352.5 128.5 c 128,-1,10
 348 110 348 110 336 92 c 0,11,12
 304 45 304 45 250.5 15 c 128,-1,13
 197 -15 197 -15 140 -16 c 0,14,15
 46 -17 46 -17 15 61 c 128,-1,16
 -16 139 -16 139 34 236 c 0,17,18
 80 328 80 328 145.5 369.5 c 128,-1,19
 211 411 211 411 251 388 c 0,20,21
 289 365 289 365 310 336 c 0,22,23
 325 320 325 320 316.5 278 c 128,-1,24
 308 236 308 236 278 200 c 0,25,26
 252 169 252 169 223.5 153 c 128,-1,27
 195 137 195 137 160.5 140.5 c 128,-1,28
 126 144 126 144 92 171 c 1,0,1
101 193 m 1,29,30
 156 159 156 159 220 243 c 0,31,32
 245 275 245 275 257.5 307.5 c 128,-1,33
 270 340 270 340 260 348 c 0,34,35
 249 357 249 357 222.5 342 c 128,-1,36
 196 327 196 327 163.5 291 c 128,-1,37
 131 255 131 255 109 210 c 0,38,39
 103 198 103 198 101 193 c 1,29,30
286 473 m 0,40,41
 294 489 294 489 307 498 c 128,-1,42
 320 507 320 507 331 502 c 0,43,44
 343 497 343 497 346.5 483 c 128,-1,45
 350 469 350 469 343 454 c 0,46,47
 336 438 336 438 322.5 429 c 128,-1,48
 309 420 309 420 298 425 c 0,49,50
 286 430 286 430 282.5 444 c 128,-1,51
 279 458 279 458 286 473 c 0,40,41
177 473 m 128,-1,53
 184 489 184 489 197 497 c 128,-1,54
 210 505 210 505 222 500 c 0,55,56
 249 487 249 487 233 453 c 0,57,58
 228 438 228 438 214 429.5 c 128,-1,59
 200 421 200 421 189 425 c 0,60,61
 177 429 177 429 173.5 443 c 128,-1,52
 170 457 170 457 177 473 c 128,-1,53
EndSplineSet
Substitution2: "'smcp' Lowercase to Small Capitals lookup 0 subtable" edieresis
EndChar

StartChar: igrave
Encoding: 236 236 167
Width: 201
GlyphClass: 2
Flags: W
LayerCount: 2
Fore
SplineSet
69 -15 m 0,0,1
 14 -15 14 -15 -3.5 27.5 c 128,-1,2
 -21 70 -21 70 2 131 c 0,3,4
 20 182 20 182 60 256.5 c 128,-1,5
 100 331 100 331 130 374 c 0,6,7
 143 392 143 392 154 380 c 0,8,9
 167 366 167 366 168 338 c 128,-1,10
 169 310 169 310 153 271 c 0,11,12
 145 255 145 255 113 196 c 128,-1,13
 81 137 81 137 69 109 c 0,14,15
 51 65 51 65 53 39 c 128,-1,16
 55 13 55 13 79 14 c 0,17,18
 111 15 111 15 148 56 c 128,-1,19
 185 97 185 97 209 151 c 0,20,21
 217 166 217 166 225 151 c 0,22,23
 237 128 237 128 218 89 c 0,24,25
 196 43 196 43 154 14 c 128,-1,26
 112 -15 112 -15 69 -15 c 0,0,1
103 505 m 0,27,28
 139 524 139 524 174 505 c 0,29,30
 209 487 209 487 262 444 c 0,31,32
 273 435 273 435 261 430 c 0,33,34
 235 420 235 420 209 431 c 0,35,36
 196 436 196 436 102 490 c 0,37,38
 89 498 89 498 103 505 c 0,27,28
EndSplineSet
Substitution2: "'smcp' Lowercase to Small Capitals lookup 0 subtable" igrave
EndChar

StartChar: iacute
Encoding: 237 237 168
Width: 201
GlyphClass: 2
Flags: W
LayerCount: 2
Fore
SplineSet
69 -15 m 0,0,1
 14 -15 14 -15 -3.5 27.5 c 128,-1,2
 -21 70 -21 70 2 131 c 0,3,4
 20 182 20 182 60 256.5 c 128,-1,5
 100 331 100 331 130 374 c 0,6,7
 143 392 143 392 154 380 c 0,8,9
 167 366 167 366 168 338 c 128,-1,10
 169 310 169 310 153 271 c 0,11,12
 145 255 145 255 113 196 c 128,-1,13
 81 137 81 137 69 109 c 0,14,15
 51 65 51 65 53 39 c 128,-1,16
 55 13 55 13 79 14 c 0,17,18
 111 15 111 15 148 56 c 128,-1,19
 185 97 185 97 209 151 c 0,20,21
 217 166 217 166 225 151 c 0,22,23
 237 128 237 128 218 89 c 0,24,25
 196 43 196 43 154 14 c 128,-1,26
 112 -15 112 -15 69 -15 c 0,0,1
283 504 m 0,27,28
 297 495 297 495 283 488 c 0,29,30
 272 483 272 483 245.5 469.5 c 128,-1,31
 219 456 219 456 199.5 447 c 128,-1,32
 180 438 180 438 168 434 c 0,33,34
 136 424 136 424 116 433 c 0,35,36
 103 439 103 439 117 449 c 0,37,38
 178 492 178 492 212 507 c 0,39,40
 250 524 250 524 283 504 c 0,27,28
EndSplineSet
Substitution2: "'smcp' Lowercase to Small Capitals lookup 0 subtable" iacute
EndChar

StartChar: icircumflex
Encoding: 238 238 169
Width: 201
GlyphClass: 2
Flags: W
LayerCount: 2
Fore
SplineSet
69 -15 m 0,0,1
 14 -15 14 -15 -3.5 27.5 c 128,-1,2
 -21 70 -21 70 2 131 c 0,3,4
 20 182 20 182 60 256.5 c 128,-1,5
 100 331 100 331 130 374 c 0,6,7
 143 392 143 392 154 380 c 0,8,9
 167 366 167 366 168 338 c 128,-1,10
 169 310 169 310 153 271 c 0,11,12
 145 255 145 255 113 196 c 128,-1,13
 81 137 81 137 69 109 c 0,14,15
 51 65 51 65 53 39 c 128,-1,16
 55 13 55 13 79 14 c 0,17,18
 111 15 111 15 148 56 c 128,-1,19
 185 97 185 97 209 151 c 0,20,21
 217 166 217 166 225 151 c 0,22,23
 237 128 237 128 218 89 c 0,24,25
 196 43 196 43 154 14 c 128,-1,26
 112 -15 112 -15 69 -15 c 0,0,1
188 471 m 1,27,28
 144 445 144 445 128 436 c 0,29,30
 101 422 101 422 77 427 c 0,31,32
 61 431 61 431 76 442 c 0,33,34
 87 449 87 449 130.5 481 c 128,-1,35
 174 513 174 513 192 524 c 0,36,37
 194 526 194 526 200 526 c 2,38,-1
 205 527 l 2,39,40
 216 529 216 529 225 514 c 0,41,42
 249 470 249 470 266 444 c 0,43,44
 273 433 273 433 260 429 c 0,45,46
 231 423 231 423 207 447 c 0,47,48
 196 458 196 458 188 471 c 1,27,28
EndSplineSet
Substitution2: "'smcp' Lowercase to Small Capitals lookup 0 subtable" icircumflex
EndChar

StartChar: idieresis
Encoding: 239 239 170
Width: 201
GlyphClass: 2
Flags: W
LayerCount: 2
Fore
SplineSet
69 -15 m 0,0,1
 14 -15 14 -15 -3.5 27.5 c 128,-1,2
 -21 70 -21 70 2 131 c 0,3,4
 20 182 20 182 60 256.5 c 128,-1,5
 100 331 100 331 130 374 c 0,6,7
 143 392 143 392 154 380 c 0,8,9
 167 366 167 366 168 338 c 128,-1,10
 169 310 169 310 153 271 c 0,11,12
 145 255 145 255 113 196 c 128,-1,13
 81 137 81 137 69 109 c 0,14,15
 51 65 51 65 53 39 c 128,-1,16
 55 13 55 13 79 14 c 0,17,18
 111 15 111 15 148 56 c 128,-1,19
 185 97 185 97 209 151 c 0,20,21
 217 166 217 166 225 151 c 0,22,23
 237 128 237 128 218 89 c 0,24,25
 196 43 196 43 154 14 c 128,-1,26
 112 -15 112 -15 69 -15 c 0,0,1
216 473 m 0,27,28
 224 489 224 489 237 498 c 128,-1,29
 250 507 250 507 261 502 c 0,30,31
 273 497 273 497 276.5 483 c 128,-1,32
 280 469 280 469 273 454 c 0,33,34
 266 438 266 438 252.5 429 c 128,-1,35
 239 420 239 420 228 425 c 0,36,37
 216 430 216 430 212.5 444 c 128,-1,38
 209 458 209 458 216 473 c 0,27,28
107 473 m 128,-1,40
 114 489 114 489 127 497 c 128,-1,41
 140 505 140 505 152 500 c 0,42,43
 179 487 179 487 163 453 c 0,44,45
 158 438 158 438 144 429.5 c 128,-1,46
 130 421 130 421 119 425 c 0,47,48
 107 429 107 429 103.5 443 c 128,-1,39
 100 457 100 457 107 473 c 128,-1,40
EndSplineSet
Substitution2: "'smcp' Lowercase to Small Capitals lookup 0 subtable" idieresis
EndChar

StartChar: eth
Encoding: 240 240 171
Width: 351
GlyphClass: 2
Flags: W
LayerCount: 2
Fore
SplineSet
443 581 m 128,-1,1
 458 571 458 571 443 562 c 0,2,3
 440 560 440 560 413.5 545 c 128,-1,4
 387 530 387 530 370 521 c 1,5,6
 377 484 377 484 377 454 c 0,7,8
 377 380 377 380 347 276 c 128,-1,9
 317 172 317 172 272 98 c 0,10,11
 219 12 219 12 157 -9 c 0,12,13
 84 -33 84 -33 31 35 c 1,14,15
 0 82 0 82 5.5 139.5 c 128,-1,16
 11 197 11 197 47 260 c 0,17,18
 77 314 77 314 120 350.5 c 128,-1,19
 163 387 163 387 206 390 c 0,20,21
 247 393 247 393 274 356 c 0,22,23
 277 351 277 351 291 337 c 1,24,25
 314 423 314 423 313 490 c 1,26,27
 279 473 279 473 257 473 c 0,28,29
 241 473 241 473 233 477 c 0,30,31
 221 483 221 483 234 494 c 0,32,33
 262 517 262 517 306 545 c 1,34,35
 292 604 292 604 249 634 c 0,36,37
 232 645 232 645 249 650 c 0,38,39
 272 655 272 655 297 640 c 0,40,41
 332 618 332 618 354 574 c 1,42,43
 384 591 384 591 406 591 c 128,-1,0
 428 591 428 591 443 581 c 128,-1,1
214 136 m 0,44,45
 250 203 250 203 261.5 265 c 128,-1,46
 273 327 273 327 256 335 c 1,47,48
 234 353 234 353 188.5 319.5 c 128,-1,49
 143 286 143 286 107 221 c 0,50,51
 76 164 76 164 66 105.5 c 128,-1,52
 56 47 56 47 76 31 c 0,53,54
 98 13 98 13 138 41.5 c 128,-1,55
 178 70 178 70 214 136 c 0,44,45
EndSplineSet
EndChar

StartChar: ntilde
Encoding: 241 241 172
Width: 384
GlyphClass: 2
Flags: W
LayerCount: 2
Fore
SplineSet
160 294 m 1,0,1
 198 335 198 335 240.5 365 c 128,-1,2
 283 395 283 395 306 392 c 0,3,4
 333 388 333 388 347 356.5 c 128,-1,5
 361 325 361 325 345 286 c 0,6,7
 336 267 336 267 300.5 205.5 c 128,-1,8
 265 144 265 144 252 116 c 0,9,10
 239 87 239 87 236.5 63 c 128,-1,11
 234 39 234 39 242 25.5 c 128,-1,12
 250 12 250 12 268 13 c 0,13,14
 323 16 323 16 396 151 c 0,15,16
 404 166 404 166 413 152 c 0,17,18
 425 133 425 133 404 89 c 0,19,20
 383 46 383 46 340.5 14 c 128,-1,21
 298 -18 298 -18 256 -18 c 0,22,23
 194 -18 194 -18 175 24 c 128,-1,24
 156 66 156 66 180 131 c 0,25,26
 194 172 194 172 224.5 225 c 128,-1,27
 255 278 255 278 273 309 c 128,-1,28
 291 340 291 340 283 343 c 0,29,30
 277 345 277 345 259 336.5 c 128,-1,31
 241 328 241 328 210.5 304.5 c 128,-1,32
 180 281 180 281 151 249 c 0,33,34
 123 219 123 219 95 172.5 c 128,-1,35
 67 126 67 126 50.5 92 c 128,-1,36
 34 58 34 58 5 -5 c 0,37,38
 -2 -21 -2 -21 -14 -9 c 0,39,40
 -47 24 -47 24 -24 94 c 0,41,42
 -9 140 -9 140 39 228.5 c 128,-1,43
 87 317 87 317 136 389 c 0,44,45
 147 406 147 406 157 389 c 0,46,47
 178 354 178 354 160 294 c 1,0,1
186 442 m 0,48,49
 191 457 191 457 208 471 c 128,-1,50
 225 485 225 485 245 489 c 0,51,52
 261 492 261 492 312 481 c 128,-1,53
 363 470 363 470 386 487 c 0,54,55
 393 490 393 490 396 487.5 c 128,-1,56
 399 485 399 485 396 477 c 0,57,58
 382 442 382 442 346 433 c 0,59,60
 321 427 321 427 268 437.5 c 128,-1,61
 215 448 215 448 196 434 c 0,62,63
 189 430 189 430 186.5 433 c 128,-1,64
 184 436 184 436 186 442 c 0,48,49
EndSplineSet
Substitution2: "'smcp' Lowercase to Small Capitals lookup 0 subtable" ntilde
EndChar

StartChar: ograve
Encoding: 242 242 173
Width: 332
GlyphClass: 2
Flags: W
LayerCount: 2
Fore
SplineSet
342 215 m 0,0,1
 332 204 332 204 315 202 c 1,2,3
 298 134 298 134 254 71.5 c 128,-1,4
 210 9 210 9 157 -9 c 0,5,6
 84 -33 84 -33 31 35 c 1,7,8
 0 82 0 82 5.5 139.5 c 128,-1,9
 11 197 11 197 47 260 c 0,10,11
 77 314 77 314 120 350.5 c 128,-1,12
 163 387 163 387 206 390 c 0,13,14
 247 393 247 393 274 356 c 0,15,16
 279 349 279 349 291 336.5 c 128,-1,17
 303 324 303 324 309 316 c 128,-1,18
 315 308 315 308 319 289.5 c 128,-1,19
 323 271 323 271 321 246 c 0,20,21
 320 242 320 242 320 234.5 c 128,-1,22
 320 227 320 227 319 223 c 1,23,24
 322 223 322 223 328.5 224 c 128,-1,25
 335 225 335 225 339 225 c 0,26,27
 350 225 350 225 342 215 c 0,0,1
256 242 m 1,28,29
 268 290 268 290 264 316 c 0,30,31
 262 331 262 331 255.5 335.5 c 128,-1,32
 249 340 249 340 242.5 333.5 c 128,-1,33
 236 327 236 327 234 313 c 0,34,35
 226 270 226 270 256 242 c 1,28,29
249 215 m 1,36,37
 240 219 240 219 230 227 c 0,38,39
 212 240 212 240 198.5 264.5 c 128,-1,40
 185 289 185 289 184 315 c 1,41,42
 137 275 137 275 107 221 c 0,43,44
 76 164 76 164 66 105.5 c 128,-1,45
 56 47 56 47 76 31 c 0,46,47
 98 13 98 13 138.5 41 c 128,-1,48
 179 69 179 69 214 135 c 0,49,50
 236 176 236 176 249 215 c 1,36,37
188 505 m 0,51,52
 224 524 224 524 259 505 c 0,53,54
 294 487 294 487 347 444 c 0,55,56
 358 435 358 435 346 430 c 0,57,58
 320 420 320 420 294 431 c 0,59,60
 281 436 281 436 187 490 c 0,61,62
 174 498 174 498 188 505 c 0,51,52
EndSplineSet
Substitution2: "'smcp' Lowercase to Small Capitals lookup 0 subtable" ograve
EndChar

StartChar: oacute
Encoding: 243 243 174
Width: 332
GlyphClass: 2
Flags: W
LayerCount: 2
Fore
SplineSet
342 215 m 0,0,1
 332 204 332 204 315 202 c 1,2,3
 298 134 298 134 254 71.5 c 128,-1,4
 210 9 210 9 157 -9 c 0,5,6
 84 -33 84 -33 31 35 c 1,7,8
 0 82 0 82 5.5 139.5 c 128,-1,9
 11 197 11 197 47 260 c 0,10,11
 77 314 77 314 120 350.5 c 128,-1,12
 163 387 163 387 206 390 c 0,13,14
 247 393 247 393 274 356 c 0,15,16
 279 349 279 349 291 336.5 c 128,-1,17
 303 324 303 324 309 316 c 128,-1,18
 315 308 315 308 319 289.5 c 128,-1,19
 323 271 323 271 321 246 c 0,20,21
 320 242 320 242 320 234.5 c 128,-1,22
 320 227 320 227 319 223 c 1,23,24
 322 223 322 223 328.5 224 c 128,-1,25
 335 225 335 225 339 225 c 0,26,27
 350 225 350 225 342 215 c 0,0,1
256 242 m 1,28,29
 268 290 268 290 264 316 c 0,30,31
 262 331 262 331 255.5 335.5 c 128,-1,32
 249 340 249 340 242.5 333.5 c 128,-1,33
 236 327 236 327 234 313 c 0,34,35
 226 270 226 270 256 242 c 1,28,29
249 215 m 1,36,37
 240 219 240 219 230 227 c 0,38,39
 212 240 212 240 198.5 264.5 c 128,-1,40
 185 289 185 289 184 315 c 1,41,42
 137 275 137 275 107 221 c 0,43,44
 76 164 76 164 66 105.5 c 128,-1,45
 56 47 56 47 76 31 c 0,46,47
 98 13 98 13 138.5 41 c 128,-1,48
 179 69 179 69 214 135 c 0,49,50
 236 176 236 176 249 215 c 1,36,37
349 504 m 0,51,52
 363 495 363 495 349 488 c 0,53,54
 338 483 338 483 311.5 469.5 c 128,-1,55
 285 456 285 456 265.5 447 c 128,-1,56
 246 438 246 438 234 434 c 0,57,58
 202 424 202 424 182 433 c 0,59,60
 169 439 169 439 183 449 c 0,61,62
 244 492 244 492 278 507 c 0,63,64
 316 524 316 524 349 504 c 0,51,52
EndSplineSet
Substitution2: "'smcp' Lowercase to Small Capitals lookup 0 subtable" oacute
EndChar

